<svg id="icon_analytics" xmlns="http://www.w3.org/2000/svg" width="76" height="76" viewBox="0 0 76 76">
  <path id="Path_10158" data-name="Path 10158" d="M51.127,65.952H83.02V10.006H10.013V65.952h4.748" transform="translate(-8.515 -8.511)" fill="#edf2fa"/>
  <rect id="Rectangle_956" data-name="Rectangle 956" width="73.007" height="11.067" transform="translate(1.497 45.928)" fill="#70ddd6"/>
  <rect id="Rectangle_957" data-name="Rectangle 957" width="13.527" height="5.991" transform="translate(39.551 68.512)" fill="#edf2fa"/>
  <path id="Path_10159" data-name="Path 10159" d="M154.675,467.924h30.31v-5.992h-12.3" transform="translate(-131.829 -393.42)" fill="#7d9bff"/>
  <g id="Group_6759" data-name="Group 6759" transform="translate(4.483 54.464)">
    <path id="Path_10160" data-name="Path 10160" d="M272.383,381.305V377.1a10.282,10.282,0,0,0-5.5-9.1h0v13.308" transform="translate(-231.452 -367.997)" fill="#ff5d5d"/>
    <path id="Path_10161" data-name="Path 10161" d="M29.973,381.305V377.1a10.282,10.282,0,0,1,5.5-9.1h0V380.41" transform="translate(-29.973 -367.997)" fill="#ff5d5d"/>
  </g>
  <path id="Path_10162" data-name="Path 10162" d="M96.677,194.963V183.578A39.871,39.871,0,0,0,81.708,152.44h0a39.871,39.871,0,0,0-14.964,31.134v12.733Z" transform="translate(-56.762 -130.215)" fill="#fff"/>
  <ellipse id="Ellipse_1687" data-name="Ellipse 1687" cx="7.179" cy="7.179" rx="7.179" ry="7.179" transform="translate(17.606 37.903)" fill="#f9556d"/>
  <g id="Group_6760" data-name="Group 6760" transform="translate(1.496 57.504)">
    <path id="Path_10163" data-name="Path 10163" d="M247.019,467.924a5.992,5.992,0,0,0-11.983,0Z" transform="translate(-201.38 -450.923)" fill="#ade5ff"/>
    <path id="Path_10164" data-name="Path 10164" d="M48.112,396.821a15.162,15.162,0,0,0-28.026,1.936A7.178,7.178,0,0,0,10,405.322H43.656" transform="translate(-10 -388.321)" fill="#32e2a9"/>
  </g>
  <path id="Path_10165" data-name="Path 10165" d="M273.094,123.607l-7.478,7.444v12.325h7.478Z" transform="translate(-226.221 -105.308)" fill="#c9f3ff"/>
  <path id="Path_10166" data-name="Path 10166" d="M323.093,128.543l-7.478-4.936v19.77h7.478Z" transform="translate(-268.804 -105.308)" fill="#ffc66c"/>
  <path id="Path_10167" data-name="Path 10167" d="M373.092,104.638l-7.478,7.773v14.834h7.478Z" transform="translate(-311.388 -89.155)" fill="#fe8f8d"/>
  <path id="Path_10168" data-name="Path 10168" d="M423.09,54.639l-7.478,7.478V84.724h7.478Z" transform="translate(-354.028 -46.468)" fill="#a0e557"/>
  <path id="Path_10169" data-name="Path 10169" d="M74.516.007H1.486A1.484,1.484,0,0,0,0,1.491V57.019A1.485,1.485,0,0,0,1.486,58.5H4.163a11.686,11.686,0,0,0-1.2,5.162v4.175a1.5,1.5,0,0,0,.012.178A8.591,8.591,0,0,0,0,74.523a1.485,1.485,0,0,0,1.484,1.484H53.042a1.485,1.485,0,0,0,1.484-1.484V68.576a1.485,1.485,0,0,0-1.484-1.484H46.558V63.666a11.686,11.686,0,0,0-1.2-5.162H74.516A1.485,1.485,0,0,0,76,57.019V1.491A1.484,1.484,0,0,0,74.516.007ZM11.392,54.632v-1.1A37.891,37.891,0,0,1,24.76,24.559a37.891,37.891,0,0,1,13.372,28.98V61.7a16.533,16.533,0,0,0-26.74,2.876S11.392,54.632,11.392,54.632Zm44.363-18.14V23.575l4.453-4.453v17.37Zm-2.969,0H48.333V19.707l4.453,4.453Zm-7.422,0H40.912v-10.1l4.453-4.453Zm-7.422,0H37.39c-.113-.248-.225-.5-.343-.741-.585-1.216-1.235-2.4-1.939-3.556l2.835-2.835v7.132Zm.66,2.969H73.031v5.078H40.093A41.425,41.425,0,0,0,38.6,39.461ZM73.031,2.976V36.492H70.6V25.761a1.484,1.484,0,1,0-2.969,0V36.492H63.177V16.508a1.482,1.482,0,0,0-.035-.32L67.63,11.7v1.771a1.484,1.484,0,1,0,2.969,0V8.117a1.484,1.484,0,0,0-1.484-1.484H63.759a1.484,1.484,0,0,0,0,2.969h1.771L53.978,21.154l-4.964-4.964a1.485,1.485,0,0,0-2.1,0L33.437,29.668a41.234,41.234,0,0,0-7.751-8.192,1.484,1.484,0,0,0-1.854,0,40.955,40.955,0,0,0-14.4,23.063H2.971V2.976H73.031ZM6.236,55.535H2.971V47.507H8.876a40.853,40.853,0,0,0-.453,6.029v.241a11.7,11.7,0,0,0-2.171,1.759Zm-.3,8.131a8.7,8.7,0,0,1,2.489-6.1v8.356a8.562,8.562,0,0,0-2.489.423ZM3.167,73.038A5.652,5.652,0,0,1,8.61,68.881a5.593,5.593,0,0,1,2.283.483,1.484,1.484,0,0,0,2.013-.895,13.563,13.563,0,0,1,25.072-1.731,1.49,1.49,0,0,0,.154.249V67.6a7.457,7.457,0,0,0-4.578,5.435H3.167Zm33.46,0a4.463,4.463,0,0,1,8.417,0Zm14.931,0H48.117a7.4,7.4,0,0,0-1.344-2.978h4.785ZM41.1,67.091V57.561c.124.127.243.258.359.392l.025.029a8.7,8.7,0,0,1,2.106,5.684v3.426ZM73.031,55.535H43.271A11.69,11.69,0,0,0,41.1,53.777v-.237a40.842,40.842,0,0,0-.454-6.033H73.031v8.028Z" transform="translate(0 -0.007)"/>
  <path id="Path_10170" data-name="Path 10170" d="M117.489,263.142a8.674,8.674,0,1,0-8.674-8.674A8.684,8.684,0,0,0,117.489,263.142Zm0-14.357a5.683,5.683,0,1,1-5.683,5.683A5.69,5.69,0,0,1,117.489,248.784Z" transform="translate(-92.699 -209.389)"/>
  <path id="Path_10171" data-name="Path 10171" d="M42.267,93.484H56.026a1.5,1.5,0,1,0,0-2.991H42.267a1.5,1.5,0,1,0,0,2.991Z" transform="translate(-34.673 -77.065)"/>
  <path id="Path_10172" data-name="Path 10172" d="M119.3,130.493a1.5,1.5,0,1,0,1.057.438A1.507,1.507,0,0,0,119.3,130.493Z" transform="translate(-100.319 -111.129)"/>
  <path id="Path_10173" data-name="Path 10173" d="M42.267,133.483H47.3a1.5,1.5,0,1,0,0-2.991h-5.03a1.5,1.5,0,1,0,0,2.991Z" transform="translate(-34.673 -111.129)"/>
  <path id="Path_10174" data-name="Path 10174" d="M42.267,53.485h8.276a1.5,1.5,0,1,0,0-2.991H42.267a1.5,1.5,0,1,0,0,2.991Z" transform="translate(-34.673 -42.943)"/>
  <path id="Path_10175" data-name="Path 10175" d="M457.106,130.493a1.5,1.5,0,1,0,1.057.438A1.506,1.506,0,0,0,457.106,130.493Z" transform="translate(-388.044 -111.129)"/>
</svg>
