<svg id="icon_marketanalysis" xmlns="http://www.w3.org/2000/svg" width="76" height="76" viewBox="0 0 76 76">
  <path id="Path_10192" data-name="Path 10192" d="M152.18,83.005h43.727V23.5L182.28,10H142V83.005Z" transform="translate(-121.404 -8.503)" fill="#fff"/>
  <path id="Path_10193" data-name="Path 10193" d="M273.1,263.395l-7.487,7.454v14.666H273.1Z" transform="translate(-226.221 -224.437)" fill="#32e2a9"/>
  <path id="Path_10194" data-name="Path 10194" d="M323.1,268.336l-7.487-4.941v22.12H323.1Z" transform="translate(-268.806 -224.437)" fill="#ffc66c"/>
  <path id="Path_10195" data-name="Path 10195" d="M373.1,244.424l-7.487,7.782v17.178H373.1Z" transform="translate(-311.391 -208.296)" fill="#fe8f8d"/>
  <path id="Path_10196" data-name="Path 10196" d="M423.1,194.424l-7.487,7.487v24.961H423.1Z" transform="translate(-354.044 -165.75)" fill="#a0e557"/>
  <path id="Path_10197" data-name="Path 10197" d="M411,11.167V24.619h13.452" transform="translate(-350.124 -9.495)" fill="#32e2a9"/>
  <path id="Path_10198" data-name="Path 10198" d="M51.179,96.209c0,.243-9.219,12.967-20.589,12.967S10,96.37,10,96.209c0-.242,9.219-12.967,20.589-12.967S51.179,96.048,51.179,96.209Z" transform="translate(-8.503 -70.941)" fill="#32e2a9"/>
  <ellipse id="Ellipse_1688" data-name="Ellipse 1688" cx="7.033" cy="7.033" rx="7.033" ry="7.033" transform="translate(14.896 18.2)" fill="#ffb954"/>
  <path id="Path_10199" data-name="Path 10199" d="M75.565,13.941,62.057.435A1.484,1.484,0,0,0,61.008,0H21.078a1.484,1.484,0,0,0-1.484,1.484v9.547c-5.347.732-9.993,3.86-13.1,6.538A42.236,42.236,0,0,0,1.957,22.14C0,24.444,0,24.816,0,25.21c0,.413,0,.739,1.958,3.039A43.111,43.111,0,0,0,6.492,32.82c3.55,3.07,9.1,6.729,15.4,6.729s11.856-3.642,15.4-6.7a42.262,42.262,0,0,0,4.537-4.571c1.957-2.3,1.957-2.677,1.957-3.071,0-.413,0-.739-1.958-3.039A43.111,43.111,0,0,0,37.3,17.6c-3.424-2.96-8.713-6.468-14.735-6.714V2.969H59.523V14.992a1.484,1.484,0,0,0,1.484,1.484H73.031V59.54H70.6V40.424a1.484,1.484,0,0,0-2.969,0V59.54H63.176V37.252a1.482,1.482,0,0,0-.035-.32l4.489-4.489v1.771a1.484,1.484,0,1,0,2.969,0V28.86a1.484,1.484,0,0,0-1.484-1.484H63.759a1.484,1.484,0,0,0,0,2.969H65.53L53.978,41.9l-4.964-4.964a1.484,1.484,0,0,0-2.1,0L35.785,48.062a1.484,1.484,0,1,0,2.1,2.1l.058-.058v9.437h-1.08a1.484,1.484,0,0,0,0,2.969H73.031V73.031H22.563V68.569a1.484,1.484,0,0,0-2.969,0v5.947A1.485,1.485,0,0,0,21.078,76H74.516A1.485,1.485,0,0,0,76,74.516V14.99A1.484,1.484,0,0,0,75.565,13.941ZM40.492,25.222a37.944,37.944,0,0,1-5.54,5.726c-3.072,2.57-7.831,5.632-13.057,5.632S11.887,33.485,8.8,30.889A39.21,39.21,0,0,1,3.3,25.2a37.941,37.941,0,0,1,5.54-5.726c3.072-2.57,7.831-5.632,13.057-5.632s10.007,3.1,13.093,5.691A39.211,39.211,0,0,1,40.492,25.222ZM60.208,59.54H55.755V44.318l4.453-4.453ZM52.786,44.9V59.54H48.333V40.451Zm-11.875,2.23,4.453-4.453V59.54H40.911ZM62.492,5.068l8.441,8.44H62.492Z" transform="translate(0 0)"/>
  <path id="Path_10200" data-name="Path 10200" d="M90.551,121.379a8.531,8.531,0,1,0,8.531-8.531A8.54,8.54,0,0,0,90.551,121.379Zm8.531-5.536a5.536,5.536,0,1,1-5.536,5.536A5.542,5.542,0,0,1,99.082,115.843Z" transform="translate(-77.144 -96.139)"/>
  <path id="Path_10201" data-name="Path 10201" d="M139,162.835a1.5,1.5,0,1,0-1.059-.439A1.508,1.508,0,0,0,139,162.835Z" transform="translate(-117.097 -136.122)"/>
  <path id="Path_10202" data-name="Path 10202" d="M5.37,360.109H22.209a1.5,1.5,0,1,0,0-2.995H5.37a1.5,1.5,0,1,0,0,2.995Z" transform="translate(-3.293 -304.124)"/>
  <path id="Path_10203" data-name="Path 10203" d="M150.407,358.611a1.5,1.5,0,0,0,1.5,1.5h3.447a1.5,1.5,0,1,0,0-2.995H151.9A1.5,1.5,0,0,0,150.407,358.611Z" transform="translate(-128.099 -304.124)"/>
  <path id="Path_10204" data-name="Path 10204" d="M26.157,313.114H5.37a1.5,1.5,0,1,0,0,2.995H26.157a1.5,1.5,0,1,0,0-2.995Z" transform="translate(-3.293 -266.653)"/>
  <path id="Path_10205" data-name="Path 10205" d="M174.456,315.675a1.5,1.5,0,1,0-1.059.439A1.508,1.508,0,0,0,174.456,315.675Z" transform="translate(-146.393 -266.659)"/>
  <path id="Path_10206" data-name="Path 10206" d="M17.409,401.114H5.37a1.5,1.5,0,1,0,0,2.995H17.409a1.5,1.5,0,0,0,0-2.995Z" transform="translate(-3.293 -341.595)"/>
  <path id="Path_10207" data-name="Path 10207" d="M119.314,402.606a1.5,1.5,0,1,0-.439,1.059A1.5,1.5,0,0,0,119.314,402.606Z" transform="translate(-99.059 -341.591)"/>
  <path id="Path_10208" data-name="Path 10208" d="M150.849,401.548a1.5,1.5,0,1,0,1.059-.439A1.5,1.5,0,0,0,150.849,401.548Z" transform="translate(-128.091 -341.591)"/>
  <path id="Path_10209" data-name="Path 10209" d="M184.49,402.606a1.5,1.5,0,1,0,.439-1.059A1.505,1.505,0,0,0,184.49,402.606Z" transform="translate(-157.115 -341.591)"/>
  <path id="Path_10210" data-name="Path 10210" d="M276.5,56.185h10.875a1.5,1.5,0,0,0,0-2.995H276.5a1.5,1.5,0,0,0,0,2.995Z" transform="translate(-234.259 -45.225)"/>
  <path id="Path_10211" data-name="Path 10211" d="M276.5,98.734H284.4a1.5,1.5,0,0,0,0-2.995H276.5a1.5,1.5,0,0,0,0,2.995Z" transform="translate(-234.239 -81.533)"/>
</svg>
