<svg id="icon_marketing" xmlns="http://www.w3.org/2000/svg" width="76" height="76" viewBox="0 0 76 76">
  <path id="Path_10141" data-name="Path 10141" d="M55.474,25.18V14.386A4.36,4.36,0,0,0,51.1,10.044H14.375A4.36,4.36,0,0,0,10,14.386V78.71a4.36,4.36,0,0,0,4.377,4.342H51.1a4.36,4.36,0,0,0,4.377-4.342V25.18Z" transform="translate(-8.502 -8.548)" fill="#70ddd6"/>
  <rect id="Rectangle_955" data-name="Rectangle 955" width="45.316" height="52.957" transform="translate(1.656 11.07)" fill="#edf2fa"/>
  <path id="Path_10142" data-name="Path 10142" d="M367.937,195.823a5.246,5.246,0,1,0-5.246-9.087Z" transform="translate(-308.903 -158.452)" fill="#ff5d5d"/>
  <path id="Path_10143" data-name="Path 10143" d="M150.4,279.39l-7.441,4.3a7.1,7.1,0,0,1-9.693-2.6h0a7.1,7.1,0,0,1,2.6-9.693l7.441-4.3Z" transform="translate(-112.724 -227.544)" fill="#f9556d"/>
  <path id="Path_10144" data-name="Path 10144" d="M223.136,349.268l5.028,8.709-5.289,3.053-5.03-8.712Z" transform="translate(-185.549 -297.494)" fill="#6a80ff"/>
  <path id="Path_10145" data-name="Path 10145" d="M212.869,153.747l-7.1-12.294,17.311-22.107,17.58,30.45Z" transform="translate(-175.589 -101.747)" fill="#fff"/>
  <path id="Path_10146" data-name="Path 10146" d="M306.67,150.81,313.8,149.8l-17.58-30.45-4.443,5.674Z" transform="translate(-248.729 -101.73)" fill="#70ddd6"/>
  <path id="Path_10147" data-name="Path 10147" d="M117.475,35.033h10.771a1.5,1.5,0,0,0,0-2.992H117.475a1.5,1.5,0,1,0,0,2.992Z" transform="translate(-98.793 -27.254)"/>
  <path id="Path_10148" data-name="Path 10148" d="M153.468,453.723a1.5,1.5,0,1,0,1.057.438A1.508,1.508,0,0,0,153.468,453.723Z" transform="translate(-129.421 -386.435)"/>
  <path id="Path_10149" data-name="Path 10149" d="M60.917,37.771a6.707,6.707,0,0,0,1.246-8.251,6.679,6.679,0,0,0-7.76-3.047l-5.453-9.457a1.481,1.481,0,0,0-2.451-.173L29.52,38.552l-7.125,4.119a8.53,8.53,0,0,0,4.271,15.912,8.455,8.455,0,0,0,4.243-1.146l.849-.491,2.96,5.133H2.965V12.515h42.1v.445a1.482,1.482,0,1,0,2.965,0V5.874A5.831,5.831,0,0,0,42.211.046H5.82A5.831,5.831,0,0,0,0,5.874V70.218a5.831,5.831,0,0,0,5.82,5.828H42.211a5.831,5.831,0,0,0,5.82-5.828V51.9L65.3,49.442a1.485,1.485,0,0,0,1.075-2.212Zm-3.579-8.5A3.693,3.693,0,0,1,59.6,31a3.731,3.731,0,0,1-.231,4.073l-3.408-5.911A3.706,3.706,0,0,1,57.338,29.27ZM38.327,50.282,32.294,39.82,43.076,26.033,55.638,47.818Zm-8.9,4.585a5.545,5.545,0,0,1-7.581-2.034,5.567,5.567,0,0,1,2.031-7.591l6.09-3.521,5.549,9.625ZM37,53.918l3.5,6.074-2.673,1.546-3.5-6.074ZM5.82,3.015H42.211a2.86,2.86,0,0,1,2.855,2.859V9.546H2.965V5.874A2.86,2.86,0,0,1,5.82,3.015ZM42.211,73.077H5.82a2.86,2.86,0,0,1-2.855-2.859V65.049h42.1v5.169A2.861,2.861,0,0,1,42.211,73.077Zm2.855-11H42.817l.45-.26a1.485,1.485,0,0,0,.543-2.028l-3.886-6.739,5.142-.732ZM58.8,47.368,45.047,23.513l2.432-3.11L62.706,46.812Z" transform="translate(0 -0.046)"/>
  <path id="Path_10150" data-name="Path 10150" d="M453.1,141.888a1.5,1.5,0,0,0-2.044-.547l-7.335,4.235a1.5,1.5,0,1,0,1.5,2.591l7.335-4.235A1.5,1.5,0,0,0,453.1,141.888Z" transform="translate(-377.303 -120.209)"/>
  <path id="Path_10151" data-name="Path 10151" d="M401.538,108.831a1.494,1.494,0,0,0,1.832-1.058l1.069-3.991a1.5,1.5,0,1,0-2.89-.774L400.48,107A1.5,1.5,0,0,0,401.538,108.831Z" transform="translate(-341.017 -86.789)"/>
  <path id="Path_10152" data-name="Path 10152" d="M462.377,226.463l-4.124-1.105a1.5,1.5,0,0,0-.774,2.89l4.124,1.105a1.5,1.5,0,0,0,.774-2.89Z" transform="translate(-388.693 -191.878)"/>
  <path id="Path_10153" data-name="Path 10153" d="M65.3,114.69a1.5,1.5,0,0,0-1.5-1.5H43.167a1.5,1.5,0,0,0,0,2.992H63.809A1.5,1.5,0,0,0,65.3,114.69Z" transform="translate(-35.436 -96.401)"/>
  <path id="Path_10154" data-name="Path 10154" d="M181.133,164.179a1.5,1.5,0,1,0-1.058-.438A1.508,1.508,0,0,0,181.133,164.179Z" transform="translate(-152.981 -137.271)"/>
  <path id="Path_10155" data-name="Path 10155" d="M59.121,162.681a1.5,1.5,0,0,0-1.5-1.5H43.167a1.5,1.5,0,1,0,0,2.992H57.626A1.5,1.5,0,0,0,59.121,162.681Z" transform="translate(-35.436 -137.269)"/>
  <path id="Path_10156" data-name="Path 10156" d="M81.572,212.168H92.914a1.5,1.5,0,0,0,0-2.992H81.572a1.5,1.5,0,1,0,0,2.992Z" transform="translate(-68.211 -178.137)"/>
  <path id="Path_10157" data-name="Path 10157" d="M43.084,209.176a1.5,1.5,0,1,0,0,2.992h.069a1.5,1.5,0,1,0,0-2.992Z" transform="translate(-35.366 -178.137)"/>
</svg>
