<svg id="business_consultancy_" data-name="business_consultancy " xmlns="http://www.w3.org/2000/svg" width="93.69" height="93.69" viewBox="0 0 93.69 93.69">
  <circle id="Ellipse_23" data-name="Ellipse 23" cx="46.845" cy="46.845" r="46.845" transform="translate(0 0)" fill="#32e2a9"/>
  <circle id="Ellipse_24" data-name="Ellipse 24" cx="10.573" cy="10.573" r="10.573" transform="translate(38.622 33.922)" fill="#fff"/>
  <path id="Path_149" data-name="Path 149" d="M211.722,198.95a12.042,12.042,0,1,1,12.042-12.042A12.1,12.1,0,0,1,211.722,198.95Zm0-21.293a9.1,9.1,0,1,0,9.1,9.1A9.15,9.15,0,0,0,211.722,177.657Z" transform="translate(-162.527 -142.266)" fill="#183651"/>
  <path id="Path_150" data-name="Path 150" d="M172.631,296.172a21,21,0,0,0-21,21h42A21,21,0,0,0,172.631,296.172Z" transform="translate(-123.436 -240.956)" fill="#fbbd5e"/>
  <g id="Group_195" data-name="Group 195" transform="translate(6.608 6.315)">
    <path id="Path_151" data-name="Path 151" d="M187.222,311.445h-42a1.387,1.387,0,0,1-1.469-1.469,22.468,22.468,0,0,1,44.936,0A1.472,1.472,0,0,1,187.222,311.445Zm-40.531-2.937h38.915a19.523,19.523,0,0,0-19.384-18.063A19.882,19.882,0,0,0,146.691,308.508Z" transform="translate(-123.636 -240.222)" fill="#183651"/>
    <rect id="Rectangle_137" data-name="Rectangle 137" width="2.937" height="2.937" transform="translate(26.874)" fill="#183651"/>
    <rect id="Rectangle_138" data-name="Rectangle 138" width="2.937" height="2.937" transform="translate(38.768)" fill="#183651"/>
    <rect id="Rectangle_139" data-name="Rectangle 139" width="2.937" height="2.937" transform="translate(50.516)" fill="#183651"/>
    <rect id="Rectangle_140" data-name="Rectangle 140" width="2.937" height="2.937" transform="translate(26.874 77.39)" fill="#183651"/>
    <rect id="Rectangle_141" data-name="Rectangle 141" width="2.937" height="2.937" transform="translate(38.768 77.39)" fill="#183651"/>
    <rect id="Rectangle_142" data-name="Rectangle 142" width="2.937" height="2.937" transform="translate(50.516 77.39)" fill="#183651"/>
    <rect id="Rectangle_143" data-name="Rectangle 143" width="2.937" height="2.937" transform="translate(77.39 26.873)" fill="#183651"/>
    <rect id="Rectangle_144" data-name="Rectangle 144" width="2.937" height="2.937" transform="translate(77.39 38.768)" fill="#183651"/>
    <rect id="Rectangle_145" data-name="Rectangle 145" width="2.937" height="2.937" transform="translate(77.39 50.663)" fill="#183651"/>
    <rect id="Rectangle_146" data-name="Rectangle 146" width="2.937" height="2.937" transform="translate(0 26.873)" fill="#183651"/>
    <rect id="Rectangle_147" data-name="Rectangle 147" width="2.937" height="2.937" transform="translate(0 38.768)" fill="#183651"/>
    <rect id="Rectangle_148" data-name="Rectangle 148" width="2.937" height="2.937" transform="translate(0 50.663)" fill="#183651"/>
  </g>
  <circle id="Ellipse_25" data-name="Ellipse 25" cx="6.315" cy="6.315" r="6.315" transform="translate(7.636 1.469)" fill="#fff"/>
  <path id="Path_155" data-name="Path 155" d="M41.26,15.566a7.835,7.835,0,0,1-7.783-7.783,7.783,7.783,0,0,1,15.566,0A7.74,7.74,0,0,1,41.26,15.566Zm0-12.629a4.889,4.889,0,0,0-4.846,4.846,4.846,4.846,0,0,0,9.692,0A4.8,4.8,0,0,0,41.26,2.937Z" transform="translate(-27.309 0)" fill="#183651"/>
  <path id="Path_156" data-name="Path 156" d="M20.753,75.618A12.472,12.472,0,0,0,8.271,88.1H33.236A12.379,12.379,0,0,0,20.753,75.618Z" transform="translate(-6.802 -61.52)" fill="#2ea0da"/>
  <path id="Path_157" data-name="Path 157" d="M27.614,83.16H2.65a1.387,1.387,0,0,1-1.469-1.468A14.04,14.04,0,0,1,15.132,67.741,14.04,14.04,0,0,1,29.083,81.692,1.472,1.472,0,0,1,27.614,83.16Zm-23.5-2.937H26a10.981,10.981,0,0,0-11.014-9.545A10.835,10.835,0,0,0,4.118,80.223Z" transform="translate(-1.034 -55.112)" fill="#183651"/>
  <circle id="Ellipse_27" data-name="Ellipse 27" cx="6.315" cy="6.315" r="6.315" transform="translate(73.425 1.469)" fill="#fff"/>
  <path id="Path_161" data-name="Path 161" d="M394.146,15.566a7.835,7.835,0,0,1-7.783-7.783,7.783,7.783,0,0,1,15.566,0A7.74,7.74,0,0,1,394.146,15.566Zm0-12.629A4.889,4.889,0,0,0,389.3,7.783a4.846,4.846,0,1,0,9.692,0A4.8,4.8,0,0,0,394.146,2.937Z" transform="translate(-314.407 0)" fill="#183651"/>
  <path id="Path_162" data-name="Path 162" d="M373.639,75.618A12.472,12.472,0,0,0,361.157,88.1h24.965A12.379,12.379,0,0,0,373.639,75.618Z" transform="translate(-293.9 -61.52)" fill="#f06151"/>
</svg>
