<svg xmlns="http://www.w3.org/2000/svg" width="79" height="79" viewBox="0 0 79 79">
  <g id="cleandesign" transform="translate(-744 -1223)">
    <path id="Path_4318" data-name="Path 4318" d="M39.5,0A39.5,39.5,0,1,1,0,39.5,39.5,39.5,0,0,1,39.5,0Z" transform="translate(744 1223)" fill="#9df5d9" opacity="0.45"/>
    <g id="Group_1761" data-name="Group 1761" transform="translate(-112 -169.113)">
      <path id="Path_4326" data-name="Path 4326" d="M14.013,10.262H58.675a4.06,4.06,0,0,1,4.06,4.06V58.984a4.06,4.06,0,0,1-4.06,4.06H14.013a4.06,4.06,0,0,1-4.06-4.06V14.322A4.06,4.06,0,0,1,14.013,10.262Zm0,0" transform="translate(863.096 1390.851)" fill="#345a99"/>
      <g id="Group_1759" data-name="Group 1759" transform="translate(-48.878 171.943)">
        <path id="Path_4339" data-name="Path 4339" d="M258.742,318.762h11.7v1.672h-11.7Zm0,0" transform="translate(688.737 941.802)" fill="#fff"/>
        <path id="Path_4340" data-name="Path 4340" d="M358.258,278.953h8.359v1.672h-8.359Zm0,0" transform="translate(597.58 978.267)" fill="#fff"/>
        <path id="Path_4342" data-name="Path 4342" d="M169.176,398.375h14.211v1.672H169.176Zm0,0" transform="translate(770.779 868.877)" fill="#fff"/>
        <path id="Path_4344" data-name="Path 4344" d="M258.742,438.18h11.7v1.672h-11.7Zm0,0" transform="translate(688.737 832.415)" fill="#fff"/>
        <path id="Path_4354" data-name="Path 4354" d="M39.8,40.117h1.672v1.672H39.8Zm0,0" transform="translate(889.284 1197.041)" fill="#fff"/>
        <path id="Path_4355" data-name="Path 4355" d="M79.613,40.117h1.672v1.672H79.613Zm0,0" transform="translate(852.819 1197.041)" fill="#fff"/>
        <path id="Path_4356" data-name="Path 4356" d="M119.418,40.117h1.672v1.672h-1.672Zm0,0" transform="translate(816.358 1197.041)" fill="#fff"/>
        <path id="Path_4357" data-name="Path 4357" d="M39.8,79.922H78.258v1.672H39.8Zm0,0" transform="translate(889.284 1160.579)" fill="#fff"/>
        <path id="Path_4358" data-name="Path 4358" d="M48.129,122.645l-2.123,2.123a4.192,4.192,0,1,0,1.182,1.182l2.123-2.123ZM43.7,130.76a2.508,2.508,0,1,1,0-5.016,2.468,2.468,0,0,1,1.074.251l-1.665,1.665,1.182,1.182,1.666-1.665a2.465,2.465,0,0,1,.251,1.074A2.508,2.508,0,0,1,43.7,130.76Zm0,0" transform="translate(889.563 1121.445)" fill="#fff"/>
        <path id="Path_4359" data-name="Path 4359" d="M169.176,159.535h14.211v1.672H169.176Zm0,0" transform="translate(770.779 1087.654)" fill="#fff"/>
        <path id="Path_4360" data-name="Path 4360" d="M169.176,199.34h5.852v1.672h-5.852Zm0,0" transform="translate(770.779 1051.193)" fill="#fff"/>
        <path id="Path_4361" data-name="Path 4361" d="M258.742,199.34h11.7v1.672h-11.7Zm0,0" transform="translate(688.737 1051.193)" fill="#fff"/>
        <path id="Path_4362" data-name="Path 4362" d="M358.258,159.535h8.359v1.672h-8.359Zm0,0" transform="translate(597.58 1087.654)" fill="#fff"/>
        <path id="Path_4363" data-name="Path 4363" d="M48.129,242.063l-2.123,2.123a4.192,4.192,0,1,0,1.182,1.182l2.123-2.123ZM43.7,250.178a2.508,2.508,0,1,1,0-5.016,2.465,2.465,0,0,1,1.074.251l-1.665,1.665L44.3,248.26l1.666-1.664a2.465,2.465,0,0,1,.251,1.074A2.508,2.508,0,0,1,43.7,250.178Zm0,0" transform="translate(889.563 1012.058)" fill="#fff"/>
        <path id="Path_4364" data-name="Path 4364" d="M169.176,278.953h14.211v1.672H169.176Zm0,0" transform="translate(770.779 978.267)" fill="#fff"/>
        <path id="Path_4365" data-name="Path 4365" d="M169.176,318.762h5.852v1.672h-5.852Zm0,0" transform="translate(770.779 941.802)" fill="#fff"/>
        <path id="Path_4366" data-name="Path 4366" d="M258.742,318.762h6.688v1.672h-6.688Zm0,0" transform="translate(688.737 941.802)" fill="#fff"/>
        <path id="Path_4367" data-name="Path 4367" d="M358.258,278.953H361.6v1.672h-3.344Zm0,0" transform="translate(597.58 978.267)" fill="#fff"/>
        <path id="Path_4368" data-name="Path 4368" d="M48.129,361.484l-2.123,2.123a4.192,4.192,0,1,0,1.182,1.182l2.123-2.123ZM43.7,369.6a2.508,2.508,0,1,1,0-5.016,2.47,2.47,0,0,1,1.074.251L43.114,366.5l1.182,1.182,1.666-1.664a2.465,2.465,0,0,1,.251,1.074A2.508,2.508,0,0,1,43.7,369.6Zm0,0" transform="translate(889.563 902.669)" fill="#fff"/>
        <path id="Path_4369" data-name="Path 4369" d="M169.176,398.375h10.867v1.672H169.176Zm0,0" transform="translate(770.779 868.877)" fill="#fff"/>
        <path id="Path_4370" data-name="Path 4370" d="M169.176,438.18h5.852v1.672h-5.852Zm0,0" transform="translate(770.779 832.415)" fill="#fff"/>
        <path id="Path_4371" data-name="Path 4371" d="M258.742,438.18h3.344v1.672h-3.344Zm0,0" transform="translate(688.737 832.415)" fill="#fff"/>
      </g>
      <g id="Group_1760" data-name="Group 1760" transform="translate(-53 167)">
        <path id="Path_4350" data-name="Path 4350" d="M356.823,323.02a14.211,14.211,0,1,1-14.21-14.211A14.21,14.21,0,0,1,356.823,323.02Zm0,0" transform="translate(630.128 955.755)" fill="#f9556d"/>
        <path id="Path_4372" data-name="Path 4372" d="M333.679,329.31a15.226,15.226,0,1,0-15.226-15.225A15.226,15.226,0,0,0,333.679,329.31Zm0-28.421a13.2,13.2,0,1,1-13.2,13.2A13.2,13.2,0,0,1,333.679,300.889Zm0,0" transform="translate(639.062 964.69)" fill="#fff"/>
      </g>
      <path id="Path_4373" data-name="Path 4373" d="M391.024,379.819l-1.817.907,2.03,4.06a1.014,1.014,0,0,0,.746.548.987.987,0,0,0,.157.013,1.012,1.012,0,0,0,.718-.3l12.181-12.181-1.436-1.435-11.185,11.185Zm0,0" transform="translate(522.525 1066.517)" fill="#fff"/>
    </g>
  </g>
</svg>
