<svg id="icon_emailmarketing" xmlns="http://www.w3.org/2000/svg" width="76" height="76" viewBox="0 0 76 76">
  <path id="Path_10176" data-name="Path 10176" d="M19.792,163,10,170.97v36.842a6.124,6.124,0,0,0,6.083,6.165H76.91a6.124,6.124,0,0,0,6.083-6.165V170.97L73.2,163.241" transform="translate(-8.496 -139.481)" fill="#ffb954"/>
  <rect id="Rectangle_958" data-name="Rectangle 958" width="51.94" height="57.303" transform="translate(12.03 1.504)" fill="#edf2fa"/>
  <path id="Path_10177" data-name="Path 10177" d="M56.436,243.006H35.744L10,216v36.842a6.124,6.124,0,0,0,6.083,6.165H76.91a6.124,6.124,0,0,0,6.083-6.165V216Z" transform="translate(-8.496 -184.511)" fill="#32e2a9"/>
  <path id="Path_10178" data-name="Path 10178" d="M44.055,361.115l21.463-19.806a14.572,14.572,0,0,1,19.825,0l21.463,19.806Z" transform="translate(-37.43 -287.671)" fill="#32e2a9"/>
  <g id="Group_6761" data-name="Group 6761" transform="translate(20.422 11.218)">
    <path id="Path_10179" data-name="Path 10179" d="M318.654,82.945a4.888,4.888,0,0,0-6.913-6.913Z" transform="translate(-285.771 -74.6)" fill="#ff5d5d"/>
    <path id="Path_10180" data-name="Path 10180" d="M155.986,199.493l-5.66,5.66a6.611,6.611,0,0,1-9.349,0h0a6.611,6.611,0,0,1,0-9.349l5.66-5.66Z" transform="translate(-139.04 -172.769)" fill="#ff5d5d"/>
  </g>
  <path id="Path_10181" data-name="Path 10181" d="M229,252.336l6.625,6.625-4.023,4.023-6.627-6.627Z" transform="translate(-191.649 -214.958)" fill="#6a80ff"/>
  <path id="Path_10182" data-name="Path 10182" d="M198.91,63.508l-9.351-9.352,10.248-24.069L222.97,53.25Z" transform="translate(-161.703 -25.563)" fill="#32e2a9"/>
  <path id="Path_10183" data-name="Path 10183" d="M259.837,55.883l6.175-2.632L242.848,30.087l-2.63,6.177Z" transform="translate(-204.795 -25.563)" fill="#fff"/>
  <path id="Path_10184" data-name="Path 10184" d="M188.441,56.441A1.5,1.5,0,1,0,189.5,56,1.515,1.515,0,0,0,188.441,56.441Z" transform="translate(-160.109 -47.579)"/>
  <path id="Path_10185" data-name="Path 10185" d="M112.379,59.008h6.041a1.5,1.5,0,1,0,0-3.008h-6.041a1.5,1.5,0,0,0,0,3.008Z" transform="translate(-94.446 -47.579)"/>
  <path id="Path_10186" data-name="Path 10186" d="M112.379,115.008h7.247a1.5,1.5,0,1,0,0-3.008h-7.247a1.5,1.5,0,0,0,0,3.008Z" transform="translate(-94.45 -95.384)"/>
  <path id="Path_10187" data-name="Path 10187" d="M75.427,30.893h0l-9.8-7.629-.021-.015V21.672a1.484,1.484,0,1,0-2.969,0V41.81c0,.009,0,.018,0,.027L50.36,54.119l-1.422-1.292A16.23,16.23,0,0,0,41.1,48.9l3.854-3.854a1.485,1.485,0,0,0,0-2.1L39.971,37.96,61.7,28.7a1.484,1.484,0,0,0,.467-2.415l-7.1-7.1A6.311,6.311,0,0,0,46.4,10.511l-7.1-7.1a1.484,1.484,0,0,0-2.415.468l-10,23.494L21.5,32.762A8.01,8.01,0,1,0,32.828,44.09l.566-.566,5.085,5.085c-.159,0-.319-.008-.479-.008a16.233,16.233,0,0,0-10.937,4.226L25.64,54.119,13.358,41.836c0-.009,0-.018,0-.027V2.969H29.982a1.484,1.484,0,1,0,0-2.969H11.875a1.484,1.484,0,0,0-1.484,1.484V23.01c-.013.01-.026.018-.039.028l-9.8,7.867h0A1.481,1.481,0,0,0,0,32.062V68.43A7.579,7.579,0,0,0,7.57,76H68.43A7.579,7.579,0,0,0,76,68.43V32.062A1.48,1.48,0,0,0,75.427,30.893ZM36.162,13.167,52.42,29.425,37.709,35.7,29.9,27.884Zm13.524-.609a3.336,3.336,0,0,1,3.164,4.406l-4.23-4.23A3.341,3.341,0,0,1,49.686,12.558ZM38.758,7.07l6.464,6.464,0,0,0,0,6.821,6.821h0l6.467,6.467L55.364,28.17,37.416,10.222Zm-11.594,36.4A5.041,5.041,0,0,1,23.6,34.862l4.538-4.538,7.129,7.13-4.538,4.537A5.008,5.008,0,0,1,27.165,43.468Zm10.2-3.915L41.809,44l-1.872,1.872-4.443-4.443ZM65.609,27.008,72.278,32.2l-6.668,6.668ZM29.059,55.025a13.246,13.246,0,0,1,17.882,0L66.763,73.031H9.237l4.9-4.453h10.9a1.484,1.484,0,0,0,0-2.969H17.407ZM10.391,26.814V38.87L3.7,32.183ZM2.969,68.43V35.646L23.441,56.118l-17.9,16.26a1.514,1.514,0,0,0-.117.12A4.605,4.605,0,0,1,2.969,68.43ZM70.576,72.5a1.489,1.489,0,0,0-.117-.12l-17.9-16.26L73.031,35.646V68.43A4.605,4.605,0,0,1,70.576,72.5Z" transform="translate(0 0)"/>
  <path id="Path_10188" data-name="Path 10188" d="M383.5,9.478a1.5,1.5,0,0,0,1.063-.44l6.075-6.075A1.5,1.5,0,0,0,388.515.836l-6.075,6.075A1.5,1.5,0,0,0,383.5,9.478Z" transform="translate(-325.549 -0.336)"/>
  <path id="Path_10189" data-name="Path 10189" d="M345.916,6.028a1.5,1.5,0,0,0,1.5-1.5V1.5a1.5,1.5,0,0,0-3.008,0V4.524A1.5,1.5,0,0,0,345.916,6.028Z" transform="translate(-293.316 0)"/>
  <path id="Path_10190" data-name="Path 10190" d="M406.554,77.521h-3.122a1.5,1.5,0,1,0,0,3.008h3.122a1.5,1.5,0,1,0,0-3.008Z" transform="translate(-342.481 -65.864)"/>
  <path id="Path_10191" data-name="Path 10191" d="M201.164,445.008a1.5,1.5,0,1,0-1.065-.441A1.517,1.517,0,0,0,201.164,445.008Z" transform="translate(-170.039 -376.526)"/>
</svg>
