<svg id="uiuxdesign" xmlns="http://www.w3.org/2000/svg" width="93.984" height="93.984" viewBox="0 0 93.984 93.984">
  <circle id="Ellipse_34" data-name="Ellipse 34" cx="46.992" cy="46.992" r="46.992" transform="translate(0 0)" fill="#32e2a9"/>
  <path id="Path_176" data-name="Path 176" d="M131.18,79.557H72.147a4.327,4.327,0,0,0-4.406,4.406v68.873a4.327,4.327,0,0,0,4.406,4.406h58.887a4.327,4.327,0,0,0,4.406-4.406V83.963A4.3,4.3,0,0,0,131.18,79.557Z" transform="translate(-55.112 -64.725)" fill="#9df5d9"/>
  <path id="Path_177" data-name="Path 177" d="M124.772,152.153H65.738a5.891,5.891,0,0,1-5.874-5.874V77.553a5.891,5.891,0,0,1,5.874-5.874h58.887a5.891,5.891,0,0,1,5.874,5.874v68.872A5.643,5.643,0,0,1,124.772,152.153ZM65.738,74.616A2.946,2.946,0,0,0,62.8,77.553v68.873a2.946,2.946,0,0,0,2.937,2.937h58.887a2.946,2.946,0,0,0,2.937-2.937V77.553a2.946,2.946,0,0,0-2.937-2.937Z" transform="translate(-48.704 -58.316)" fill="#183651"/>
  <g id="Group_200" data-name="Group 200" transform="translate(18.503 1.615)">
    <rect id="Rectangle_162" data-name="Rectangle 162" width="55.95" height="65.935" transform="translate(0 19.09)" fill="#fff"/>
    <path id="Path_178" data-name="Path 178" d="M171.956,15.273h-7.93a6.608,6.608,0,1,0-13.216,0h-7.93a6.581,6.581,0,0,0-6.608,6.608h0a6.581,6.581,0,0,0,6.608,6.608h28.929a6.581,6.581,0,0,0,6.608-6.608h0A6.458,6.458,0,0,0,171.956,15.273Z" transform="translate(-129.37 -8.665)" fill="#fff"/>
  </g>
  <path id="Path_179" data-name="Path 179" d="M165.547,23.55H136.471a8.077,8.077,0,0,1,0-16.153h6.608a8.062,8.062,0,0,1,15.86,0h6.608a8.077,8.077,0,0,1,0,16.153ZM136.471,10.333a5.14,5.14,0,1,0,0,10.279H165.4a5.14,5.14,0,1,0,0-10.279h-7.93A1.387,1.387,0,0,1,156,8.865a5.14,5.14,0,1,0-10.279,0,1.387,1.387,0,0,1-1.469,1.469Z" transform="translate(-104.457 -0.641)" fill="#183651"/>
  <circle id="Ellipse_35" data-name="Ellipse 35" cx="1.469" cy="1.469" r="1.469" transform="translate(45.083 6.608)" fill="#173651"/>
  <path id="Path_180" data-name="Path 180" d="M200.807,74.617H175.548a1.469,1.469,0,0,1,0-2.937h25.258a1.469,1.469,0,1,1,0,2.937Z" transform="translate(-141.626 -58.317)" fill="#e1e6e7"/>
  <path id="Path_181" data-name="Path 181" d="M137.658,372.991a6.9,6.9,0,1,1,6.9-6.9A6.894,6.894,0,0,1,137.658,372.991Z" transform="translate(-106.379 -292.224)" fill="#4fbf9f"/>
  <path id="Path_182" data-name="Path 182" d="M147.379,384.207l-3.231-3.231,1.322-1.469,1.909,2.056,4.406-4.259,1.322,1.322Z" transform="translate(-117.274 -306.964)" fill="#fff"/>
  <path id="Path_183" data-name="Path 183" d="M137.658,271.378a6.9,6.9,0,1,1,6.9-6.9A6.8,6.8,0,0,1,137.658,271.378Z" transform="translate(-106.379 -209.554)" fill="#4fbf9f"/>
  <path id="Path_184" data-name="Path 184" d="M147.379,282.594l-3.231-3.231,1.322-1.322,1.909,1.909,4.406-4.259,1.322,1.322Z" transform="translate(-117.274 -224.295)" fill="#fff"/>
  <path id="Path_185" data-name="Path 185" d="M137.658,169.766a6.9,6.9,0,1,1,6.9-6.9A6.8,6.8,0,0,1,137.658,169.766Z" transform="translate(-106.379 -126.886)" fill="#4fbf9f"/>
  <path id="Path_186" data-name="Path 186" d="M147.379,181.129l-3.231-3.378,1.322-1.322,1.909,1.909,4.406-4.259,1.322,1.322Z" transform="translate(-117.274 -141.626)" fill="#fff"/>
  <g id="Group_201" data-name="Group 201" transform="translate(45.964 30.251)">
    <rect id="Rectangle_163" data-name="Rectangle 163" width="2.937" height="2.937" transform="translate(1.615 7.049)" fill="#183651"/>
    <rect id="Rectangle_164" data-name="Rectangle 164" width="2.937" height="2.937" transform="translate(8.811 7.049)" fill="#183651"/>
    <rect id="Rectangle_165" data-name="Rectangle 165" width="2.937" height="2.937" transform="translate(16.153 7.049)" fill="#183651"/>
    <rect id="Rectangle_166" data-name="Rectangle 166" width="20.706" height="2.937" fill="#183651"/>
    <rect id="Rectangle_167" data-name="Rectangle 167" width="2.937" height="2.937" transform="translate(1.615 25.845)" fill="#183651"/>
    <rect id="Rectangle_168" data-name="Rectangle 168" width="2.937" height="2.937" transform="translate(8.811 25.845)" fill="#183651"/>
    <rect id="Rectangle_169" data-name="Rectangle 169" width="2.937" height="2.937" transform="translate(16.153 25.845)" fill="#183651"/>
    <rect id="Rectangle_170" data-name="Rectangle 170" width="20.706" height="2.937" transform="translate(0 18.944)" fill="#183651"/>
    <rect id="Rectangle_171" data-name="Rectangle 171" width="2.937" height="2.937" transform="translate(1.615 44.789)" fill="#183651"/>
    <rect id="Rectangle_172" data-name="Rectangle 172" width="2.937" height="2.937" transform="translate(8.811 44.789)" fill="#183651"/>
    <rect id="Rectangle_173" data-name="Rectangle 173" width="2.937" height="2.937" transform="translate(16.153 44.789)" fill="#183651"/>
    <rect id="Rectangle_174" data-name="Rectangle 174" width="20.706" height="2.937" transform="translate(0 37.887)" fill="#183651"/>
  </g>
</svg>
