<svg xmlns="http://www.w3.org/2000/svg" xmlns:xlink="http://www.w3.org/1999/xlink" width="30" height="30" viewBox="0 0 30 30">
  <defs>
    <linearGradient id="linear-gradient" x1="0.5" x2="0.5" y2="1" gradientUnits="objectBoundingBox">
      <stop offset="0" stop-color="#2af598"/>
      <stop offset="1" stop-color="#009efd"/>
    </linearGradient>
  </defs>
  <path id="icon_searchsupport" d="M11.715,21.086H15.7v2.343H11.715Zm-4.393-.293a1.464,1.464,0,1,0,1.464,1.464A1.464,1.464,0,0,0,7.322,20.794Zm16.226-7.147H11.715V15.99H23.548ZM7.322,13.354a1.464,1.464,0,1,0,1.464,1.464A1.464,1.464,0,0,0,7.322,13.354ZM23.548,6.618H11.715V8.961H23.548ZM7.322,6.325A1.465,1.465,0,1,0,8.786,7.789,1.464,1.464,0,0,0,7.322,6.325ZM2.343,26.476V3.513A1.173,1.173,0,0,1,3.514,2.341H26.477a1.173,1.173,0,0,1,1.171,1.172V16.752h2.343V3.513A3.519,3.519,0,0,0,26.477,0H3.514A3.519,3.519,0,0,0,0,3.513V26.476A3.519,3.519,0,0,0,3.514,29.99H17.046V27.647H3.514a1.173,1.173,0,0,1-1.172-1.171Zm26,3.523L26.01,27.665a5.278,5.278,0,1,1,1.7-1.617L30,28.342Zm-5.029-3.933a2.929,2.929,0,1,0-2.929-2.929A2.932,2.932,0,0,0,23.314,26.065Zm0,0" transform="translate(0 0.001)" fill="url(#linear-gradient)"/>
</svg>
