<svg xmlns="http://www.w3.org/2000/svg" xmlns:xlink="http://www.w3.org/1999/xlink" width="30" height="28.594" viewBox="0 0 30 28.594">
  <defs>
    <linearGradient id="linear-gradient" x1="0.5" x2="0.5" y2="1" gradientUnits="objectBoundingBox">
      <stop offset="0" stop-color="#2af598"/>
      <stop offset="1" stop-color="#009efd"/>
    </linearGradient>
  </defs>
  <path id="icon_settings" d="M9.141,10.781a3.521,3.521,0,0,0-3.314,2.344H0v2.344H5.827a3.515,3.515,0,0,0,6.628,0H30V13.125H12.455A3.521,3.521,0,0,0,9.141,10.781Zm0,4.687A1.172,1.172,0,1,1,10.312,14.3,1.173,1.173,0,0,1,9.141,15.469ZM24.876,2.344a3.515,3.515,0,0,0-6.628,0H0V4.687H18.249a3.515,3.515,0,0,0,6.628,0H30V2.344ZM21.563,4.687a1.172,1.172,0,1,1,1.172-1.172A1.173,1.173,0,0,1,21.563,4.687ZM19.336,21.562a3.521,3.521,0,0,0-3.314,2.344H0V26.25H16.022a3.515,3.515,0,0,0,6.628,0H30V23.906H22.65A3.521,3.521,0,0,0,19.336,21.562Zm0,4.687a1.172,1.172,0,1,1,1.172-1.172A1.173,1.173,0,0,1,19.336,26.25Zm0,0" fill="url(#linear-gradient)"/>
</svg>
