<?xml version="1.0" encoding="iso-8859-1"?>
<!-- Generator: Adobe Illustrator 19.0.0, SVG Export Plug-In . SVG Version: 6.00 Build 0)  -->
<svg version="1.1" id="Capa_1" xmlns="http://www.w3.org/2000/svg" xmlns:xlink="http://www.w3.org/1999/xlink" x="0px" y="0px"
	 viewBox="0 0 512 512" style="enable-background:new 0 0 512 512;" xml:space="preserve">
<circle style="fill:#F1592F;" cx="256" cy="256" r="256"/>
<path style="fill:#E8E7E8;" d="M465.288,456.12l-0.036,7.568c-0.292,5.568-4.912,10.368-11.024,10.368H57.772
	c-6.112,0-10.732-4.804-11.024-10.368l-0.036-7.568h1.784l26.852-77.356c1.528-4.44,5.712-7.388,10.404-7.388h340.492
	c4.692,0,8.876,2.948,10.404,7.388L463.5,456.12H465.288z"/>
<path style="fill:#FDFEFF;" d="M464.656,452.884l-28.004-80.648c-1.54-4.436-5.72-7.408-10.416-7.408H85.764
	c-4.696,0-8.876,2.972-10.416,7.408l-28.004,80.648c-2.488,7.164,2.832,14.644,10.416,14.644h396.476
	C461.824,467.528,467.144,460.048,464.656,452.884z"/>
<path style="fill:#656D7A;" d="M423.052,123.96H88.58c-6.088,0-11.028,4.936-11.028,11.028V353.8
	c0,6.088,4.936,11.028,11.028,11.028h334.472c6.088,0,11.028-4.936,11.028-11.028V134.984
	C434.08,128.896,429.14,123.96,423.052,123.96z"/>
<rect x="96.84" y="162.804" style="fill:#70B1E1;" width="317.92" height="182.728"/>
<rect x="96.84" y="143.256" style="fill:#D2D2D4;" width="317.92" height="19.544"/>
<g>
	<rect x="151.82" y="147.844" style="fill:#FDFEFF;" width="207.392" height="10.368"/>
	<rect x="367.6" y="147.844" style="fill:#FDFEFF;" width="13.652" height="10.368"/>
	<rect x="389.76" y="147.844" style="fill:#FDFEFF;" width="13.652" height="10.368"/>
</g>
<g>
	<polygon style="fill:#D2D2D4;" points="434.08,422.72 75.324,422.72 88.052,378.784 421.348,378.784 	"/>
	<polygon style="fill:#D2D2D4;" points="304.544,453.304 207.456,453.304 211.736,431.536 300.264,431.536 	"/>
</g>
<g>
	<path style="fill:#FDFEFF;" d="M405.36,288.44l-1.456-9.28h-15.972l-1.456,9.28c-4.764,1.092-9.168,2.948-13.172,5.496
		l-7.604-5.568l-11.316,11.316l5.568,7.568c-2.548,4.004-4.404,8.44-5.496,13.172l-9.24,1.456v16.008l9.24,1.456
		c0.472,2.112,1.128,4.184,1.928,6.184h18.048c-3.236-4.404-5.132-9.788-5.132-15.644c0-14.7,11.9-26.596,26.596-26.596
		c7.388,0,14.08,3.02,18.884,7.86v-19.32C411.836,290.332,408.672,289.204,405.36,288.44z"/>
	<path style="fill:#FDFEFF;" d="M386.448,258.136V245.3l-7.456-1.168c-0.86-3.808-2.348-7.356-4.376-10.564l4.44-6.092l-9.072-9.076
		l-6.092,4.44c-3.192-2.024-6.756-3.516-10.564-4.376l-1.168-7.44h-12.836l-1.168,7.44c-3.808,0.86-7.356,2.348-10.564,4.392
		L321.5,218.4l-9.076,9.076l4.456,6.092c-2.04,3.208-3.532,6.756-4.392,10.564l-7.44,1.168v12.836l7.44,1.168
		c0.844,3.808,2.348,7.372,4.376,10.564l-4.44,6.092l9.076,9.076l6.092-4.44c3.208,2.024,6.756,3.532,10.564,4.376l1.168,7.456
		h12.836l1.168-7.456c3.808-0.844,7.372-2.348,10.58-4.376l6.076,4.44l9.076-9.076l-4.44-6.092
		c2.024-3.192,3.532-6.756,4.376-10.564L386.448,258.136z M345.74,273.076c-11.796,0-21.36-9.56-21.36-21.36
		c0-11.796,9.56-21.356,21.36-21.356c11.796,0,21.356,9.56,21.356,21.356C367.1,263.516,357.54,273.076,345.74,273.076z"/>
</g>
<circle style="fill:#F1592F;" cx="107.164" cy="153.04" r="5.184"/>
<circle style="fill:#F5EA07;" cx="121.816" cy="153.04" r="5.184"/>
<circle style="fill:#70B1E1;" cx="136.48" cy="153.04" r="5.184"/>
<rect x="125.32" y="177.2" style="fill:#FDFEFF;" width="4.872" height="153.916"/>
<rect x="137.788" y="195.288" style="fill:#E8BB20;" width="25.752" height="4.872"/>
<rect x="144.16" y="206.576" style="fill:#FDFEFF;" width="40.712" height="4.872"/>
<rect x="217.84" y="206.576" style="fill:#4D5BA5;" width="40.712" height="4.872"/>
<rect x="190.22" y="206.576" style="fill:#F5EA07;" width="22.272" height="4.872"/>
<rect x="144.16" y="217.88" style="fill:#4D5BA5;" width="72.8" height="4.872"/>
<rect x="246.08" y="217.88" style="fill:#E8BB20;" width="30.416" height="4.872"/>
<rect x="144.16" y="229.16" style="fill:#FDFEFF;" width="26.216" height="4.872"/>
<rect x="174.964" y="229.16" style="fill:#F5EA07;" width="54.968" height="4.872"/>
<g>
	<rect x="206" y="240.44" style="fill:#E8BB20;" width="26.216" height="4.872"/>
	<rect x="137.4" y="263.016" style="fill:#E8BB20;" width="28.756" height="4.872"/>
</g>
<rect x="144.16" y="274.32" style="fill:#4D5BA5;" width="37.408" height="4.872"/>
<rect x="144.16" y="285.6" style="fill:#FDFEFF;" width="36.4" height="4.872"/>
<rect x="186.068" y="285.6" style="fill:#F5EA07;" width="60.04" height="4.872"/>
<rect x="251.864" y="285.6" style="fill:#4D5BA5;" width="10.776" height="4.872"/>
<rect x="144.16" y="296.88" style="fill:#F5EA07;" width="18.548" height="4.872"/>
<rect x="138.216" y="308.16" style="fill:#E8BB20;" width="18.548" height="4.872"/>
<rect x="166.176" y="296.88" style="fill:#4D5BA5;" width="85.012" height="4.872"/>
<g>
	<rect x="280.08" y="274.32" style="fill:#FDFEFF;" width="21.796" height="4.872"/>
	<rect x="187.312" y="274.32" style="fill:#FDFEFF;" width="87.672" height="4.872"/>
	<rect x="238.2" y="240.44" style="fill:#FDFEFF;" width="57.04" height="4.872"/>
	<rect x="144.16" y="240.44" style="fill:#FDFEFF;" width="57.04" height="4.872"/>
</g>
<rect x="144.16" y="251.728" style="fill:#F5EA07;" width="57.04" height="4.872"/>
<rect x="204.28" y="251.728" style="fill:#4D5BA5;" width="50.74" height="4.872"/>
<g>
	<rect x="222.424" y="217.88" style="fill:#FDFEFF;" width="18.62" height="4.872"/>
	<rect x="168.88" y="195.288" style="fill:#FDFEFF;" width="12.18" height="4.872"/>
	<rect x="112.4" y="183.128" style="fill:#FDFEFF;" width="5.964" height="5.964"/>
	<rect x="112.4" y="195.5" style="fill:#FDFEFF;" width="5.964" height="5.964"/>
	<rect x="112.4" y="207.876" style="fill:#FDFEFF;" width="5.964" height="5.964"/>
	<rect x="112.4" y="220.24" style="fill:#FDFEFF;" width="5.964" height="5.964"/>
	<rect x="112.4" y="232.64" style="fill:#FDFEFF;" width="5.964" height="5.964"/>
	<rect x="112.4" y="245" style="fill:#FDFEFF;" width="5.964" height="5.964"/>
	<rect x="112.4" y="257.36" style="fill:#FDFEFF;" width="5.964" height="5.964"/>
	<rect x="112.4" y="269.76" style="fill:#FDFEFF;" width="5.964" height="5.964"/>
	<rect x="112.4" y="282.12" style="fill:#FDFEFF;" width="5.964" height="5.964"/>
	<rect x="112.4" y="294.48" style="fill:#FDFEFF;" width="5.964" height="5.964"/>
	<rect x="112.4" y="306.88" style="fill:#FDFEFF;" width="5.964" height="5.964"/>
	<rect x="112.4" y="319.24" style="fill:#FDFEFF;" width="5.964" height="5.964"/>
</g>
<g>
</g>
<g>
</g>
<g>
</g>
<g>
</g>
<g>
</g>
<g>
</g>
<g>
</g>
<g>
</g>
<g>
</g>
<g>
</g>
<g>
</g>
<g>
</g>
<g>
</g>
<g>
</g>
<g>
</g>
</svg>
