<svg xmlns="http://www.w3.org/2000/svg" width="130" height="130" viewBox="0 0 130 130">
  <g id="icon_management" transform="translate(-182 -1565)">
    <circle id="Ellipse_1542" data-name="Ellipse 1542" cx="65" cy="65" r="65" transform="translate(182 1565)" fill="#fff1f3"/>
    <path id="team" d="M92,38.581H88.666L83.7,41.2a7.377,7.377,0,0,0-1.769-.727L75.676,38.9v-.711a10.42,10.42,0,0,0,4.453-8.516V27.084A10.661,10.661,0,0,0,70.061,16.327c-.282-.007-.559,0-.838.017l1.621-3.794L62.985,4.694,58.353,7.708A25.1,25.1,0,0,0,52.8,5.4L51.655,0H40.346L39.2,5.406a25.071,25.071,0,0,0-5.554,2.3L29.016,4.7l-7.851,7.851,1.593,3.8c-.061,0-.119-.014-.18-.015A10.391,10.391,0,0,0,11.871,26.71v2.968a10.416,10.416,0,0,0,4.452,8.514V38.9l-4.078,1.019-7.391-4.31H0V66.361l14.6,4.865h2.843l.355-1.243,4.475,2.686a4.62,4.62,0,0,0,4.455,4.476A4.62,4.62,0,0,0,31.178,81.6a4.62,4.62,0,0,0,4.452,4.452,4.615,4.615,0,0,0,7.216,3.664l1.314,1.161A4.518,4.518,0,0,0,47.145,92h.275a4.518,4.518,0,0,0,4.51-4.457,4.514,4.514,0,0,0,4.452-4.452,4.513,4.513,0,0,0,4.452-4.456,4.563,4.563,0,0,0,4.457-4.553,4.345,4.345,0,0,0-.022-.445L92,60.272Zm-14.839-11.5v2.594A7.448,7.448,0,0,1,73.447,36.1l-.742.429.006,4.7,7.414,1.852L63.806,51.664v-4A7.383,7.383,0,0,0,61.681,42.5l5.093-1.272v-4.7l-.74-.428a7.44,7.44,0,0,1-3.711-6.418V26.71a7.419,7.419,0,0,1,7.649-7.415,7.672,7.672,0,0,1,7.19,7.789ZM48.237,50.5,41.52,48.35a18.325,18.325,0,0,0-9.508-.433l-.851.188v-.439a4.448,4.448,0,0,1,3.371-4.32l8.5-2.124v-4.7l-.74-.428a7.44,7.44,0,0,1-3.711-6.418V26.71a7.419,7.419,0,0,1,7.649-7.415,7.672,7.672,0,0,1,7.19,7.789v2.594A7.448,7.448,0,0,1,49.705,36.1l-.742.429.006,4.7,8.5,2.124a4.448,4.448,0,0,1,3.371,4.32v5.56l-.367.193h-.909L50.44,50.812a9.354,9.354,0,0,0-2.2-.315ZM31.494,22.209a16.311,16.311,0,0,1,28.951-.12,10.32,10.32,0,0,0-1.09,4.62v2.968a10.416,10.416,0,0,0,4.452,8.514V38.9L57.871,40.39,51.934,38.9v-.711a10.42,10.42,0,0,0,4.453-8.516V27.083A10.661,10.661,0,0,0,46.319,16.327,10.389,10.389,0,0,0,35.613,26.71v2.968a10.416,10.416,0,0,0,4.452,8.514V38.9L34.129,40.39,28.192,38.9v-.711a10.42,10.42,0,0,0,4.453-8.516V27.083a10.937,10.937,0,0,0-1.151-4.875Zm-6.825-8.974L29.41,8.494l4.173,2.716.8-.49a22.143,22.143,0,0,1,6.425-2.665l.913-.219,1.032-4.868h6.5l1.03,4.867.913.218a22.164,22.164,0,0,1,6.425,2.666l.8.49,4.173-2.716,4.735,4.736L65.64,17.169a10.372,10.372,0,0,0-3.132,2.082c-.061.059-.113.123-.172.184a19.271,19.271,0,0,0-32.728.089A10.467,10.467,0,0,0,26.334,17.2ZM19.29,41.223v-4.7l-.74-.428a7.44,7.44,0,0,1-3.711-6.418V26.71a7.419,7.419,0,0,1,7.649-7.415,7.672,7.672,0,0,1,7.19,7.789v2.594A7.448,7.448,0,0,1,25.963,36.1l-.742.429.006,4.7L30.318,42.5a7.383,7.383,0,0,0-2.125,5.171v1.1l-4.628,1.029.12-.42.057-2.742-7.826-4.565ZM2.967,38.581H4.049l10.672,6.225L9.336,66.344,2.967,64.22ZM15.079,68.258l-2.921-.973L17.39,46.362l3.384,1.974v.424l-5.57,19.5ZM25.226,72.53a1.675,1.675,0,0,1,.487-1.177l2.608-2.608A1.664,1.664,0,0,1,30.674,71.1l-2.608,2.608a1.664,1.664,0,0,1-2.84-1.177Zm4.452,4.452a1.675,1.675,0,0,1,.487-1.177L32.772,73.2a1.664,1.664,0,0,1,2.353,2.353l-2.608,2.608a1.664,1.664,0,0,1-2.84-1.177Zm4.452,4.452a1.675,1.675,0,0,1,.487-1.177l2.608-2.608A1.664,1.664,0,0,1,39.577,80L36.969,82.61a1.664,1.664,0,0,1-2.84-1.177Zm6.115,6.115a1.664,1.664,0,0,1-1.177-2.84L41.676,82.1a1.664,1.664,0,0,1,2.353,2.353l-2.608,2.608A1.675,1.675,0,0,1,40.244,87.548Zm7.176,1.484h-.275a1.538,1.538,0,0,1-1.022-.388l-1.11-.979,1.114-1.114a4.614,4.614,0,0,0,.935-1.379L48.411,86.3a1.548,1.548,0,0,1-.991,2.737ZM60.727,75.677H60.47a1.592,1.592,0,0,1-1.021-.371L51.4,68.6l-1.9,2.281,7.814,6.511a1.549,1.549,0,0,1-.993,2.737H56a1.548,1.548,0,0,1-.99-.359l-8.06-6.716-1.9,2.281,7.814,6.512a1.546,1.546,0,0,1-.991,2.734,2.451,2.451,0,0,1-1.561-.565L47,81.255a4.616,4.616,0,0,0-3.984-2.593,4.62,4.62,0,0,0-4.452-4.452,4.62,4.62,0,0,0-4.452-4.452,4.62,4.62,0,0,0-7.888-3.112l-2.608,2.608a4.573,4.573,0,0,0-.416.508L18.64,67.028l4-13.985,10.018-2.227a15.286,15.286,0,0,1,7.961.36l2.186.7L35.39,55.58a4.946,4.946,0,0,0-2.745,4.446v.293a4.969,4.969,0,0,0,7.528,4.262L45.7,61.268a3.063,3.063,0,0,1,3.558.343L61.794,72.894a1.6,1.6,0,0,1-1.067,2.784Zm28.305-17.24-25,12.5c-.081-.086-.166-.168-.255-.248L51.243,59.407a5.971,5.971,0,0,0-7.072-.684l-5.528,3.315a2,2,0,0,1-3.03-1.719v-.293a1.991,1.991,0,0,1,1.107-1.791L45,54.1a6.449,6.449,0,0,1,4.625-.429l9.325,2.663,2.258.057L89.032,41.741Zm0,0" transform="translate(201 1584)" fill="#f9556d"/>
  </g>
</svg>
