<svg id="Layer_35" enable-background="new 0 0 64 64" height="512" viewBox="0 0 64 64" width="512" xmlns="http://www.w3.org/2000/svg"><g fill="#ffeaa7"><path d="m62 34v12h-12v-6-6z"/><path d="m62 18v12h-12v-6-6z"/><path d="m62 2v12h-12v-6-6z"/></g><path d="m16 25.76v6c-8.07-.81-14-3.53-14-6.76v-6c0 3.23 5.93 5.95 14 6.76z" fill="#fcd770"/><path d="m40 24v1c0 3.74-7.97 6.8-18 6.99v.01c-1.1 0-2 .9-2 2v-8.01c.33.01.66.01 1 .01 10.49 0 19-3.13 19-7z" fill="#fcd770"/><path d="m16 31.76v6c-8.07-.81-14-3.53-14-6.76v-6c0 3.23 5.93 5.95 14 6.76z" fill="#ffeaa7"/><path d="m30 36c-1.1 0-2 .9-2 2v-2c0-.55-.22-1.05-.59-1.41-.36-.37-.86-.59-1.41-.59-1.1 0-2 .9-2 2v-2c0-.55-.22-1.05-.59-1.41-.36-.37-.86-.59-1.41-.59v-.01c10.03-.19 18-3.25 18-6.99v6c0 2.42-3.33 4.55-8.4 5.81-.05-.08-.12-.15-.19-.22-.36-.37-.86-.59-1.41-.59z" fill="#ffeaa7"/><path d="m40 13v6c0 3.87-8.51 7-19 7-.34 0-.67 0-1-.01v-.99c0-.55-.22-1.05-.59-1.41-.36-.37-.86-.59-1.41-.59-1.1 0-2 .9-2 2v.76c-8.07-.81-14-3.53-14-6.76v-6c0 3.87 8.51 7 19 7s19-3.13 19-7z" fill="#ffeaa7"/><path d="m40 13c0 3.87-8.51 7-19 7s-19-3.13-19-7 8.51-7 19-7 19 3.13 19 7z" fill="#fcd770"/><ellipse cx="21" cy="13" fill="#5cd6b3" rx="13" ry="3"/><path d="m28 38c0-1.1.9-2 2-2 .55 0 1.05.22 1.41.59.07.07.14.14.19.22.26.33.4.75.4 1.19v13c0 1.3-.42 2.56-1.2 3.6l-1.8 2.4v5h-16v-5l-2.54-2.54c-.95-.95-1.55-2.18-1.72-3.5l-.58-4.68c-.11-.84-.4-1.65-.87-2.35l-1.03-1.54c-.17-.26-.26-.55-.26-.85v-.01c0-.84.69-1.53 1.54-1.53 1.3 0 2.5.46 3.45 1.23.95.78 1.63 1.87 1.88 3.15.54 2.69 1.13 5.62 1.13 5.62h1l.58-1.16c.28-.55.42-1.16.42-1.78v-9.3-6-6-.76c0-1.1.9-2 2-2 .55 0 1.05.22 1.41.59.37.36.59.86.59 1.41v.99 8.01c0-1.1.9-2 2-2 .55 0 1.05.22 1.41.59.37.36.59.86.59 1.41v2c0-1.1.9-2 2-2 .55 0 1.05.22 1.41.59.37.36.59.86.59 1.41z" fill="#f0d0b4"/><path d="m21 17c1.433 0 14-.112 14-4s-12.567-4-14-4-14 .112-14 4 12.567 4 14 4zm0-6c6.929 0 11.228 1.233 11.944 2-.717.767-5.016 2-11.944 2s-11.228-1.233-11.944-2c.716-.767 5.015-2 11.944-2z"/><path d="m63 15v-14h-14v6h-6v16h-2v-10c0-5.196-10.305-8-20-8s-20 2.804-20 8v18c0 3.672 5.468 6.63 14 7.644v8.411c0 .455-.105.911-.306 1.319l-.839-4.195c-.601-3-3.258-5.179-6.32-5.179-1.397 0-2.535 1.137-2.535 2.535 0 .502.147.988.426 1.406l1.029 1.543c.381.572.627 1.234.712 1.916l.586 4.681c.191 1.537.9 2.986 1.996 4.082l2.251 2.251v5.586h18v-5.667l1.6-2.133c.903-1.204 1.4-2.695 1.4-4.2v-13c0-.176-.023-.347-.052-.515 5.134-1.473 8.052-3.807 8.052-6.485v-6h2v16h6v6h14v-14h-14v6h-4v-14h4v6h14v-14h-14v6h-4v-14h4v6zm-41.02 15.99v.012c-.345.002-.672.072-.981.182v-4.184c7.108 0 14.537-1.509 18-4.36v2.36c.001 2.736-6.838 5.796-17.019 5.99zm-.98-23.99c10.607 0 18 3.162 18 6s-7.393 6-18 6-18-3.162-18-6 7.393-6 18-6zm-18 9.64c3.463 2.851 10.892 4.36 18 4.36s14.537-1.509 18-4.36v2.36c0 2.838-7.393 6-18 6 0-1.654-1.346-3-3-3-1.529 0-2.781 1.154-2.963 2.635-7.821-.967-12.037-3.572-12.037-5.635zm0 5.968c2.312 1.931 6.52 3.385 12 4.037v3.987c-7.798-.972-12-3.572-12-5.632zm0 8.392v-2.392c2.312 1.931 6.519 3.385 12 4.036v3.987c-7.798-.971-12-3.571-12-5.631zm28 20c0 1.075-.355 2.141-1 3l-2 2.667v4.333h-14v-4.414l-2.837-2.837c-.782-.783-1.289-1.818-1.426-2.916l-.586-4.681c-.123-.987-.479-1.948-1.032-2.777l-1.029-1.543c-.059-.088-.09-.191-.09-.297 0-.295.24-.535.535-.535 2.111 0 3.944 1.502 4.359 3.573l1.287 6.427h2.438l.854-1.708c.344-.691.527-1.465.527-2.236v-22.056c0-.551.448-1 1-1s1 .449 1 1v9 12 4h2v-4-12c0-.551.448-1 1-1s1 .449 1 1v2 14h2v-14c0-.551.448-1 1-1s1 .449 1 1v2 12h2v-12c0-.551.448-1 1-1s1 .449 1 1zm.899-15.303c-.519-.429-1.175-.697-1.899-.697-.395 0-.77.081-1.116.22-.345-1.275-1.501-2.22-2.884-2.22-.395 0-.77.081-1.116.22-.033-.121-.064-.242-.111-.356 6.957-.474 11.744-2.186 14.227-4.295v2.431c0 1.717-2.771 3.536-7.101 4.697zm19.101-.697h10v10h-10zm0-16h10v10h-10zm0-16h10v10h-10z"/><path d="m53 5h6v2h-6z"/><path d="m53 9h6v2h-6z"/><path d="m53 21h6v2h-6z"/><path d="m53 25h6v2h-6z"/><path d="m53 37h6v2h-6z"/><path d="m53 41h6v2h-6z"/></svg>