<svg id="icons" enable-background="new 0 0 64 64" height="512" viewBox="0 0 64 64" width="512" xmlns="http://www.w3.org/2000/svg"><path d="m47.029 43.5h-45.95-.05v-35c0-1.1.9-2 2-2h49.99c1.1 0 2 .9 2 2v18.98.02h-3.99v-17h-46v17h15.99 6 18 4.01c-1.1 0-2 .9-2 2v2 4 4.01 1.99z" fill="#e6e9ed"/><path d="m50.998 9.498h-45.998c-.553 0-1 .447-1 1v16.998c0 .553.447 1 1 1h45.998c.553 0 1-.447 1-1v-16.998c0-.553-.447-1-1-1z" fill="#5d9cec"/><path d="m18.999 54.5h18.002 2c1.1 0 2 .89 2 2v1h-26.002v-1c0-1.11.89-2 2-2z" fill="#545c66"/><path d="m35.001 47.5 2 7h-18.002l2-7z" fill="#434a54"/><path d="m1.05 43.5h45.95v4h-.01-12.99-12-19c-1.1 0-2-.9-2-2v-2z" fill="#545c66"/><path d="m15 14c1.388 0 2.5 1.125 2.5 2.5 0 1.388-1.112 2.5-2.5 2.5-1.375 0-2.5-1.112-2.5-2.5 0-1.375 1.125-2.5 2.5-2.5z" fill="#ffce54"/><path d="m28.026 46.498c-.553 0-1.005-.447-1.005-1s.442-1 .994-1h.011c.552 0 1 .447 1 1s-.448 1-1 1z" fill="#434a54"/><g fill="#545c66"><path d="m47.002 44.498h-45.955c-.553 0-1-.447-1-1s.447-1 1-1h45.955c.553 0 1 .447 1 1s-.447 1-1 1z"/><path d="m46.986 48.498h-43.986c-1.654 0-3-1.346-3-3v-36.996c0-1.654 1.346-3 3-3h49.992c1.654 0 3 1.346 3 3v18.978c0 .553-.447 1-1 1s-1-.447-1-1v-18.978c0-.552-.448-1-1-1h-49.992c-.552 0-1 .448-1 1v36.996c0 .552.448 1 1 1h43.986c.553 0 1 .447 1 1s-.447 1-1 1z"/><path d="m39.996 58.496h-23.998c-.553 0-1-.447-1-1s.447-1 1-1h23.998c.553 0 1 .447 1 1s-.447 1-1 1z"/></g><path d="m47 32.498h-42c-.553 0-1-.447-1-1s.447-1 1-1h42c.553 0 1 .447 1 1s-.447 1-1 1z" fill="#ccd1d9"/><path d="m47 36.502h-42c-.553 0-1-.447-1-1s.447-1 1-1h42c.553 0 1 .447 1 1s-.447 1-1 1z" fill="#ccd1d9"/><path d="m47 40.506h-42c-.553 0-1-.447-1-1s.447-1 1-1h42c.553 0 1 .447 1 1s-.447 1-1 1z" fill="#ccd1d9"/><path d="m36.544 16.685c-.061-.041-.121-.074-.188-.1-.057-.022-.111-.04-.17-.052-.065-.013-.128-.019-.194-.019-.063.001-.124.006-.187.018-.061.012-.117.029-.176.053-.066.026-.126.059-.186.099-.026.019-.057.023-.082.044s-.036.05-.06.072c-.025.025-.06.039-.083.068l-9.515 11.628h20.579l-9.516-11.628c-.023-.029-.058-.043-.084-.068-.022-.022-.033-.052-.059-.072-.022-.021-.053-.026-.079-.043z" fill="#656d78"/><path d="m28.269 19.87c-.022-.027-.055-.041-.079-.065-.025-.024-.038-.058-.066-.08-.026-.021-.06-.027-.087-.046-.057-.037-.113-.066-.175-.092-.061-.023-.118-.043-.181-.055-.063-.013-.124-.017-.188-.017s-.125.004-.188.017c-.063.012-.12.03-.181.055-.063.025-.119.055-.176.092-.028.019-.061.024-.087.046-.028.022-.041.055-.066.08-.024.024-.057.038-.079.065l-7.009 8.626h5.997l4.804-5.87z" fill="#545c66"/><path d="m63 29.5v2h-14.999v-2c0-1.1.9-2 2-2h2 2.989 6.01c1.1 0 2 .9 2 2z" fill="#656d78"/><path d="m63 53.5v2c0 1.1-.9 2-2 2h-10.999c-1.1 0-2-.9-2-2v-2z" fill="#656d78"/><path d="m63 41.5v12h-14.999l-1.001-6v-4-2h4 3 8z" fill="#e6e9ed"/><path d="m61 58.498h-10.997c-1.654 0-3-1.346-3-3v-26.002c0-1.654 1.346-3 3-3h10.997c1.654 0 3 1.346 3 3v26.002c0 1.654-1.346 3-3 3zm-10.997-30.002c-.552 0-1 .448-2.001 1v26.002c1.001.552 1.449 1 2.001 1h10.997c.552 0 1-.448 1.999-1v-26.002c-.999-.552-1.447-1-1.999-1z" fill="#656d78"/><path d="m55.504 56.998c-.553 0-1.005-.447-1.005-1s.442-1 .994-1h.011c.552 0 1 .447 1 1s-.448 1-1 1z" fill="#aab2bd"/><path d="m59.998 48.498h-8.999c-.553 0-1-.447-1-1s.447-1 1-1h8.999c.553 0 1 .447 1 1s-.447 1-1 1z" fill="#ccd1d9"/><path d="m59.998 45.498h-8.999c-.553 0-1-.447-1-1s.447-1 1-1h8.999c.553 0 1 .447 1 1s-.447 1-1 1z" fill="#ccd1d9"/><path d="m59.998 51.498h-8.999c-.553 0-1-.447-1-1s.447-1 1-1h8.999c.553 0 1 .447 1 1s-.447 1-1 1z" fill="#ccd1d9"/><path d="m48.001 30.499h14.999v11.001h-14.999z" fill="#5d9cec"/><path d="m63 41.196-4.167-6.253-.003-.004c-.053-.079-.125-.135-.194-.194-.03-.025-.049-.061-.083-.083h-.001c-.11-.074-.234-.123-.363-.148-.063-.013-.127-.001-.19-.001-.064 0-.128-.012-.191.001-.129.025-.252.074-.363.148-.021.015-.033.037-.053.054-.083.063-.164.132-.225.224l-.003.004-4.37 6.556h2.403 5.602 2.201z" fill="#656d78"/><path d="m54.836 36.447c-.001-.001-.001-.002-.002-.003l-.002-.003c-.038-.057-.093-.092-.139-.139-.047-.046-.082-.101-.139-.139 0 0-.001 0-.001-.001-.111-.073-.234-.123-.362-.147-.064-.013-.128-.001-.191-.001-.064 0-.128-.012-.191.001-.253.049-.487.194-.641.426l-.002.003c-.001.001-.001.002-.002.003l-3.368 5.053h2.403.595l2.705-4.059z" fill="#545c66"/><path d="m51.031 34.493c-.553 0-1.005-.447-1.005-1s.442-1 .994-1h.011c.552 0 1 .447 1 1s-.448 1-1 1z" fill="#ffce54"/></svg>