<svg xmlns="http://www.w3.org/2000/svg" width="57.101" height="56.862" viewBox="0 0 57.101 56.862">
  <g id="icon_standard" transform="translate(-724.001 -2063)">
    <path id="Path_11858" data-name="Path 11858" d="M10.283,6.125a4.283,4.283,0,1,0,4.283,4.283A4.288,4.288,0,0,0,10.283,6.125Zm0,6.662a2.379,2.379,0,1,1,2.379-2.379A2.382,2.382,0,0,1,10.283,12.787Z" transform="translate(723.711 2062.585)" fill="#f9556d"/>
    <path id="Path_11859" data-name="Path 11859" d="M10.283,25.125a4.283,4.283,0,1,0,4.283,4.283A4.288,4.288,0,0,0,10.283,25.125Zm0,6.662a2.379,2.379,0,1,1,2.379-2.379A2.382,2.382,0,0,1,10.283,31.787Z" transform="translate(723.711 2061.667)" fill="#f9556d"/>
    <path id="Path_11860" data-name="Path 11860" d="M10.283,44.125a4.283,4.283,0,1,0,4.283,4.283A4.288,4.288,0,0,0,10.283,44.125Zm0,6.662a2.379,2.379,0,1,1,2.379-2.379A2.382,2.382,0,0,1,10.283,50.787Z" transform="translate(723.711 2060.749)" fill="#f9556d"/>
    <path id="Path_11861" data-name="Path 11861" d="M57.1,15.725V4.51A4.39,4.39,0,0,0,52.715.125H4.385A4.39,4.39,0,0,0,0,4.51V15.724a4.36,4.36,0,0,0,1.691,3.434A4.364,4.364,0,0,0,0,22.592V33.806A4.36,4.36,0,0,0,1.691,37.24,4.364,4.364,0,0,0,0,40.674V51.888a4.39,4.39,0,0,0,4.385,4.385H30.913a45.482,45.482,0,0,0,8.105.714c8.253,0,16.955-2.14,17.982-6.236a.942.942,0,0,0,.1-.424V23.917a.934.934,0,0,0-.091-.4c-.33-1.393-1.568-2.567-3.39-3.507A4.391,4.391,0,0,0,57.1,15.725ZM1.9,33.807V22.592A2.485,2.485,0,0,1,4.385,20.11H24.237c-1.722.924-2.89,2.064-3.209,3.411a.937.937,0,0,0-.091.4V36.289H4.385A2.485,2.485,0,0,1,1.9,33.807Zm21.533-5.84.132.083q.251.157.523.308c.052.029.1.058.155.086.222.119.452.235.692.346.038.018.079.035.117.052.21.1.426.188.649.279l.2.079c.263.1.53.2.807.3l.046.015c.265.09.537.177.814.261l.225.067c.274.08.552.158.837.232l.068.018c.306.079.62.152.937.224l.241.052q.408.089.825.168l.166.032q.49.091.991.17l.239.037q.415.064.837.12l.231.03q.511.064,1.029.119l.209.02c.29.029.582.054.875.078l.265.021c.349.026.7.049,1.052.067l.15.007q.464.023.93.035l.281.008c.355.008.71.013,1.064.013s.709-.006,1.064-.013l.281-.008c.31-.009.62-.02.93-.035l.15-.007c.351-.018.7-.041,1.052-.067l.265-.021c.293-.023.584-.049.875-.078l.209-.02q.518-.054,1.029-.119l.231-.03c.281-.037.561-.077.837-.12.08-.012.16-.024.239-.037q.5-.08.991-.17l.166-.032q.418-.08.825-.168l.241-.052c.317-.071.631-.145.937-.224l.068-.018c.285-.073.562-.151.837-.232l.225-.067c.277-.084.549-.17.814-.261l.046-.015c.277-.1.545-.2.807-.3.067-.026.131-.052.2-.079.223-.09.439-.183.649-.279.039-.018.079-.034.117-.052.24-.111.469-.227.692-.346l.155-.086q.271-.15.523-.308c.044-.028.089-.054.132-.083q.3-.191.561-.394l.036-.025v4.747a.928.928,0,0,0-.02.336,1.1,1.1,0,0,1,.023.208,1.376,1.376,0,0,1-.055.317,1.65,1.65,0,0,1-.08.246,1.918,1.918,0,0,1-.11.215,2.458,2.458,0,0,1-.137.215,3.14,3.14,0,0,1-.25.3c-.035.038-.07.076-.108.114-2.015,1.949-7.96,3.71-15.436,3.71s-13.414-1.759-15.432-3.707c-.042-.042-.08-.083-.118-.125a3.2,3.2,0,0,1-.241-.286,2.377,2.377,0,0,1-.145-.226,1.966,1.966,0,0,1-.1-.2,1.626,1.626,0,0,1-.084-.258,1.306,1.306,0,0,1-.055-.309,1.2,1.2,0,0,1,.02-.2.948.948,0,0,0-.02-.366V27.547l.036.025Q23.141,27.774,23.436,27.967Zm31.625,14a1.918,1.918,0,0,1-.11.215,2.459,2.459,0,0,1-.137.215,3.142,3.142,0,0,1-.25.3c-.035.038-.07.076-.108.114-2.015,1.949-7.96,3.71-15.436,3.71S25.6,44.76,23.586,42.812c-.042-.042-.08-.083-.118-.125a3.2,3.2,0,0,1-.241-.286,2.375,2.375,0,0,1-.145-.226,1.966,1.966,0,0,1-.1-.2,1.627,1.627,0,0,1-.084-.258,1.333,1.333,0,0,1-.048-.269V41.33c0-.043.006-.086.012-.128a.9.9,0,0,0-.013-.243l-.006-4.67v-.177c.038.03.083.057.123.086.12.089.246.177.374.264.1.069.213.138.324.207.17.1.342.208.524.308l0,0a24.7,24.7,0,0,0,7.732,2.336l.069.01c.974.151,1.973.269,2.989.356.216.018.431.037.649.052s.424.029.638.04q.431.024.862.042c.167.007.335.014.5.019.463.013.926.023,1.388.023s.923-.009,1.385-.022c.169,0,.338-.012.507-.019q.428-.017.855-.041.323-.019.643-.041c.214-.015.425-.033.639-.051,1.026-.087,2.035-.207,3.017-.359l.044-.007a23.181,23.181,0,0,0,8.262-2.645c.109-.068.218-.135.322-.2.128-.086.254-.173.373-.263.043-.031.091-.061.133-.093V40.86a.928.928,0,0,0-.02.336,1.527,1.527,0,0,1,.019.208,1.376,1.376,0,0,1-.055.317A1.656,1.656,0,0,1,55.061,41.968ZM4.385,54.371A2.485,2.485,0,0,1,1.9,51.889V40.674a2.485,2.485,0,0,1,2.482-2.482H20.937V51.278h.282c.015.035.037.069.054.1.033.071.07.141.108.211a4.3,4.3,0,0,0,.265.417,4.83,4.83,0,0,0,.323.4c.059.067.118.132.182.2a7.566,7.566,0,0,0,1.308,1.057l.053.034a11.933,11.933,0,0,0,1.188.668H4.385ZM55.2,50.083c-.008.029-.014.06-.019.089-.389,2.373-6.976,4.913-16.16,4.913a43.016,43.016,0,0,1-7.876-.689v-.008c-4.733-.9-7.352-2.408-8.085-3.683a0,0,0,0,1,0,0c-.033-.059-.057-.117-.083-.174a1.623,1.623,0,0,1-.115-.355l-.008-5.486c.034.027.075.051.11.078.12.089.246.177.374.264.1.069.213.138.324.207.17.1.342.208.524.308l0,0a24.694,24.694,0,0,0,7.732,2.336l.069.01c.974.151,1.973.269,2.989.356.216.018.431.037.649.052s.424.029.638.04q.431.024.862.042c.167.007.335.014.5.019.463.013.926.023,1.388.023s.923-.009,1.385-.022c.169,0,.338-.012.507-.019q.428-.017.855-.041.323-.019.643-.041c.214-.015.425-.033.639-.051,1.026-.087,2.035-.207,3.017-.359l.044-.007a23.181,23.181,0,0,0,8.262-2.645c.109-.068.218-.135.322-.2.128-.086.254-.173.373-.263.043-.031.091-.061.133-.093v5.4Zm0-25.809c0,2.414-6.92,5.115-16.179,5.115s-16.179-2.7-16.179-5.115a1.37,1.37,0,0,1,.065-.369,1.765,1.765,0,0,1,.166-.378l.009-.017a5.144,5.144,0,0,1,1.939-1.647l.128-.069q.253-.137.534-.271c.218-.1.442-.2.681-.3.047-.02.1-.039.144-.058a24.71,24.71,0,0,1,3.938-1.152c.469-.1.947-.192,1.438-.274.13-.022.258-.045.39-.066a46.448,46.448,0,0,1,13.492,0c.134.021.264.045.4.067.488.081.963.173,1.428.272C52.226,21,55.2,22.7,55.2,24.274Zm0-8.549a2.485,2.485,0,0,1-2.482,2.482H48.309c-.055-.012-.116-.02-.171-.032-.624-.135-1.267-.256-1.923-.361l-.191-.03a46.612,46.612,0,0,0-14.007,0l-.2.03c-.655.1-1.3.226-1.918.36-.056.012-.119.02-.175.032H4.385A2.483,2.483,0,0,1,1.9,15.725V4.51A2.485,2.485,0,0,1,4.385,2.028H52.715A2.485,2.485,0,0,1,55.2,4.51Z" transform="translate(724.001 2062.875)" fill="#f9556d"/>
    <g id="Group_8645" data-name="Group 8645" transform="translate(724.001 2063)">
      <circle id="Ellipse_1836" data-name="Ellipse 1836" cx="1" cy="1" r="1" transform="translate(47.197 7.014)" fill="#f9556d"/>
      <circle id="Ellipse_1879" data-name="Ellipse 1879" cx="1" cy="1" r="1" transform="translate(47.197 11.014)" fill="#f9556d"/>
      <circle id="Ellipse_1837" data-name="Ellipse 1837" cx="1" cy="1" r="1" transform="translate(43.197 7.014)" fill="#f9556d"/>
      <circle id="Ellipse_1878" data-name="Ellipse 1878" cx="1" cy="1" r="1" transform="translate(43.197 11.014)" fill="#f9556d"/>
      <circle id="Ellipse_1840" data-name="Ellipse 1840" cx="1" cy="1" r="1" transform="translate(39.197 7.014)" fill="#f9556d"/>
      <circle id="Ellipse_1877" data-name="Ellipse 1877" cx="1" cy="1" r="1" transform="translate(39.197 11.014)" fill="#f9556d"/>
      <circle id="Ellipse_1842" data-name="Ellipse 1842" cx="1" cy="1" r="1" transform="translate(35.197 7.014)" fill="#f9556d"/>
      <circle id="Ellipse_1876" data-name="Ellipse 1876" cx="1" cy="1" r="1" transform="translate(35.197 11.014)" fill="#f9556d"/>
      <circle id="Ellipse_1844" data-name="Ellipse 1844" cx="1" cy="1" r="1" transform="translate(31.197 7.014)" fill="#f9556d"/>
      <circle id="Ellipse_1875" data-name="Ellipse 1875" cx="1" cy="1" r="1" transform="translate(31.197 11.014)" fill="#f9556d"/>
    </g>
  </g>
</svg>
