<svg height="512" viewBox="0 0 64 64" width="512" xmlns="http://www.w3.org/2000/svg"><g id="Shopping-Shopping_Bag-Smartphone-Computer-Payment" data-name="Shopping-Shopping Bag-Smartphone-Computer-Payment"><path d="m57 15v26h-50v-26a4 4 0 0 1 4-4h42a3.992 3.992 0 0 1 3.87 3 3.657 3.657 0 0 1 .13 1z" fill="#5aaae7"/><path d="m57 16v17h-24a2.006 2.006 0 0 1 -2-2v-18h20v3z" fill="#3d9ae2"/><path d="m45 27h-16v2a2.006 2.006 0 0 0 2 2h16a2.006 2.006 0 0 0 2-2v-2z" fill="#d1d3d4"/><path d="m29 11h20v16h-20z" fill="#00b39d"/><path d="m57 41v4a4 4 0 0 1 -4 4h-42a4 4 0 0 1 -4-4v-4z" fill="#c6c5ca"/><path d="m61 27v2a2.006 2.006 0 0 1 -2 2h-12a2.006 2.006 0 0 1 -2-2v-2z" fill="#e6e7e8"/><path d="m45 14h16v13h-16z" fill="#ff5023"/><path d="m43.41 57.59a1.955 1.955 0 0 1 .59 1.41 2.006 2.006 0 0 1 -2 2h-20a2.015 2.015 0 0 1 -2-2 2.006 2.006 0 0 1 2-2h20a1.955 1.955 0 0 1 1.41.59z" fill="#898890"/><path d="m40 57h-16l1-8h14z" fill="#acabb1"/><path d="m23 11v18a4 4 0 0 1 -4 4h-10a3.989 3.989 0 0 1 -2-.54v-17.46a4 4 0 0 1 4-4z" fill="#3d9ae2"/><rect fill="#ffde55" height="28" rx="4" width="18" x="3" y="3"/><path d="m39.25 51h-14.5l.25-2h14z" fill="#898890"/><path d="m56 34v6h-48v-6h-2v11a5 5 0 0 0 5 5h12.87l-.75 6h-1.12a3 3 0 0 0 0 6h20a3 3 0 0 0 0-6h-1.12l-.75-6h12.87a5 5 0 0 0 5-5v-11zm-14 24a1 1 0 0 1 0 2h-20a1 1 0 0 1 0-2zm-16.87-2 .75-6h12.24l.75 6zm30.87-11a3.009 3.009 0 0 1 -3 3h-42a3.009 3.009 0 0 1 -3-3v-3h48z"/><path d="m24 10h2v2h-2z"/><path d="m50 44h2v2h-2z"/><path d="m17 2h-10a5 5 0 0 0 -5 5v20a5 5 0 0 0 5 5h10a5 5 0 0 0 5-5v-20a5 5 0 0 0 -5-5zm3 25a3.009 3.009 0 0 1 -3 3h-10a3.009 3.009 0 0 1 -3-3v-20a3.009 3.009 0 0 1 3-3h10a3.009 3.009 0 0 1 3 3z"/><path d="m10 6h4v2h-4z"/><path d="m6 6h2v2h-2z"/><path d="m10 26h4v2h-4z"/><path d="m11 18h2a1 1 0 0 1 0 2h-2a1 1 0 0 1 -1-1h-2a3 3 0 0 0 3 3v1h2v-1a3 3 0 0 0 0-6h-2a1 1 0 0 1 0-2h2a1 1 0 0 1 1 1h2a3 3 0 0 0 -3-3v-1h-2v1a3 3 0 0 0 0 6z"/><path d="m34 15v-3h15v-2h-3v-1a7 7 0 0 0 -14 0v1h-3a1 1 0 0 0 -1 1v18a3.009 3.009 0 0 0 3 3h11v-2h-11a1 1 0 0 1 -1-1v-1h12v-2h-12v-14h2v3zm0-6a5 5 0 0 1 10 0v1h-10z"/><path d="m61 13h-16a1 1 0 0 0 -1 1v15a3.009 3.009 0 0 0 3 3h12a3.009 3.009 0 0 0 3-3v-15a1 1 0 0 0 -1-1zm-1 16a1 1 0 0 1 -1 1h-12a1 1 0 0 1 -1-1v-1h14zm0-3h-14v-11h14z"/><path d="m53 24a5.006 5.006 0 0 0 5-5v-2h-2v2a3 3 0 0 1 -6 0v-2h-2v2a5.006 5.006 0 0 0 5 5z"/></g></svg>