<svg height="512" viewBox="0 0 64 64" width="512" xmlns="http://www.w3.org/2000/svg"><g id="Graphic_Design-Design-Edit_Tools-Graphic_Editor-Interface" data-name="Graphic Design-Design-Edit Tools-Graphic Editor-Interface"><path d="m61 11v46a4 4 0 0 1 -4 4h-50a4 4 0 0 1 -4-4v-46z" fill="#5aaae7"/><path d="m61 7v4h-58v-4a4 4 0 0 1 4-4h50a4 4 0 0 1 4 4z" fill="#ff5023"/><g fill="#3d9ae2"><path d="m48 51v2 2h4v-4h-2z"/><path d="m48 35v4h2 2v-4h-2z"/><path d="m48 19v2 2h2 2v-4z"/><path d="m34 27-2.22 5-1.78 4v17 6h8v-6-17l-1.78-4z"/><path d="m36 21v-2h-4v2 2h4z"/><path d="m16 51v4h4v-2-2h-2z"/><path d="m16 35v4h2 2v-4h-2z"/><path d="m16 23h2 2v-2-2h-4z"/></g><path d="m50 49v4h-4v-2-2h2z" fill="#ff9811"/><path d="m50 33v4h-2-2v-4h2z" fill="#ff9811"/><path d="m50 17v4h-2-2v-2-2z" fill="#ff9811"/><path d="m36 51v6h-8v-6h4z" fill="#d1d3d4"/><path d="m32 34h4v17h-4z" fill="#00b39d"/><path d="m34.22 30 1.78 4h-4-4l1.78-4z" fill="#c6c5ca"/><path d="m32 25 2.22 5h-4.44z" fill="#898890"/><path d="m34 19v2h-4v-2-2h4z" fill="#ff9811"/><path d="m28 34h4v17h-4z" fill="#00ccb3"/><path d="m18 51v2h-4v-4h2 2z" fill="#ff9811"/><path d="m18 33v4h-2-2v-4h2z" fill="#ff9811"/><path d="m18 19v2h-2-2v-4h4z" fill="#ff9811"/><path d="m57 2h-50a5.006 5.006 0 0 0 -5 5v50a5.006 5.006 0 0 0 5 5h50a5.006 5.006 0 0 0 5-5v-50a5.006 5.006 0 0 0 -5-5zm-50 2h50a3 3 0 0 1 3 3v3h-56v-3a3 3 0 0 1 3-3zm50 56h-50a3 3 0 0 1 -3-3v-45h56v45a3 3 0 0 1 -3 3z"/><path d="m8 6h2v2h-2z"/><path d="m12 6h2v2h-2z"/><path d="m16 6h2v2h-2z"/><path d="m32.914 24.594a1 1 0 0 0 -1.828 0l-4 9a1 1 0 0 0 -.086.406v23a1 1 0 0 0 1 1h8a1 1 0 0 0 1-1v-23a1 1 0 0 0 -.086-.406zm-1.914 10.406v15h-2v-15zm2 0h2v15h-2zm-3.461-2 .888-2h3.146l.888 2zm3.145-4h-1.368l.684-1.538zm-3.684 27v-4h6v4z"/><path d="m50 16h-4a1 1 0 0 0 -1 1v1h-10v-1a1 1 0 0 0 -1-1h-4a1 1 0 0 0 -1 1v1h-10v-1a1 1 0 0 0 -1-1h-4a1 1 0 0 0 -1 1v4a1 1 0 0 0 1 1h1v10h-1a1 1 0 0 0 -1 1v4a1 1 0 0 0 1 1h1v10h-1a1 1 0 0 0 -1 1v4a1 1 0 0 0 1 1h4a1 1 0 0 0 1-1v-1h6v-2h-6v-1a1 1 0 0 0 -1-1h-1v-10h1a1 1 0 0 0 1-1v-4a1 1 0 0 0 -1-1h-1v-10h1a1 1 0 0 0 1-1v-1h10v1a1 1 0 0 0 1 1h4a1 1 0 0 0 1-1v-1h10v1a1 1 0 0 0 1 1h1v10h-1a1 1 0 0 0 -1 1v4a1 1 0 0 0 1 1h1v10h-1a1 1 0 0 0 -1 1v1h-6v2h6v1a1 1 0 0 0 1 1h4a1 1 0 0 0 1-1v-4a1 1 0 0 0 -1-1h-1v-10h1a1 1 0 0 0 1-1v-4a1 1 0 0 0 -1-1h-1v-10h1a1 1 0 0 0 1-1v-4a1 1 0 0 0 -1-1zm-33 36h-2v-2h2zm0-16h-2v-2h2zm0-16h-2v-2h2zm16 0h-2v-2h2zm16 32h-2v-2h2zm0-16h-2v-2h2zm0-16h-2v-2h2z"/></g></svg>