<svg height="512" viewBox="0 0 64 64" width="512" xmlns="http://www.w3.org/2000/svg"><g id="Layer_34" data-name="Layer 34"><g id="application"><path d="m56 19a5 5 0 0 1 0 10h-27v-12a2.006 2.006 0 0 0 -2-2h-4.85a7.5 7.5 0 0 1 13.86-2.21 10 10 0 1 1 17.98 6.21z" fill="#57a4ff"/><path d="m61 24a5 5 0 0 1 -5 5h-8a5 5 0 0 0 0-10h-2.01a9.981 9.981 0 0 0 -3.99-15.16 9.881 9.881 0 0 1 4-.84 9.99 9.99 0 0 1 7.99 16h2.01a5 5 0 0 1 5 5z" fill="#2488ff"/><rect fill="#46f8ff" height="46" rx="2" width="26" x="3" y="15"/><path d="m29 17v42a2.006 2.006 0 0 1 -2 2h-4a2.006 2.006 0 0 0 2-2v-42a2.006 2.006 0 0 0 -2-2h4a2.006 2.006 0 0 1 2 2z" fill="#00e7f0"/><path d="m24 15v2a2.006 2.006 0 0 1 -2 2h-12a2.006 2.006 0 0 1 -2-2v-2z" fill="#ffde55"/><rect fill="#c0ab91" height="16" rx="2" width="16" x="8" y="23"/><path d="m24 25v12a2.006 2.006 0 0 1 -2 2h-4a2.006 2.006 0 0 0 2-2v-12a2.006 2.006 0 0 0 -2-2h4a2.006 2.006 0 0 1 2 2z" fill="#b39a7c"/><path d="m18 23v8l-2-2-2 2v-8z" fill="#57a4ff"/><path d="m7 51h6v6h-6z" fill="#ffde55"/><rect fill="#c0ab91" height="16" rx="2" width="16" x="45" y="45"/><path d="m61 47v12a2.006 2.006 0 0 1 -2 2h-4a2.006 2.006 0 0 0 2-2v-12a2.006 2.006 0 0 0 -2-2h4a2.006 2.006 0 0 1 2 2z" fill="#b39a7c"/><path d="m55 45v8l-2-2-2 2v-8z" fill="#57a4ff"/><path d="m13 50h-6a1 1 0 0 0 -1 1v6a1 1 0 0 0 1 1h6a1 1 0 0 0 1-1v-6a1 1 0 0 0 -1-1zm-1 6h-4v-4h4z"/><path d="m16 55h10v2h-10z"/><path d="m16 51h10v2h-10z"/><path d="m7 46h12v2h-12z"/><path d="m7 42h6v2h-6z"/><path d="m59 44h-12a3.009 3.009 0 0 0 -3 3v12a3.009 3.009 0 0 0 3 3h12a3.009 3.009 0 0 0 3-3v-12a3.009 3.009 0 0 0 -3-3zm-7 2h2v4.59l-.29-.3a1.008 1.008 0 0 0 -1.42 0l-.29.3zm8 13a1 1 0 0 1 -1 1h-12a1 1 0 0 1 -1-1v-12a1 1 0 0 1 1-1h3v7a.987.987 0 0 0 .62.92 1 1 0 0 0 1.09-.21l1.29-1.3 1.29 1.3a1.007 1.007 0 0 0 .71.29.838.838 0 0 0 .38-.08.987.987 0 0 0 .62-.92v-7h3a1 1 0 0 1 1 1z"/><path d="m15 42h10v2h-10z"/><path d="m21 46h4v2h-4z"/><path d="m56 18h-.21a10.792 10.792 0 0 0 1.21-5 11 11 0 0 0 -21.67-2.67 8.482 8.482 0 0 0 -13.95 3.67h-16.38a3.009 3.009 0 0 0 -3 3v42a3.009 3.009 0 0 0 3 3h22a3.009 3.009 0 0 0 3-3v-29h26a6 6 0 0 0 0-12zm-47-2h14v1a1 1 0 0 1 -1 1h-12a1 1 0 0 1 -1-1zm19 43a1 1 0 0 1 -1 1h-22a1 1 0 0 1 -1-1v-42a1 1 0 0 1 1-1h2v1a3.009 3.009 0 0 0 3 3h12a3.009 3.009 0 0 0 3-3v-1h2a1 1 0 0 1 1 1zm28-31h-26v-11a3.009 3.009 0 0 0 -3-3h-3.49a6.482 6.482 0 0 1 11.63-.71 1.016 1.016 0 0 0 1.12.47 1 1 0 0 0 .75-.95 9 9 0 1 1 16.18 5.59 1 1 0 0 0 .8 1.6h2.01a4 4 0 0 1 0 8z"/><path d="m22 22h-12a3.009 3.009 0 0 0 -3 3v12a3.009 3.009 0 0 0 3 3h12a3.009 3.009 0 0 0 3-3v-12a3.009 3.009 0 0 0 -3-3zm-7 2h2v4.59l-.29-.3a1.008 1.008 0 0 0 -1.42 0l-.29.3zm8 13a1 1 0 0 1 -1 1h-12a1 1 0 0 1 -1-1v-12a1 1 0 0 1 1-1h3v7a.987.987 0 0 0 .62.92 1 1 0 0 0 1.09-.21l1.29-1.3 1.29 1.3a1.007 1.007 0 0 0 .71.29.838.838 0 0 0 .38-.08.987.987 0 0 0 .62-.92v-7h3a1 1 0 0 1 1 1z"/><path d="m51 13h2a7.009 7.009 0 0 0 -7-7v2a5.006 5.006 0 0 1 5 5z"/><path d="m36 32h-2v23a1 1 0 0 0 1 1h3v-2h-2z"/><path d="m40 54h2v2h-2z"/><path d="m58 40h-14v-8h-2v9a1 1 0 0 0 1 1h15z"/><path d="m60 40h2v2h-2z"/><path d="m49 32v3a1 1 0 0 0 1 1h8v-2h-7v-2z"/><path d="m60 34h2v2h-2z"/></g></g></svg>