<?xml version="1.0" encoding="iso-8859-1"?>
<!-- Generator: Adobe Illustrator 19.0.0, SVG Export Plug-In . SVG Version: 6.00 Build 0)  -->
<svg version="1.1" id="Capa_1" xmlns="http://www.w3.org/2000/svg" xmlns:xlink="http://www.w3.org/1999/xlink" x="0px" y="0px"
	 viewBox="0 0 464.133 464.133" style="enable-background:new 0 0 464.133 464.133;" xml:space="preserve">
<path style="fill:#E6E6E6;" d="M415.247,216.133c26.51,0,48-21.49,48-48s-21.49-48-48-48l0,0
	c-10.09,0.001-19.935,3.113-28.192,8.912c2.47-8.758,3.738-17.812,3.768-26.912C389.818,44.731,342.469-0.989,285.067,0.016
	c-45.742,0.801-85.584,31.412-98.141,75.405c-11.148-9.827-25.491-15.262-40.352-15.288c-33.427-0.288-60.761,26.573-61.056,60
	c0.027,7.603,1.53,15.129,4.424,22.16c-9.056-13.856-24.503-22.194-41.056-22.16c-26.51,0-48,21.49-48,48s21.49,48,48,48"/>
<path style="fill:#3B6882;" d="M96.047,304.133h272c8.837,0,16,7.163,16,16v32c0,8.837-7.163,16-16,16h-272c-8.837,0-16-7.163-16-16
	v-32C80.047,311.297,87.21,304.133,96.047,304.133z"/>
<path style="fill:#ED1C24;" d="M346.047,351.637c-8.562-0.053-15.461-7.037-15.408-15.6c0.053-8.562,7.037-15.461,15.6-15.408
	c8.525,0.053,15.408,6.978,15.408,15.503C361.607,344.717,354.63,351.65,346.047,351.637z M346.047,335.637l-0.4,0.496
	c0,0.24,0.16,0.504,0.4,0.504V335.637z"/>
<path style="fill:#F2F2F2;" d="M262.447,344.133h-152c-4.418,0-8-3.582-8-8s3.582-8,8-8h152c4.418,0,8,3.582,8,8
	S266.865,344.133,262.447,344.133z"/>
<path style="fill:#F8CF26;" d="M311.846,344.133h-21.28c-4.418,0-8-3.582-8-8s3.582-8,8-8h21.28c4.418,0,8,3.582,8,8
	S316.265,344.133,311.846,344.133z"/>
<path style="fill:#06AAE9;" d="M96.047,400.133h272c8.837,0,16,7.163,16,16v32c0,8.837-7.163,16-16,16h-272c-8.837,0-16-7.163-16-16
	v-32C80.047,407.297,87.21,400.133,96.047,400.133z"/>
<path style="fill:#ED1C24;" d="M346.047,447.637c-8.562-0.053-15.461-7.037-15.408-15.6c0.053-8.562,7.037-15.461,15.6-15.408
	c8.525,0.053,15.408,6.978,15.408,15.503C361.607,440.717,354.63,447.65,346.047,447.637z M346.047,431.637l-0.4,0.496
	c0,0.24,0.16,0.504,0.4,0.504V431.637z"/>
<path style="fill:#F2F2F2;" d="M262.447,440.133h-152c-4.418,0-8-3.582-8-8s3.582-8,8-8h152c4.418,0,8,3.582,8,8
	S266.865,440.133,262.447,440.133z"/>
<path style="fill:#F8CF26;" d="M311.846,440.133h-21.28c-4.418,0-8-3.582-8-8s3.582-8,8-8h21.28c4.418,0,8,3.582,8,8
	S316.265,440.133,311.846,440.133z"/>
<path style="fill:#06AAE9;" d="M96.047,208.133h272c8.837,0,16,7.163,16,16v32c0,8.837-7.163,16-16,16h-272c-8.837,0-16-7.163-16-16
	v-32C80.047,215.296,87.21,208.133,96.047,208.133z"/>
<path style="fill:#ED1C24;" d="M343.607,256.133c-7.56-0.005-14.036-5.411-15.392-12.848c-0.727-4.043,0.202-8.208,2.576-11.56
	c4.992-7.049,14.754-8.716,21.803-3.724c3.34,2.365,5.619,5.945,6.349,9.972c0.735,4.046-0.193,8.217-2.576,11.568
	c-2.383,3.414-6.044,5.722-10.152,6.4C345.352,256.076,344.48,256.14,343.607,256.133L343.607,256.133z M343.559,240.133
	l-0.36,0.632c0,0.168,0.04,0.336,0.4,0.368L343.559,240.133z"/>
<path style="fill:#F2F2F2;" d="M260.846,248.133h-152c-4.418,0-8-3.582-8-8s3.582-8,8-8h152c4.418,0,8,3.582,8,8
	S265.265,248.133,260.846,248.133z"/>
<path style="fill:#F8CF26;" d="M306.734,248.133h-21.28c-4.418,0-8-3.582-8-8s3.582-8,8-8h21.28c4.418,0,8,3.582,8,8
	S311.153,248.133,306.734,248.133z"/>
<path style="fill:#06AAE9;" d="M197.703,122.477l-24-24c-3.124-3.123-8.188-3.123-11.312,0l-24,24
	c-3.069,3.178-2.981,8.243,0.197,11.312c3.1,2.994,8.015,2.994,11.115,0l10.344-10.344v52.688c0,4.418,3.582,8,8,8s8-3.582,8-8
	v-52.688l10.344,10.344c3.178,3.069,8.243,2.981,11.312-0.197C200.697,130.492,200.697,125.577,197.703,122.477L197.703,122.477z"/>
<path style="fill:#29485A;" d="M325.703,146.477c-3.124-3.123-8.188-3.123-11.312,0l-10.344,10.344v-52.688c0-4.418-3.582-8-8-8
	s-8,3.582-8,8v52.688l-10.344-10.344c-3.178-3.07-8.242-2.982-11.312,0.196c-2.994,3.1-2.994,8.015,0,11.116l24,24
	c3.124,3.123,8.188,3.123,11.312,0l24-24C328.826,154.665,328.826,149.601,325.703,146.477z"/>
<g>
</g>
<g>
</g>
<g>
</g>
<g>
</g>
<g>
</g>
<g>
</g>
<g>
</g>
<g>
</g>
<g>
</g>
<g>
</g>
<g>
</g>
<g>
</g>
<g>
</g>
<g>
</g>
<g>
</g>
</svg>
