<?xml version="1.0" standalone="no"?><!DOCTYPE svg PUBLIC "-//W3C//DTD SVG 1.1//EN" "http://www.w3.org/Graphics/SVG/1.1/DTD/svg11.dtd" ><svg xmlns="http://www.w3.org/2000/svg"><metadata>Generated by Glyphter</metadata><defs><font id="berserk" horiz-adv-x="0"><font-face units-per-em="1024" ascent="1024" descent="0" font-family="berserk" font-weight="normal" /><missing-glyph horiz-adv-x="0" /><glyph unicode="&#x0041;" d="M574.378,0.5C574.378,0.5,450.603,0.5,450.603,0.5C425.882,0.5,405.408,19.027,402.972,43.58C402.972,43.58,390.283,119.62,390.283,119.62C366.441,127.033,343.277,136.66,321.146,148.301C321.146,148.301,257.457,102.818,257.457,102.818C249.842,96.507,239.082,92.65,228.049,92.65C215.256,92.65,203.244,97.639,194.19,106.693C194.19,106.693,106.676,194.208,106.676,194.208C89.198,211.687,87.845,239.268,103.496,258.387C103.496,258.387,148.301,321.146,148.301,321.146C136.625,343.311,127.014,366.493,119.62,390.268C119.62,390.268,42.462,403.143,42.462,403.143C19.044,405.392,0.5,425.867,0.5,450.622C0.5,450.622,0.5,574.378,0.5,574.378C0.5,599.1,19.027,619.573,43.58,622.028C43.58,622.028,119.62,634.753,119.62,634.753C127.048,658.627,136.675,681.791,148.284,703.856C148.284,703.856,102.818,767.545,102.818,767.545C87.826,785.734,89.18,813.313,106.676,830.777C106.676,830.777,194.207,918.324,194.207,918.324C211.078,935.159,239.96,936.563,258.336,921.538C258.336,921.538,321.179,876.714,321.179,876.714C343.227,888.338,366.391,897.949,390.283,905.378C390.283,905.378,403.124,982.519,403.124,982.519C405.41,1005.973,425.9,1024.5,450.622,1024.5C450.622,1024.5,574.395,1024.5,574.395,1024.5C599.083,1024.5,619.557,1005.989,622.045,981.454C622.045,981.454,634.753,905.378,634.753,905.378C658.611,897.951,681.775,888.338,703.839,876.714C703.839,876.714,767.545,922.197,767.545,922.197C775.143,928.492,785.905,932.333,796.934,932.333C809.728,932.333,821.74,927.359,830.777,918.324C830.777,918.324,918.29,830.777,918.29,830.777C935.753,813.365,937.155,785.803,921.538,766.664C921.538,766.664,876.716,703.854,876.716,703.854C888.357,681.79,897.951,658.626,905.38,634.751C905.38,634.751,982.538,621.874,982.538,621.874C1005.989,619.573,1024.5,599.1,1024.5,574.378C1024.5,574.378,1024.5,450.622,1024.5,450.622C1024.5,425.867,1005.973,405.41,981.385,403.026C981.385,403.026,905.378,390.318,905.378,390.318C897.951,366.426,888.338,343.244,876.714,321.181C876.714,321.181,922.197,257.507,922.197,257.507C937.172,239.251,935.767,211.653,918.272,194.225C918.272,194.225,830.775,106.728,830.775,106.728C813.973,89.909,785.021,88.422,766.596,103.531C766.596,103.531,703.837,148.321,703.837,148.321C681.704,136.662,658.542,127.034,634.751,119.639C634.751,119.639,621.857,42.464,621.857,42.464C619.557,19.027,599.083,0.5,574.378,0.5C574.378,0.5,574.378,0.5,574.378,0.5M319.926,185.153C322.769,185.153,325.628,184.444,328.2,182.988C353.987,168.536,381.431,157.15,409.842,149.114C416.137,147.337,420.84,142.075,421.923,135.611C421.923,135.611,436.491,48.029,436.491,48.029C437.338,39.874,443.48,34.341,450.603,34.341C450.603,34.341,574.378,34.341,574.378,34.341C581.501,34.341,587.627,39.857,588.321,46.913C588.321,46.913,603.092,135.611,603.092,135.611C604.158,142.058,608.878,147.32,615.174,149.097C643.515,157.118,670.961,168.506,696.765,182.973C702.467,186.187,709.541,185.797,714.871,181.974C714.871,181.974,787.136,130.349,787.136,130.349C794.43,124.478,801.859,125.697,806.798,130.62C806.798,130.62,894.328,218.15,894.328,218.15C899.472,223.275,899.877,231.348,895.309,236.947C895.309,236.947,842.991,310.096,842.991,310.096C839.166,315.427,838.795,322.481,841.992,328.217C856.442,353.904,867.813,381.348,875.834,409.809C877.611,416.12,882.872,420.824,889.352,421.906C889.352,421.906,976.951,436.51,976.951,436.51C985.108,437.356,990.641,443.464,990.641,450.588C990.641,450.588,990.641,574.345,990.641,574.345C990.641,581.468,985.125,587.61,978.069,588.304C978.069,588.304,889.37,603.059,889.37,603.059C882.89,604.141,877.643,608.845,875.851,615.156C867.83,643.617,856.442,671.063,842.009,696.713C838.811,702.45,839.184,709.506,843.008,714.835C843.008,714.835,894.666,787.136,894.666,787.136C899.895,793.6,899.472,801.655,894.362,806.764C894.362,806.764,806.833,894.33,806.833,894.33C801.911,899.254,793.432,899.676,788.085,895.294C788.085,895.294,714.887,842.959,714.887,842.959C709.556,839.134,702.484,838.763,696.783,841.96C671.081,856.393,643.634,867.781,615.191,875.836C608.897,877.596,604.193,882.875,603.109,889.339C603.109,889.339,588.524,976.919,588.524,976.919C587.627,985.245,581.62,990.658,574.378,990.658C574.378,990.658,450.603,990.658,450.603,990.658C443.345,990.658,437.355,985.26,436.644,978.085C436.644,978.085,421.923,889.406,421.923,889.406C420.857,882.942,416.137,877.68,409.842,875.903C381.348,867.831,353.902,856.46,328.269,842.027C322.516,838.828,315.46,839.201,310.146,843.026C310.146,843.026,237.81,894.685,237.81,894.685C230.534,900.506,223.073,899.338,218.149,894.38C218.149,894.38,130.62,806.85,130.62,806.85C125.51,801.74,125.12,793.685,129.69,788.118C129.69,788.118,181.991,714.902,181.991,714.902C185.816,709.556,186.187,702.501,182.99,696.78C168.573,671.128,157.185,643.684,149.114,615.206C147.354,608.912,142.075,604.207,135.611,603.124C135.611,603.124,48.031,588.522,48.031,588.522C39.738,587.642,34.342,581.635,34.342,574.375C34.342,574.375,34.342,450.618,34.342,450.618C34.342,443.377,39.723,437.387,46.88,436.694C46.88,436.694,135.594,421.94,135.594,421.94C142.058,420.872,147.32,416.152,149.097,409.842C157.1,381.533,168.488,354.071,182.973,328.217C186.172,322.498,185.799,315.459,181.974,310.128C181.974,310.128,130.349,237.861,130.349,237.861C125.07,231.363,125.475,223.31,130.602,218.182C130.602,218.182,218.132,130.668,218.132,130.668C223.106,125.711,231.551,125.271,236.88,129.705C236.88,129.705,310.079,182.006,310.079,182.006C313.022,184.089,316.474,185.153,319.926,185.153C319.926,185.153,319.926,185.153,319.926,185.153M512.517,309.96C400.807,309.96,309.927,400.824,309.927,512.517C309.927,624.226,400.807,715.106,512.517,715.106C624.228,715.106,715.09,624.226,715.09,512.517C715.073,400.842,624.21,309.96,512.517,309.96C512.517,309.96,512.517,309.96,512.517,309.96M512.517,681.266C419.472,681.266,343.768,605.562,343.768,512.517C343.768,419.487,419.47,343.803,512.517,343.803C605.547,343.803,681.249,419.487,681.249,512.517C681.232,605.564,605.545,681.266,512.517,681.266C512.517,681.266,512.517,681.266,512.517,681.266" class="icon-cogwheel-outline"/><glyph unicode="&#x0042;" d="M869.23,560.296C862.793,562.296,855.966,558.785,853.918,552.373C851.895,545.96,855.43,539.109,861.842,537.061C957.123,506.707,999.619,461.432,999.619,390.19C999.619,326.824,941.812,277.648,907.386,253.95C904.07,251.658,902.095,247.928,902.095,243.905C902.095,243.905,902.095,150.696,902.095,150.696C884.297,157.328,853.26,172.395,825.88,203.237C823.028,206.431,818.688,207.894,814.47,207.114C807.522,205.773,800.427,203.871,793.234,201.945C780.8,198.605,767.976,195.143,755.81,195.143C693.199,195.143,649.362,208.601,604.55,241.54C599.089,245.538,591.506,244.344,587.508,238.931C583.509,233.494,584.68,225.887,590.092,221.889C639.512,185.561,687.518,170.762,755.81,170.762C771.194,170.762,785.627,174.638,799.573,178.393C803.913,179.588,808.229,180.758,812.495,181.758C858.063,133.63,909.605,122.683,911.848,122.244C912.652,122.073,913.457,122,914.286,122C917.065,122,919.82,122.951,921.99,124.755C924.843,127.071,926.476,130.533,926.476,134.19C926.476,134.19,926.476,237.541,926.476,237.541C989.428,282.427,1024,336.455,1024,390.19C1024,472.622,974.824,526.675,869.23,560.296C869.23,560.296,869.23,560.296,869.23,560.296M804.571,573.048C804.571,760.683,633.466,902.19,406.601,902.19C178.59,902.19,0,757.587,0,572.999C0,462.334,78.287,383.047,146.286,335.065C146.286,335.065,146.286,173.273,146.286,173.273C146.286,169.128,148.382,165.301,151.845,163.033C153.868,161.741,156.16,161.083,158.476,161.083C160.158,161.083,161.865,161.448,163.474,162.155C167.034,163.74,250.246,201.555,321.438,279.403C352.28,273.674,387.17,268.164,418.816,268.164C649.533,268.164,804.571,390.702,804.571,573.048C804.571,573.048,804.571,573.048,804.571,573.048M418.792,292.545C386.853,292.545,350.549,298.664,319.244,304.638C315.026,305.394,310.686,303.955,307.834,300.761C257.853,244.392,199.119,208.577,170.667,193.144C170.667,193.144,170.667,341.429,170.667,341.429C170.667,345.451,168.692,349.182,165.376,351.474C101.059,395.725,24.381,470.038,24.381,572.999C24.381,743.934,192.268,877.81,406.601,877.81C619.593,877.81,780.19,746.786,780.19,573.048C780.19,405.258,634.953,292.545,418.792,292.545C418.792,292.545,418.792,292.545,418.792,292.545M402.286,621.81C375.394,621.81,353.524,599.94,353.524,573.048C353.524,546.155,375.394,524.286,402.286,524.286C429.178,524.286,451.048,546.155,451.048,573.048C451.048,599.94,429.178,621.81,402.286,621.81C402.286,621.81,402.286,621.81,402.286,621.81M402.286,548.667C388.852,548.667,377.905,559.589,377.905,573.048C377.905,586.506,388.852,597.429,402.286,597.429C415.72,597.429,426.667,586.506,426.667,573.048C426.667,559.589,415.72,548.667,402.286,548.667C402.286,548.667,402.286,548.667,402.286,548.667M572.952,621.81C546.06,621.81,524.19,599.94,524.19,573.048C524.19,546.155,546.06,524.286,572.952,524.286C599.845,524.286,621.714,546.155,621.714,573.048C621.714,599.94,599.845,621.81,572.952,621.81C572.952,621.81,572.952,621.81,572.952,621.81M572.952,548.667C559.518,548.667,548.571,559.589,548.571,573.048C548.571,586.506,559.518,597.429,572.952,597.429C586.386,597.429,597.333,586.506,597.333,573.048C597.333,559.589,586.386,548.667,572.952,548.667C572.952,548.667,572.952,548.667,572.952,548.667M231.619,619.493C204.727,619.493,182.857,597.624,182.857,570.731C182.857,543.839,204.727,521.97,231.619,521.97C258.511,521.97,280.381,543.839,280.381,570.731C280.381,597.624,258.511,619.493,231.619,619.493C231.619,619.493,231.619,619.493,231.619,619.493M231.619,546.35C218.185,546.35,207.238,557.273,207.238,570.731C207.238,584.19,218.185,595.112,231.619,595.112C245.053,595.112,256,584.19,256,570.731C256,557.273,245.053,546.35,231.619,546.35C231.619,546.35,231.619,546.35,231.619,546.35" /><glyph unicode="&#x0043;" d="M512,1024C229.683,1024,0,794.317,0,512C0,229.683,229.683,0,512,0C794.317,0,1024,229.683,1024,512C1024,794.317,794.317,1024,512,1024C512,1024,512,1024,512,1024M512,108.945C289.757,108.945,108.934,289.747,108.934,512C108.934,734.253,289.757,915.055,512,915.055C734.243,915.055,915.066,734.253,915.066,512C915.066,289.747,734.243,108.945,512,108.945C512,108.945,512,108.945,512,108.945M778.834,527.809C778.834,527.809,548.74,527.809,548.74,527.809C548.74,527.809,548.74,804.466,548.74,804.466C548.74,827.747,529.864,846.623,506.583,846.623C483.301,846.623,464.426,827.747,464.426,804.466C464.426,804.466,464.426,485.652,464.426,485.652C464.426,462.37,483.301,443.494,506.583,443.494C506.583,443.494,778.834,443.494,778.834,443.494C802.116,443.494,820.992,462.37,820.992,485.652C820.992,508.933,802.116,527.809,778.834,527.809C778.834,527.809,778.834,527.809,778.834,527.809" class="icon-clock-circular-outline"/><glyph unicode="&#x0044;" d="M1003.6,843.183C1003.6,843.183,20.398,843.183,20.398,843.183C9.134,843.183,0,834.051,0,822.785C0,822.785,0,285.33,0,285.33C0,227.802,46.8,181,104.33,181C104.33,181,919.67,181,919.67,181C977.198,181,1024,227.802,1024,285.33C1024,285.33,1024,822.785,1024,822.785C1023.998,834.051,1014.864,843.183,1003.6,843.183C1003.6,843.183,1003.6,843.183,1003.6,843.183M983.202,285.332C983.202,250.3,954.702,221.8,919.67,221.8C919.67,221.8,104.33,221.8,104.33,221.8C69.298,221.8,40.798,250.302,40.798,285.332C40.798,285.332,40.798,778.281,40.798,778.281C40.798,778.281,499.077,403.114,499.077,403.114C502.837,400.038,507.417,398.5,511.999,398.5C516.573,398.5,521.147,400.034,524.903,403.1C524.903,403.1,879.514,692.757,879.514,692.757C888.238,699.885,889.534,712.733,882.408,721.459C875.278,730.185,862.432,731.481,853.706,724.351C853.706,724.351,512.013,445.247,512.013,445.247C512.013,445.247,75.758,802.387,75.758,802.387C75.758,802.387,983.202,802.387,983.202,802.387C983.202,802.387,983.202,285.332,983.202,285.332C983.202,285.332,983.202,285.332,983.202,285.332M939.844,768.375C932.718,777.101,919.864,778.397,911.144,771.269C911.144,771.269,905.024,766.271,905.024,766.271C896.298,759.143,895.002,746.295,902.128,737.569C906.158,732.633,912.024,730.075,917.938,730.075C922.476,730.075,927.042,731.583,930.828,734.675C930.828,734.675,936.948,739.673,936.948,739.673C945.674,746.799,946.97,759.649,939.844,768.375C939.844,768.375,939.844,768.375,939.844,768.375" class="icon-letter"/><glyph unicode="&#x0045;" d="M705.574,356.047C771.038,426.915,811.878,521.809,811.878,626.311C811.878,845.526,633.504,1024.5,413.689,1024.5C193.874,1024.5,15.5,845.526,15.5,626.311C15.5,407.096,193.874,228.122,413.689,228.122C503.177,228.122,585.456,257.55,652.121,307.399C652.121,307.399,948.21,11.311,948.21,11.311C955.417,4.104,964.426,0.5,973.435,0.5C982.444,0.5,992.052,4.104,998.659,11.311C1012.474,25.125,1012.474,47.946,998.659,62.36C998.659,62.36,705.574,356.047,705.574,356.047C705.574,356.047,705.574,356.047,705.574,356.047M87.57,626.311C87.57,805.887,233.513,952.43,413.689,952.43C593.265,952.43,739.808,806.487,739.808,626.311C739.808,446.135,593.865,300.192,413.689,300.192C233.513,300.192,87.57,446.735,87.57,626.311C87.57,626.311,87.57,626.311,87.57,626.311" class="icon-magnifying-glass-browser"/><glyph unicode="&#x0046;" d="M823.505,0.5C780.9,0.5,729.444,11.177,672.855,32.531C548.794,79.304,413.815,171.747,292.785,292.777C171.721,413.841,79.278,548.854,32.471,672.915C-10.065,785.714,-10.168,878.294,32.23,920.658C38.326,926.754,44.526,933.298,50.932,940.049C89.611,980.725,133.318,1026.499,191.25,1024.433C231.168,1022.779,269.847,997.981,309.455,948.694C426.49,803.141,373.725,751.271,312.659,691.135C312.659,691.135,301.878,680.458,301.878,680.458C291.89,670.47,273.016,624.214,448.602,448.628C505.914,391.316,554.787,349.365,593.845,323.981C618.436,308,662.419,283.822,680.467,301.869C680.467,301.869,691.316,312.822,691.316,312.822C751.383,373.75,803.253,426.344,948.703,309.412C997.99,269.804,1022.754,231.159,1024.407,191.172C1026.783,133.275,980.665,89.464,939.955,50.82C933.238,44.414,926.694,38.214,920.598,32.152C899.554,11.074,865.904,0.5,823.505,0.5C823.505,0.5,823.505,0.5,823.505,0.5M187.117,990.059C145.958,990.059,108.795,950.933,75.903,916.318C69.29,909.361,62.884,902.61,56.581,896.307C24.997,864.758,28.2,781.856,64.709,685.039C109.828,565.456,199.481,434.782,317.17,317.093C434.825,199.473,565.43,109.82,685.048,64.735C781.865,28.157,864.767,25.057,896.282,56.572C902.585,62.875,909.335,69.281,916.293,75.86C951.665,109.475,991.79,147.568,990.033,189.829C988.828,218.864,967.68,250.103,927.176,282.651C805.974,380.122,772.083,345.714,715.873,288.712C715.873,288.712,704.852,277.588,704.852,277.588C677.987,250.688,634.349,256.647,575.108,295.153C534.019,321.88,483.251,365.346,424.286,424.346C278.561,570.036,231.96,659.207,277.562,704.912C277.562,704.912,288.549,715.761,288.549,715.761C345.689,771.971,380.165,805.897,282.659,927.168C250.043,967.637,218.838,988.785,189.803,990.025C188.908,990.059,188.012,990.059,187.117,990.059C187.117,990.059,187.117,990.059,187.117,990.059" class="icon-phone-call"/><glyph unicode="&#x0047;" d="M778.109,526.097C778.109,526.097,402.642,782.097,402.642,782.097C397.402,785.647,390.644,786.039,385.046,783.087C379.465,780.134,375.967,774.332,375.967,768C375.967,768,375.967,256,375.967,256C375.967,249.668,379.465,243.866,385.063,240.913C387.555,239.582,390.303,238.933,393.033,238.933C396.395,238.933,399.758,239.94,402.642,241.903C402.642,241.903,778.109,497.903,778.109,497.903C782.768,501.077,785.567,506.351,785.567,512C785.567,517.649,782.768,522.923,778.109,526.097C778.109,526.097,778.109,526.097,778.109,526.097M410.1,288.307C410.1,288.307,410.1,735.693,410.1,735.693C410.1,735.693,738.207,512,738.207,512C738.207,512,410.1,288.307,410.1,288.307C410.1,288.307,410.1,288.307,410.1,288.307M512.5,1024C230.183,1024,0.5,794.317,0.5,512C0.5,229.683,230.183,0,512.5,0C794.817,0,1024.5,229.683,1024.5,512C1024.5,794.317,794.817,1024,512.5,1024C512.5,1024,512.5,1024,512.5,1024M512.5,34.133C249.008,34.133,34.633,248.508,34.633,512C34.633,775.492,249.008,989.867,512.5,989.867C775.992,989.867,990.367,775.492,990.367,512C990.367,248.508,775.992,34.133,512.5,34.133C512.5,34.133,512.5,34.133,512.5,34.133" class="icon-play-button"/><glyph unicode="&#x0048;" d="M833.123,373.683C773.84,373.683,721.548,345.439,687.383,302.187C687.383,302.187,370.503,464.24,370.503,464.24C374.651,479.712,377.633,495.699,377.633,512.524C377.633,530.84,374.092,548.084,369.15,564.863C369.15,564.863,684.633,726.169,684.633,726.169C718.609,680.959,772.254,651.41,833.169,651.41C936.357,651.41,1019.829,734.882,1019.829,837.978C1019.831,940.98,936.357,1024.5,833.171,1024.5C730.216,1024.5,646.651,940.98,646.651,837.98C646.651,821.107,649.635,805.075,653.829,789.556C653.829,789.556,336.993,627.503,336.993,627.503C302.784,670.8,250.397,699.137,191.02,699.137C87.925,699.137,4.5,615.572,4.5,512.524C4.5,409.476,87.927,325.956,191.02,325.956C252.028,325.956,305.627,355.598,339.742,400.853C339.742,400.853,655.084,239.548,655.084,239.548C650.143,222.816,646.556,205.431,646.556,187.068C646.556,84.02,730.121,0.5,833.076,0.5C936.264,0.5,1019.736,84.02,1019.736,187.068C1019.784,290.208,936.312,373.683,833.123,373.683C833.123,373.683,833.123,373.683,833.123,373.683" class="icon-share"/><glyph unicode="&#x0049;" d="M946.588,695.827C946.588,695.827,893.506,695.827,893.506,695.827C893.1,696.279,892.72,696.745,892.286,697.177C892.286,697.177,602.895,986.57,602.895,986.57C589.857,999.61,568.713,999.61,555.673,986.57C542.633,973.53,542.633,952.388,555.673,939.348C555.673,939.348,799.192,695.829,799.192,695.829C799.192,695.829,225.808,695.829,225.808,695.829C225.808,695.829,469.329,939.348,469.329,939.348C482.369,952.388,482.369,973.53,469.329,986.57C456.291,999.61,435.147,999.61,422.107,986.57C422.107,986.57,132.714,697.177,132.714,697.177C132.28,696.743,131.9,696.277,131.494,695.827C131.494,695.827,78.414,695.827,78.414,695.827C35.452,695.827,0.5,660.875,0.5,617.915C0.5,617.915,0.5,573.393,0.5,573.393C0.5,532.471,32.21,498.819,72.348,495.713C72.348,495.713,136.348,111.706,136.348,111.706C144.434,63.204,185.988,28,235.16,28C235.16,28,799.622,28,799.622,28C849.152,28,891.784,64.976,898.79,114.008C898.79,114.008,953.326,495.769,953.326,495.769C993.146,499.197,1024.5,532.703,1024.5,573.393C1024.5,573.393,1024.5,617.915,1024.5,617.915C1024.502,660.875,989.55,695.827,946.588,695.827C946.588,695.827,946.588,695.827,946.588,695.827M957.72,573.393C957.72,567.255,952.726,562.263,946.59,562.263C936.338,562.263,627.305,562.263,612.677,562.263C594.237,562.263,579.285,547.313,579.285,528.871C579.285,510.431,594.235,495.479,612.677,495.479C612.677,495.479,885.83,495.479,885.83,495.479C885.83,495.479,832.682,123.45,832.682,123.45C830.346,107.106,816.136,94.782,799.624,94.782C799.624,94.782,235.16,94.782,235.16,94.782C218.77,94.782,204.918,106.516,202.222,122.684C202.222,122.684,140.092,495.479,140.092,495.479C140.092,495.479,412.327,495.479,412.327,495.479C430.767,495.479,445.719,510.429,445.719,528.871C445.719,547.311,430.769,562.263,412.327,562.263C397.677,562.263,88.622,562.263,78.414,562.263C72.276,562.263,67.284,567.257,67.284,573.393C67.284,573.393,67.284,617.915,67.284,617.915C67.284,624.053,72.278,629.045,78.414,629.045C78.414,629.045,946.59,629.045,946.59,629.045C952.728,629.045,957.72,624.051,957.72,617.915C957.72,617.915,957.72,573.393,957.72,573.393C957.72,573.393,957.72,573.393,957.72,573.393M312.153,428.697C293.713,428.697,278.761,413.747,278.761,395.305C278.761,395.305,278.761,194.956,278.761,194.956C278.761,176.516,293.711,161.564,312.153,161.564C330.595,161.564,345.545,176.514,345.545,194.956C345.545,194.956,345.545,395.307,345.545,395.307C345.545,413.747,330.595,428.697,312.153,428.697C312.153,428.697,312.153,428.697,312.153,428.697M512.501,428.697C494.061,428.697,479.109,413.747,479.109,395.305C479.109,395.305,479.109,194.956,479.109,194.956C479.109,176.516,494.059,161.564,512.501,161.564C530.941,161.564,545.893,176.514,545.893,194.956C545.893,194.956,545.893,395.307,545.893,395.307C545.893,413.747,530.941,428.697,512.501,428.697C512.501,428.697,512.501,428.697,512.501,428.697M712.849,428.697C694.409,428.697,679.457,413.747,679.457,395.305C679.457,395.305,679.457,194.956,679.457,194.956C679.457,176.516,694.407,161.564,712.849,161.564C731.289,161.564,746.241,176.514,746.241,194.956C746.241,194.956,746.241,395.307,746.241,395.307C746.241,413.747,731.289,428.697,712.849,428.697C712.849,428.697,712.849,428.697,712.849,428.697" class="icon-shopping-basket"/><glyph unicode="&#x004a;" d="M1019.734,845.132C1015.468,849.398,1011.2,853.666,1002.668,853.666C1002.668,853.666,192,853.666,192,853.666C192,853.666,170.666,964.598,170.666,964.598C170.666,973.132,157.866,981.664,149.332,981.664C149.332,981.664,21.332,981.664,21.332,981.664C8.534,981.666,0,973.132,0,960.332C0,947.532,8.534,938.998,21.334,938.998C21.334,938.998,132.268,938.998,132.268,938.998C132.268,938.998,234.668,418.464,234.668,418.464C247.468,350.198,311.468,298.998,379.734,298.998C379.734,298.998,870.4,298.998,870.4,298.998C883.2,298.998,891.734,307.532,891.734,320.332C891.734,333.132,883.2,341.666,870.4,341.666C870.4,341.666,384,341.666,384,341.666C349.866,341.666,315.734,358.732,298.666,388.6C298.666,388.6,921.6,473.932,921.6,473.932C930.134,473.932,938.666,482.466,938.666,490.998C938.666,490.998,1024,832.332,1024,832.332C1024,832.332,1024,840.866,1019.734,845.132C1019.734,845.132,1019.734,845.132,1019.734,845.132M900.266,512.332C900.266,512.332,277.332,431.266,277.332,431.266C277.332,431.266,200.532,815.266,200.532,815.266C200.532,815.266,972.8,815.266,972.8,815.266C972.8,815.266,900.266,512.332,900.266,512.332C900.266,512.332,900.266,512.332,900.266,512.332M362.666,256.332C302.934,256.332,256,209.398,256,149.666C256,89.932,302.934,43,362.666,43C422.4,43,469.332,89.934,469.332,149.666C469.334,209.398,422.4,256.332,362.666,256.332C362.666,256.332,362.666,256.332,362.666,256.332M362.666,85.666C328.532,85.666,298.666,115.534,298.666,149.666C298.666,183.798,328.532,213.666,362.666,213.666C396.8,213.666,426.666,183.798,426.666,149.666C426.666,115.534,396.8,85.666,362.666,85.666C362.666,85.666,362.666,85.666,362.666,85.666M789.334,256.332C729.6,256.332,682.668,209.398,682.668,149.666C682.668,89.932,729.602,43,789.334,43C849.068,43,896,89.934,896,149.666C896,209.398,849.066,256.332,789.334,256.332C789.334,256.332,789.334,256.332,789.334,256.332M789.334,85.666C755.2,85.666,725.334,115.534,725.334,149.666C725.334,183.798,755.2,213.666,789.334,213.666C823.468,213.666,853.334,183.798,853.334,149.666C853.334,115.534,823.466,85.666,789.334,85.666C789.334,85.666,789.334,85.666,789.334,85.666" class="icon-shopping-cart (1)"/><glyph unicode="&#x004b;" d="M65.067,489.075C65.067,489.075,674.867,489.075,674.867,489.075C674.867,489.075,517.614,328.933,517.614,328.933C505.678,317.012,505.678,296.196,517.599,284.259C523.575,278.283,531.385,274.57,539.225,274.57C547.05,274.57,554.86,277.183,560.836,283.159C560.836,283.159,756.695,478.804,756.695,478.804C762.426,484.535,765.651,492.223,765.651,500.323C765.651,508.424,762.426,516.157,756.695,521.888C756.695,521.888,747.403,531.166,747.403,531.166C745.294,534.222,742.634,536.882,739.562,538.976C739.562,538.976,560.851,717.686,560.851,717.686C548.915,729.623,529.551,729.623,517.629,717.686C505.693,705.75,505.693,689.32,517.629,677.368C517.629,677.368,647.723,550.209,647.723,550.209C647.723,550.209,65.067,550.209,65.067,550.209C48.194,550.209,34.5,536.515,34.5,519.642C34.5,502.769,48.194,489.075,65.067,489.075C65.067,489.075,65.067,489.075,65.067,489.075M989.724,117.974C989.724,117.974,989.724,878.179,989.724,878.179C989.724,951.449,929.996,1024,856.038,1024C856.038,1024,458.65,1024,458.65,1024C386.145,1024,317.246,954.062,317.246,878.179C317.246,878.179,317.246,697.222,317.246,697.222C317.246,680.349,330.94,666.655,347.813,666.655C364.687,666.655,378.381,680.349,378.381,697.222C378.381,697.222,378.381,878.179,378.381,878.179C378.381,920.194,419.967,962.866,458.65,962.866C458.65,962.866,856.038,962.866,856.038,962.866C896.494,962.866,928.59,917.978,928.59,878.179C928.59,878.179,928.59,117.974,928.59,117.974C928.59,77.274,894.92,61.134,856.038,61.134C856.038,61.134,458.65,61.134,458.65,61.134C422.504,61.134,378.381,74.691,378.381,117.974C378.381,117.974,378.381,299.849,378.381,299.849C378.381,316.722,364.687,330.416,347.813,330.416C330.94,330.416,317.246,316.722,317.246,299.849C317.246,299.849,317.246,117.974,317.246,117.974C317.246,46.248,381.147,0,458.65,0C458.65,0,856.038,0,856.038,0C935.284,0,989.724,48.556,989.724,117.974C989.724,117.974,989.724,117.974,989.724,117.974" class="icon-sign-in"/><glyph unicode="&#x004c;" d="M946.198,689.74C946.198,689.74,696.42,707.685,696.42,707.685C691.204,708.103,686.613,711.233,684.735,716.241C684.735,716.241,589.581,947.864,589.581,947.864C576.435,979.791,546.804,999.614,512.165,999.614C477.526,999.614,448.103,979.791,434.748,947.656C434.748,947.656,339.386,715.823,339.386,715.823C337.3,711.024,332.917,707.685,327.701,707.268C327.701,707.268,78.34,689.322,78.34,689.322C44.536,687.444,15.739,665.325,4.68,632.773C-6.588,599.803,2.802,565.164,29.511,542.419C29.511,542.419,222.531,382.995,222.531,382.995C226.496,379.656,228.374,374.231,227.122,369.223C227.122,369.223,168.277,128.418,168.277,128.418C161.391,103.377,166.19,77.502,181.423,57.261C197.073,36.812,221.488,24.5,247.154,24.5C263.013,24.5,278.455,29.299,291.184,37.855C291.184,37.855,502.149,169.108,502.149,169.108C506.531,171.821,512.165,171.821,516.547,169.108C516.547,169.108,729.599,38.272,729.599,38.272C742.954,29.299,758.395,24.5,774.046,24.5C798.043,24.5,821.831,35.977,837.273,55.383C853.34,75.415,859.183,101.499,853.34,127.583C853.34,127.583,794.287,369.014,794.287,369.014C793.035,374.231,794.913,379.656,798.877,382.995C798.877,382.995,994.818,542.836,994.818,542.836C1021.111,565.372,1030.501,600.012,1019.441,632.981C1008.591,665.534,979.585,687.862,946.198,689.74C946.198,689.74,946.198,689.74,946.198,689.74M962.266,582.275C962.266,582.275,766.742,422.642,766.742,422.642C747.545,406.992,738.78,381.117,744.832,356.911C744.832,356.911,803.885,115.897,803.885,115.897C807.015,101.708,801.381,91.9,797.625,87.31C791.783,80.006,783.018,75.415,774.254,75.415C768.829,75.415,763.403,77.085,757.561,81.05C757.561,81.05,543.674,212.512,543.674,212.512C533.449,218.772,521.764,222.11,509.661,222.11C497.558,222.11,485.664,218.772,475.439,212.303C475.439,212.303,263.639,80.632,263.639,80.632C250.076,71.659,231.921,75.624,222.322,88.144C218.358,93.361,214.184,102.334,217.94,115.48C217.94,115.48,276.994,357.12,276.994,357.12C282.837,381.117,274.281,406.783,255.292,422.433C255.292,422.433,62.69,581.649,62.69,581.649C47.457,594.795,51.631,611.697,53.3,616.496C54.969,621.296,61.855,637.363,81.888,638.407C81.888,638.407,331.665,656.352,331.665,656.352C356.289,658.23,377.573,673.463,386.963,696.417C386.963,696.417,482.325,928.249,482.325,928.249C490.046,947.03,507.366,948.49,512.374,948.49C517.382,948.49,534.701,947.03,542.422,928.249C542.422,928.249,637.784,696.417,637.784,696.417C647.174,673.463,668.459,658.23,693.082,656.352C693.082,656.352,943.277,638.198,943.277,638.198C962.892,637.155,969.778,621.087,971.447,616.288C972.699,611.906,976.873,595.003,962.266,582.275C962.266,582.275,962.266,582.275,962.266,582.275" class="icon-star"/><glyph unicode="&#x004d;" d="M1007.381,223.846C1007.381,238.08,995.868,249.592,981.634,249.592C981.634,249.592,105.206,249.592,105.206,249.592C105.206,249.592,259.266,403.653,259.266,403.653C269.314,413.7,269.314,429.818,259.266,439.865C249.219,449.913,233.101,449.913,223.054,439.865C223.054,439.865,25.245,242.057,25.245,242.057C15.197,232.009,15.197,215.892,25.245,205.844C25.245,205.844,223.054,8.036,223.054,8.036C228.077,3.012,234.566,0.5,241.265,0.5C247.963,0.5,254.452,3.012,259.475,8.036C269.523,18.083,269.523,34.201,259.475,44.248C259.475,44.248,105.415,198.309,105.415,198.309C105.415,198.309,982.053,198.309,982.053,198.309C995.868,198.309,1007.381,209.612,1007.381,223.846C1007.381,223.846,1007.381,223.846,1007.381,223.846M999.845,819.365C999.845,819.365,802.036,1016.964,802.036,1016.964C791.989,1027.012,775.871,1027.012,765.824,1016.964C755.776,1006.917,755.776,990.799,765.824,980.752C765.824,980.752,919.884,826.691,919.884,826.691C919.884,826.691,43.247,826.691,43.247,826.691C29.013,826.691,17.5,815.179,17.5,800.945C17.5,786.711,29.013,775.198,43.247,775.198C43.247,775.198,919.884,775.198,919.884,775.198C919.884,775.198,765.824,621.556,765.824,621.556C755.776,611.509,755.776,595.391,765.824,585.344C770.848,580.32,777.336,577.808,784.035,577.808C790.733,577.808,797.222,580.32,802.246,585.344C802.246,585.344,1000.054,783.152,1000.054,783.152C1009.892,792.991,1009.892,809.318,999.845,819.365C999.845,819.365,999.845,819.365,999.845,819.365" class="icon-transfer"/><glyph unicode="&#x004e;" d="M512.1,16.34C496.195,16.34,483.276,29.227,483.276,45.164C483.276,45.164,483.276,995.676,483.276,995.676C483.276,1011.581,496.195,1024.5,512.1,1024.5C528.005,1024.5,540.924,1011.581,540.924,995.676C540.924,995.676,540.924,45.164,540.924,45.164C540.892,29.259,528.005,16.34,512.1,16.34C512.1,16.34,512.1,16.34,512.1,16.34M512.1,0.5C504.277,0.5,496.812,3.681,491.391,9.297C491.391,9.297,16.086,500.409,16.086,500.409C5.05,511.835,5.342,530.077,16.768,541.146C28.226,552.214,46.404,551.89,57.505,540.464C57.505,540.464,512.068,70.742,512.068,70.742C512.068,70.742,966.631,540.464,966.631,540.464C977.732,551.857,995.941,552.182,1007.367,541.146C1018.793,530.077,1019.085,511.835,1008.049,500.409C1008.049,500.409,532.777,9.297,532.777,9.297C527.324,3.681,519.89,0.5,512.1,0.5C512.1,0.5,512.1,0.5,512.1,0.5" class="icon-download-arrow"/><glyph unicode="&#x004f;" d="M512.26,0.5C496.349,0.5,483.426,13.423,483.426,29.334C483.426,29.334,483.426,980.194,483.426,980.194C483.426,996.072,496.317,1008.995,512.26,1008.995C528.17,1008.995,541.061,996.105,541.061,980.194C541.061,980.194,541.061,29.334,541.061,29.334C541.061,13.423,528.17,0.5,512.26,0.5C512.26,0.5,512.26,0.5,512.26,0.5M987.69,475.963C980.157,475.963,972.656,478.885,966.974,484.73C966.974,484.73,512.26,954.608,512.26,954.608C512.26,954.608,57.546,484.697,57.546,484.697C46.473,473.268,28.225,472.976,16.795,484.048C5.333,495.088,5.041,513.336,16.113,524.766C16.113,524.766,491.544,1016.074,491.544,1016.074C502.389,1027.309,522.066,1027.309,532.943,1016.074C532.943,1016.074,1008.374,524.798,1008.374,524.798C1019.446,513.369,1019.121,495.12,1007.692,484.08C1002.107,478.625,994.898,475.963,987.69,475.963C987.69,475.963,987.69,475.963,987.69,475.963" class="icon-up-arrow"/><glyph unicode="&#x0050;" d="M724.783,10.593C731.845,3.531,740.672,0,750.383,0C760.093,0,768.921,3.531,775.983,10.593C790.107,24.717,790.107,47.669,775.983,61.793C775.983,61.793,325.776,512,325.776,512C325.776,512,775.983,962.207,775.983,962.207C790.107,976.331,790.107,999.283,775.983,1013.407C761.859,1027.531,738.907,1027.531,724.783,1013.407C724.783,1013.407,248.093,537.6,248.093,537.6C233.969,523.476,233.969,500.524,248.093,486.4C248.093,486.4,724.783,10.593,724.783,10.593C724.783,10.593,724.783,10.593,724.783,10.593" class="icon-left-arrow"/><glyph unicode="&#x0051;" d="M785.61,566.365C785.61,566.365,353.94,998.035,353.94,998.035C337.712,1014.263,314.992,1024,295.518,1024C276.044,1024,256.571,1014.263,240.342,998.035C207.886,965.578,207.886,920.139,240.342,887.683C240.342,887.683,616.837,511.189,616.837,511.189C616.837,511.189,240.342,134.694,240.342,134.694C207.886,102.238,207.886,56.799,240.342,24.342C272.799,-8.114,321.483,-8.114,353.94,24.342C353.94,24.342,785.61,456.013,785.61,456.013C801.838,472.241,808.33,491.715,808.33,511.189C808.33,533.908,801.838,550.136,785.61,566.365C785.61,566.365,785.61,566.365,785.61,566.365" class="icon-right-arrow (1)"/><glyph unicode="&#x0052;" d="M334.034,861.551C348.47,875.987,371.197,875.987,385.633,861.551C399.581,847.603,399.581,824.388,385.633,810.473C385.633,810.473,123.998,548.838,123.998,548.838C123.998,548.838,987.357,548.838,987.357,548.838C1007.483,548.838,1024,532.841,1024,512.715C1024,492.59,1007.483,476.073,987.357,476.073C987.357,476.073,123.998,476.073,123.998,476.073C123.998,476.073,385.633,214.926,385.633,214.926C399.581,200.49,399.581,177.243,385.633,163.327C371.197,148.891,348.47,148.891,334.034,163.327C334.034,163.327,10.461,486.9,10.461,486.9C-3.487,500.848,-3.487,524.063,10.461,537.978C10.461,537.978,334.034,861.551,334.034,861.551C334.034,861.551,334.034,861.551,334.034,861.551" class="icon-left-arrow (1)"/><glyph unicode="&#x0053;" d="M689.55,861.191C675.599,875.629,652.381,875.629,637.943,861.191C623.993,847.24,623.993,824.022,637.943,810.105C637.943,810.105,899.618,548.43,899.618,548.43C899.618,548.43,36.128,548.43,36.128,548.43C15.999,548.398,0,532.399,0,512.27C0,492.141,15.999,475.622,36.128,475.622C36.128,475.622,899.618,475.622,899.618,475.622C899.618,475.622,637.943,214.435,637.943,214.435C623.993,199.997,623.993,176.746,637.943,162.829C652.381,148.39,675.632,148.39,689.55,162.829C689.55,162.829,1013.171,486.45,1013.171,486.45C1027.61,500.401,1027.61,523.619,1013.171,537.536C1013.171,537.536,689.55,861.191,689.55,861.191C689.55,861.191,689.55,861.191,689.55,861.191" class="icon-right-arrow (2)"/><glyph unicode="&#x0054;" d="M36.681,475.559C16.522,475.559,0.5,492.102,0.5,512.261C0.5,532.419,16.522,548.441,36.681,548.441C36.681,548.441,475.505,548.441,475.505,548.441C475.505,548.441,475.505,987.298,475.505,987.298C475.538,1007.457,492.081,1024,512.239,1024C532.398,1024,548.42,1007.457,548.42,987.298C548.42,987.298,548.42,548.441,548.42,548.441C548.42,548.441,987.245,548.441,987.245,548.441C1007.403,548.441,1023.946,532.419,1023.946,512.261C1023.946,492.102,1007.403,475.559,987.245,475.559C987.245,475.559,548.42,475.559,548.42,475.559C548.42,475.559,548.42,36.702,548.42,36.702C548.42,16.543,532.398,0,512.239,0C492.081,0,475.538,16.543,475.538,36.702C475.538,36.702,475.538,475.559,475.538,475.559C475.538,475.559,36.681,475.559,36.681,475.559C36.681,475.559,36.681,475.559,36.681,475.559" class="icon-plus-symbol"/><glyph unicode="&#x0055;" d="M991.596,91.298C991.596,91.298,747.883,344.773,747.883,344.773C810.546,419.264,844.879,512.989,844.879,610.56C844.879,838.527,659.407,1024,431.44,1024C203.473,1024,18,838.527,18,610.56C18,382.593,203.473,197.121,431.44,197.121C517.022,197.121,598.577,222.934,668.305,271.935C668.305,271.935,913.87,16.538,913.87,16.538C924.134,5.878,937.939,0,952.733,0C966.736,0,980.02,5.339,990.104,15.046C1011.531,35.664,1012.214,69.853,991.596,91.298C991.596,91.298,991.596,91.298,991.596,91.298M431.44,916.146C599.943,916.146,737.025,779.064,737.025,610.56C737.025,442.057,599.943,304.975,431.44,304.975C262.936,304.975,125.854,442.057,125.854,610.56C125.854,779.064,262.936,916.146,431.44,916.146C431.44,916.146,431.44,916.146,431.44,916.146" class="icon-search"/></font>
</defs>
</svg>
