<svg xmlns="http://www.w3.org/2000/svg" width="79" height="79" viewBox="0 0 79 79">
  <g id="fullyresponsive" transform="translate(18213 15392)">
    <path id="Path_11645" data-name="Path 11645" d="M39.5,0A39.5,39.5,0,1,1,0,39.5,39.5,39.5,0,0,1,39.5,0Z" transform="translate(-18213 -15392)" fill="#9df5d9" opacity="0.45"/>
    <path id="Path_11646" data-name="Path 11646" d="M14.013,10.262H58.675a4.06,4.06,0,0,1,4.06,4.06V58.984a4.06,4.06,0,0,1-4.06,4.06H14.013a4.06,4.06,0,0,1-4.06-4.06V14.322A4.06,4.06,0,0,1,14.013,10.262Zm0,0" transform="translate(-18205.953 -15393.262)" fill="#345a99"/>
    <g id="responsive_1_" data-name="responsive (1)" transform="translate(-18189.73 -15419.545)">
      <g id="Group_8136" data-name="Group 8136" transform="translate(19.583 69.558)">
        <g id="Group_8135" data-name="Group 8135" transform="translate(0 0)">
          <circle id="Ellipse_1762" data-name="Ellipse 1762" cx="0.851" cy="0.851" r="0.851" fill="#fff"/>
        </g>
      </g>
      <g id="Group_8138" data-name="Group 8138" transform="translate(5.109 75.288)">
        <g id="Group_8137" data-name="Group 8137">
          <circle id="Ellipse_1763" data-name="Ellipse 1763" cx="0.851" cy="0.851" r="0.851" fill="#fff"/>
        </g>
      </g>
      <g id="Group_8140" data-name="Group 8140" transform="translate(3.406 46.545)">
        <g id="Group_8139" data-name="Group 8139" transform="translate(0 0)">
          <path id="Path_11647" data-name="Path 11647" d="M78.049,46.545H49.1a2.61,2.61,0,0,0-2.554,2.75v9.167a.854.854,0,1,0,1.7,0V49.3a.837.837,0,0,1,.851-.917H78.049a.837.837,0,0,1,.851.917v22a.837.837,0,0,1-.851.917H57.614a.919.919,0,0,0,0,1.833h1.7v2.75a.837.837,0,0,1-.851.917h-.851a.919.919,0,0,0,0,1.833h11.92a.919.919,0,0,0,0-1.833h-.851a.837.837,0,0,1-.851-.917v-2.75H78.049a2.61,2.61,0,0,0,2.554-2.75v-22A2.61,2.61,0,0,0,78.049,46.545ZM60.85,77.712a2.893,2.893,0,0,0,.17-.917v-2.75h5.109V76.8a2.894,2.894,0,0,0,.17.917Z" transform="translate(-46.546 -46.545)" fill="#fff"/>
        </g>
      </g>
      <g id="Group_8142" data-name="Group 8142" transform="translate(13.623 66.796)">
        <g id="Group_8141" data-name="Group 8141" transform="translate(0 0)">
          <path id="Path_11648" data-name="Path 11648" d="M205.765,302.545H187.033a.851.851,0,1,0,0,1.7h18.731a.851.851,0,1,0,0-1.7Z" transform="translate(-186.182 -302.545)" fill="#fff"/>
        </g>
      </g>
      <g id="Group_8144" data-name="Group 8144" transform="translate(0 62.516)">
        <g id="Group_8143" data-name="Group 8143" transform="translate(0 0)">
          <path id="Path_11649" data-name="Path 11649" d="M9.366,232.727H2.554A2.509,2.509,0,0,0,0,235.281V247.2a2.509,2.509,0,0,0,2.554,2.554H9.366A2.509,2.509,0,0,0,11.92,247.2v-11.92A2.509,2.509,0,0,0,9.366,232.727Zm.851,14.474a.8.8,0,0,1-.851.851H2.554A.8.8,0,0,1,1.7,247.2v-11.92a.8.8,0,0,1,.851-.851H9.366a.8.8,0,0,1,.851.851Z" transform="translate(0 -232.727)" fill="#fff"/>
        </g>
      </g>
    </g>
    <g id="Group_8134" data-name="Group 8134" transform="translate(273)">
      <g id="Group_1760" data-name="Group 1760" transform="translate(-19395 -16617.113)">
        <path id="Path_4350" data-name="Path 4350" d="M356.823,323.02a14.211,14.211,0,1,1-14.21-14.211A14.21,14.21,0,0,1,356.823,323.02Zm0,0" transform="translate(630.128 955.755)" fill="#f9556d"/>
        <path id="Path_4372" data-name="Path 4372" d="M333.679,329.31a15.226,15.226,0,1,0-15.226-15.225A15.226,15.226,0,0,0,333.679,329.31Zm0-28.421a13.2,13.2,0,1,1-13.2,13.2A13.2,13.2,0,0,1,333.679,300.889Zm0,0" transform="translate(639.062 964.69)" fill="#fff"/>
      </g>
      <path id="Path_4373" data-name="Path 4373" d="M391.024,379.819l-1.817.907,2.03,4.06a1.014,1.014,0,0,0,.746.548.987.987,0,0,0,.157.013,1.012,1.012,0,0,0,.718-.3l12.181-12.181-1.436-1.435-11.185,11.185Zm0,0" transform="translate(-18819.475 -15717.596)" fill="#fff"/>
    </g>
    <path id="Path_11650" data-name="Path 11650" d="M-18176.4-15358.67l4.9-6.123,1.787,4.008,3.668-6.123,5.121,8.238Z" transform="translate(-0.081 0.489)" fill="#fff"/>
  </g>
</svg>
