<svg xmlns="http://www.w3.org/2000/svg" viewBox="0 0 1920 155"><defs><pattern id="a" width="11.34" height="11.34" patternUnits="userSpaceOnUse"><path fill="none" d="M0 0h11.34v11.34H0z"/><path d="M25.69 8.32L8.32 25.69m6.04-17.37L-3.02 25.69M20.03 8.32L2.65 25.69m.37-17.37l-17.38 17.37M8.69 8.32L-8.69 25.69M25.69-3.02L8.32 14.36m6.04-17.38L-3.02 14.36M20.03-3.02L2.65 14.36m.37-17.38l-17.38 17.38M8.69-3.02L-8.69 14.36m34.38-28.72L8.32 3.02m6.04-17.38L-3.02 3.02m23.05-17.38L2.65 3.02m.37-17.38L-14.36 3.02M8.69-14.36L-8.69 3.02" fill="#fff" stroke="#fff" stroke-miterlimit="10"/></pattern></defs><path fill="url(#a)" fill-rule="evenodd" d="M1380 93L545 79 0 10v145h1920l-540-62z"/><path d="M1375 93l545-93v155H0z" fill-rule="evenodd" fill="#fff"/></svg>