<?xml version="1.0" encoding="UTF-8"?>
<!-- Generator: Adobe Illustrator 17.0.1, SVG Export Plug-In . SVG Version: 6.00 Build 0)  -->
<!DOCTYPE svg PUBLIC "-//W3C//DTD SVG 1.1//EN" "http://www.w3.org/Graphics/SVG/1.1/DTD/svg11.dtd">
<svg version="1.1" id="Layer_1" xmlns="http://www.w3.org/2000/svg" xmlns:xlink="http://www.w3.org/1999/xlink" x="0px" y="0px" width="166.956px" height="31px" viewBox="0 0 166.956 31" enable-background="new 0 0 166.956 31" xml:space="preserve">
<path fill-rule="evenodd" clip-rule="evenodd" fill="#222222" d="M32.936,18.1c1.059,1.228,1.589,2.752,1.589,4.574  c0,2.014-0.688,3.794-2.064,5.339c-1.596,1.794-4.376,2.69-8.339,2.69H11.49l-0.017-17.186l-2.594,0.013  c-2.92-0.162-5.237-2.537-5.237-5.499c1.272,0,5.873,0,7.466,0c0.206,0,0.374-0.167,0.374-0.374c0-0.206-0.167-0.373-0.374-0.373  c-1.201,0-5.074,0-5.552,0C2.487,7.286,0,4.845,0,1.777c1.624,0,8.741,0,11.49,0V1.772h11.229c1.954,0,3.639,0.235,5.057,0.704  c1.417,0.47,2.483,1.104,3.199,1.904c1.293,1.49,1.94,3.173,1.94,5.05c0,2.263-0.73,3.946-2.188,5.05  c-0.496,0.387-0.84,0.628-1.032,0.724c-0.193,0.097-0.537,0.256-1.032,0.476C30.452,16.066,31.876,16.873,32.936,18.1z   M25.071,7.856c-0.798-0.414-2.146-0.621-4.046-0.621H17.93v6.25h3.055c1.789,0,3.117-0.193,3.983-0.579  c0.867-0.386,1.3-1.221,1.3-2.504C26.269,9.119,25.869,8.27,25.071,7.856z M26.413,19.218c-0.977-0.427-2.539-0.642-4.685-0.642  H17.93v6.664h4.417c1.843,0,3.226-0.228,4.149-0.683c0.922-0.455,1.383-1.352,1.383-2.69C27.879,20.529,27.39,19.646,26.413,19.218z  "/>
<g>
	<g>
		<path fill="#222222" d="M57.196,10.829C55.06,8.983,52.463,8.06,49.404,8.06c-3.058,0-5.712,1.034-7.957,3.1    c-2.245,2.067-3.368,4.851-3.368,8.35c0,3.5,1.102,6.289,3.307,8.37C43.59,29.96,46.379,31,49.756,31    c3.374,0,6.317-1.184,8.825-3.555l-3.473-3.762c-1.405,1.461-3.196,2.19-5.373,2.19c-1.35,0-2.562-0.385-3.637-1.157    c-1.075-0.771-1.709-1.763-1.901-2.976h16.201v-3.307C60.398,15.211,59.331,12.676,57.196,10.829z M44.361,17.318    c0.167-1.267,0.758-2.273,1.779-3.017c1.019-0.744,2.142-1.116,3.368-1.116c1.226,0,2.267,0.358,3.121,1.075    c0.854,0.716,1.35,1.736,1.488,3.058H44.361z M74.059,9.052c-1.198,0.634-2.197,1.405-2.997,2.315V8.432h-6.198v22.237h6.198    v-9.631c0-2.149,0.456-3.878,1.365-5.187c0.909-1.309,2.287-1.963,4.134-1.963h1.198L77.717,8.06    C76.477,8.088,75.258,8.418,74.059,9.052z M96.111,19.055c-0.827-0.496-1.536-0.861-2.129-1.095    c-0.593-0.234-1.591-0.571-2.996-1.013c-1.407-0.44-2.412-0.826-3.019-1.157c-0.605-0.33-0.908-0.785-0.908-1.363    c0-1.047,0.956-1.571,2.872-1.571c1.915,0,3.837,0.662,5.766,1.984l2.316-4.134C95.394,8.942,92.776,8.06,90.16,8.06    c-2.619,0-4.754,0.648-6.408,1.943c-1.652,1.296-2.48,2.97-2.48,5.022c0,2.053,0.84,3.603,2.522,4.65    c0.826,0.523,1.563,0.923,2.211,1.198c0.647,0.276,1.584,0.607,2.81,0.992c1.226,0.387,2.163,0.8,2.81,1.24    c0.648,0.441,0.971,0.924,0.971,1.447c0,0.523-0.233,0.944-0.701,1.261c-0.469,0.317-1.102,0.476-1.902,0.476    c-2.619,0-5.083-0.896-7.398-2.687l-2.728,3.885c1.433,1.157,3.045,2.033,4.836,2.625S88.216,31,89.87,31    c2.48,0,4.526-0.662,6.138-1.984c1.612-1.323,2.418-3.08,2.418-5.27C98.426,21.555,97.654,19.992,96.111,19.055z M121.055,10.829    c-2.135-1.846-4.733-2.769-7.792-2.769c-3.057,0-5.71,1.034-7.957,3.1c-2.245,2.067-3.368,4.851-3.368,8.35    c0,3.5,1.103,6.289,3.307,8.37c2.204,2.081,4.993,3.121,8.369,3.121c3.374,0,6.317-1.184,8.825-3.555l-3.473-3.762    c-1.405,1.461-3.196,2.19-5.374,2.19c-1.35,0-2.562-0.385-3.636-1.157c-1.075-0.771-1.709-1.763-1.901-2.976h16.201v-3.307    C124.257,15.211,123.19,12.676,121.055,10.829z M108.22,17.318c0.167-1.267,0.758-2.273,1.779-3.017    c1.019-0.744,2.142-1.116,3.368-1.116s2.267,0.358,3.121,1.075c0.854,0.716,1.35,1.736,1.488,3.058H108.22z M137.918,9.052    c-1.198,0.634-2.197,1.405-2.997,2.315V8.432h-6.199v22.237h6.199v-9.631c0-2.149,0.455-3.878,1.365-5.187    c0.909-1.309,2.287-1.963,4.133-1.963h1.198l-0.042-5.828C140.336,8.088,139.117,8.418,137.918,9.052z M158.151,17.401    l8.474-9.011h-7.813l-6.902,7.358V0h-6.2v30.669h6.2v-6.407l2.026-2.108l5.662,8.514h7.358L158.151,17.401z"/>
	</g>
</g>
</svg>