<svg xmlns="http://www.w3.org/2000/svg" width="87" height="87" viewBox="0 0 87 87">
  <g id="team" transform="translate(-1434 -3999)">
    <rect id="Rectangle_664" data-name="Rectangle 664" width="87" height="87" transform="translate(1434 3999)" fill="#fff"/>
    <g id="teamwork" transform="translate(1441.654 4006.074)">
      <path id="Path_4978" data-name="Path 4978" d="M195.942,26.57h12.787V38.794a2.644,2.644,0,0,0-2.8-2.358,3.163,3.163,0,0,0-1.994.669,2.165,2.165,0,0,0-.81,1.677v6.276h-7.179V26.57Z" transform="translate(-160.386 -21.273)" fill="#e1e6e9"/>
      <path id="Path_4979" data-name="Path 4979" d="M258.168,41.218V37.969l5.267-7.062V11.164a2.644,2.644,0,0,0-2.8-2.358,2.565,2.565,0,0,0-2.8,2.358V9.932a2.644,2.644,0,0,0-2.8-2.358,2.565,2.565,0,0,0-2.8,2.358V9.146c.117-1.349-1.126-2.358-2.7-2.358a2.565,2.565,0,0,0-2.8,2.358v.786a2.644,2.644,0,0,0-2.8-2.358,2.565,2.565,0,0,0-2.8,2.358V22.613a2.644,2.644,0,0,0-2.8-2.358h0a2.565,2.565,0,0,0-2.8,2.358V31.7l6.734,6.17v3.249" transform="translate(-192.768 -5.081)" fill="#fff"/>
      <path id="Path_4980" data-name="Path 4980" d="M285.62,196.525v12.681H273.5a2.644,2.644,0,0,0,2.358-2.8,3.163,3.163,0,0,0-.669-1.994,2.165,2.165,0,0,0-1.677-.809H267.12v-7.074Z" transform="translate(-218.648 -160.387)" fill="#fdbf5e"/>
      <rect id="Rectangle_647" data-name="Rectangle 647" width="2.241" height="2.241" transform="translate(61.587 40.29)" fill="#193651"/>
      <path id="Path_4981" data-name="Path 4981" d="M199.693,258.273h3.249L210,263.54h19.743a2.644,2.644,0,0,0,2.358-2.8,2.564,2.564,0,0,0-2.358-2.8h1.232a2.644,2.644,0,0,0,2.358-2.8,2.565,2.565,0,0,0-2.358-2.8h.786a2.644,2.644,0,0,0,2.358-2.8,2.565,2.565,0,0,0-2.358-2.8h-.786a2.644,2.644,0,0,0,2.358-2.8,2.565,2.565,0,0,0-2.358-2.8H218.31a2.644,2.644,0,0,0,2.358-2.8h0a2.565,2.565,0,0,0-2.358-2.8h-9.091l-6.17,6.734H199.8" transform="translate(-163.456 -192.292)" fill="#fff"/>
      <path id="Path_4982" data-name="Path 4982" d="M142.491,267.636v18.511H129.81V274.029a2.644,2.644,0,0,0,2.8,2.358,2.564,2.564,0,0,0,2.8-2.358v-6.393Z" transform="translate(-106.254 -218.594)" fill="#4fbf9f"/>
      <rect id="Rectangle_648" data-name="Rectangle 648" width="2.241" height="2.241" transform="translate(29.844 62.169)" fill="#193651"/>
      <path id="Path_4983" data-name="Path 4983" d="M27.521,203.642v-3.249l-16.036-.117v3.249l-5.279,7.062V230.33a2.644,2.644,0,0,0,2.8,2.358,2.644,2.644,0,0,0,2.8-2.358v1.232a2.644,2.644,0,0,0,2.8,2.358,2.565,2.565,0,0,0,2.8-2.358v.786a2.644,2.644,0,0,0,2.8,2.358,2.565,2.565,0,0,0,2.8-2.358v-.786a2.644,2.644,0,0,0,2.8,2.358,2.565,2.565,0,0,0,2.8-2.358V218.892a2.644,2.644,0,0,0,2.8,2.358,2.565,2.565,0,0,0,2.8-2.358V209.8Z" transform="translate(-5.08 -163.457)" fill="#fff"/>
      <path id="Path_4984" data-name="Path 4984" d="M44.488,135.417V142.6h-18.5V129.81H38.212a2.644,2.644,0,0,0-2.358,2.8,2.565,2.565,0,0,0,2.358,2.8h6.276Z" transform="translate(-21.272 -105.779)" fill="#f16051"/>
      <rect id="Rectangle_649" data-name="Rectangle 649" width="2.241" height="2.241" transform="translate(7.965 30.425)" fill="#193651"/>
      <path id="Path_4985" data-name="Path 4985" d="M37.334,12.055,30.272,6.788H10.528a2.559,2.559,0,0,0-2.241,2.8,2.559,2.559,0,0,0,2.241,2.8H9.285a2.607,2.607,0,0,0-2.358,2.686,2.564,2.564,0,0,0,2.358,2.8H8.5a2.565,2.565,0,0,0-2.358,2.8,2.572,2.572,0,0,0,2.358,2.8h.786a2.644,2.644,0,0,0-2.358,2.8,2.565,2.565,0,0,0,2.358,2.8H21.966a2.644,2.644,0,0,0-2.358,2.8,2.565,2.565,0,0,0,2.358,2.8h9.091l6.17-6.734h3.249v-15.7Z" transform="translate(-5.027 -5.081)" fill="#fff"/>
      <g id="Group_2294" data-name="Group 2294" transform="translate(0 0.581)">
        <path id="Path_4986" data-name="Path 4986" d="M71.793,26.155V6.083a3.117,3.117,0,0,0-1.232-2.464,4.234,4.234,0,0,0-4.821-.34,3.868,3.868,0,0,0-3.472-1.795,4.177,4.177,0,0,0-2.358.669A3.511,3.511,0,0,0,56.766.581a3.828,3.828,0,0,0-3.249,1.572,4.15,4.15,0,0,0-2.358-.669,3.8,3.8,0,0,0-3.813,2.8H34.325V5.966H32.53L25.691.581H5.5a3.668,3.668,0,0,0-3.367,3.93A4.633,4.633,0,0,0,2.7,6.646,3.909,3.909,0,0,0,.786,10.013a4.2,4.2,0,0,0,.669,2.358A4.04,4.04,0,0,0,0,15.608a3.828,3.828,0,0,0,1.572,3.249A4.15,4.15,0,0,0,.9,21.216a3.8,3.8,0,0,0,2.8,3.813v13.01H5.385v1.795L0,46.8V66.885a3.749,3.749,0,0,0,3.93,3.472,4.633,4.633,0,0,0,2.135-.563,3.868,3.868,0,0,0,3.472,1.795A4.177,4.177,0,0,0,11.9,70.92a4.169,4.169,0,0,0,3.249,1.572,3.842,3.842,0,0,0,3.249-1.572,4.15,4.15,0,0,0,2.358.669,3.8,3.8,0,0,0,3.813-2.8h13.01V67.107h1.795l7.062,5.267H66.515a3.749,3.749,0,0,0,3.472-3.93,4.633,4.633,0,0,0-.563-2.135,3.868,3.868,0,0,0,1.795-3.472,4.2,4.2,0,0,0-.669-2.358,4.169,4.169,0,0,0,1.572-3.249,4.065,4.065,0,0,0-1.455-3.249,4.15,4.15,0,0,0,.669-2.358,3.8,3.8,0,0,0-2.8-3.813V34.8H66.855V33.005ZM36.683,6.411H47.334v7.965a4.122,4.122,0,0,0-1.677-.34,3.757,3.757,0,0,0-3.93,3.472V22.67H36.683ZM4.258,22.788c-.669,0-1.232-.786-1.232-1.677s.563-1.677,1.232-1.677h7.4V17.192H3.472c-.669,0-1.232-.786-1.232-1.677s.563-1.677,1.232-1.677h8.188V11.6h-7.4c-.669,0-1.232-.786-1.232-1.677A1.377,1.377,0,0,1,4.258,8.464h7.4V6.224H5.5c-.563,0-1.126-.786-1.126-1.677S4.939,2.869,5.5,2.869H24.8l7.062,5.267h2.464V21.6H31.744l-6.17,6.687H16.939c-.669,0-1.232-.786-1.232-1.677s.563-1.677,1.232-1.677h4.481V22.694H4.258Zm12.681,7.86H22.1v5.044H5.83V25.04H13.8a4.122,4.122,0,0,0-.34,1.677C13.573,28.853,15.027,30.648,16.939,30.648Zm5.267,20.189V68c0,.669-.786,1.232-1.677,1.232S18.852,68.668,18.852,68V60.6H16.611v8.188c0,.669-.786,1.232-1.677,1.232s-1.677-.563-1.677-1.232V60.6H10.992V68c0,.669-.786,1.232-1.677,1.232S7.625,68.668,7.625,68V60.6H5.607V66.65c0,.669-.786,1.232-1.677,1.232s-1.677-.563-1.677-1.232V47.47L7.52,40.408V37.944H20.987v2.581L27.72,46.7v8.634c0,.669-.786,1.232-1.677,1.232S24.365,56,24.365,55.329V50.836H22.207Zm12.9,15.708H24.459V58.579a4.122,4.122,0,0,0,1.677.34,3.757,3.757,0,0,0,3.93-3.472V50.285h5.044ZM30.066,47.915V45.78l-6.734-6.17V37.932h1.126v-7.3h2.135l6.17-6.734h1.677v1.126h7.3v2.135l6.734,6.17v1.677H47.346v7.3H45.211l-6.17,6.734H37.363V47.915Zm37.469,2.252c.669,0,1.232.786,1.232,1.677a1.723,1.723,0,0,1-.446,1.232,1.309,1.309,0,0,1-.786.446h-7.4v2.241h8.188c.669,0,1.232.786,1.232,1.677s-.563,1.677-1.232,1.677H60.133v2.241h7.4c.669,0,1.232.786,1.232,1.677s-.563,1.677-1.232,1.677h-7.4v2.241h6.053c.669,0,1.232.786,1.232,1.677s-.563,1.677-1.232,1.677h-19.3l-7.062-5.267H37.363V51.622h2.581l6.17-6.734h8.634c.669,0,1.232.786,1.232,1.677s-.563,1.677-1.232,1.677H50.255v1.912h17.28v.013Zm-12.681-7.86H49.692V37.264H65.963V47.915H58a4.122,4.122,0,0,0,.34-1.677C58.221,44.1,56.766,42.308,54.854,42.308Zm9.42-9.866v2.464H50.818V32.325l-6.734-6.17V17.521c0-.669.786-1.232,1.677-1.232s1.677.563,1.677,1.232v4.493H49.68V4.839c0-.669.786-1.232,1.677-1.232s1.677.563,1.677,1.232v7.4h2.241V4.053c0-.669.786-1.232,1.677-1.232s1.677.563,1.677,1.232v8.188h2.241v-7.4c0-.669.786-1.232,1.677-1.232s1.677.563,1.677,1.232v7.4h2.241V6.071c0-.669.786-1.232,1.677-1.232a1.7,1.7,0,0,1,1.232.446c-.117.223.117.446.117.786v19.3Z" transform="translate(0 -0.581)" fill="#193651"/>
        <rect id="Rectangle_650" data-name="Rectangle 650" width="2.241" height="2.241" transform="translate(39.709 7.966)" fill="#193651"/>
      </g>
    </g>
  </g>
</svg>
