<svg xmlns="http://www.w3.org/2000/svg" width="87" height="87" viewBox="0 0 87 87">
  <g id="office" transform="translate(-606 -4216)">
    <rect id="Rectangle_665" data-name="Rectangle 665" width="87" height="87" transform="translate(606 4216)" fill="#fff"/>
    <g id="desk" transform="translate(609 4219)">
      <path id="Path_4987" data-name="Path 4987" d="M69.712,98.405a22.877,22.877,0,0,0,.811-5.9A25.1,25.1,0,0,0,67.471,81a25.112,25.112,0,0,0-3.036,11.508,22.869,22.869,0,0,0,.818,5.9Z" transform="translate(-54.146 -68.066)" fill="#d8fb93"/>
      <g id="Group_2295" data-name="Group 2295" transform="translate(1.597 18.667)">
        <path id="Path_4988" data-name="Path 4988" d="M91.491,128.572h5.76c.387-.464.763-.958,1.118-1.481a22.784,22.784,0,0,0,3.582-10.192,26.5,26.5,0,0,0-8.416,7.518" transform="translate(-78.478 -116.899)" fill="#a0e557"/>
        <path id="Path_4989" data-name="Path 4989" d="M18.442,124.327A25.546,25.546,0,0,0,10,116.9a22.784,22.784,0,0,0,3.582,10.192c.355.523.731,1.017,1.118,1.481h5.76" transform="translate(-10 -116.899)" fill="#a0e557"/>
      </g>
      <path id="Path_4990" data-name="Path 4990" d="M46.448,201.5H36.024L33.205,190H49.267Z" transform="translate(-27.903 -159.66)" fill="#ff5d5d"/>
      <path id="Path_4991" data-name="Path 4991" d="M176.2,208.22h-3.46A2.741,2.741,0,0,1,170,205.478V198h8.942v7.478A2.741,2.741,0,0,1,176.2,208.22Z" transform="translate(-142.854 -166.383)" fill="#72d8ff"/>
      <path id="Path_4992" data-name="Path 4992" d="M431.194,230h0A3.194,3.194,0,0,0,428,233.194v1.916h6.387v-1.916A3.194,3.194,0,0,0,431.194,230Z" transform="translate(-359.656 -193.273)" fill="#fff"/>
      <rect id="Rectangle_651" data-name="Rectangle 651" width="7.345" height="10.22" transform="translate(56.048 31.617)" fill="#d8d8e4"/>
      <path id="Path_4993" data-name="Path 4993" d="M290.411,40.02h-30.5A3.912,3.912,0,0,1,256,36.108v-22.2A3.912,3.912,0,0,1,259.912,10h30.5a3.912,3.912,0,0,1,3.912,3.912v22.2A3.912,3.912,0,0,1,290.411,40.02Z" transform="translate(-215.121 -8.403)" fill="#c9f3ff"/>
      <path id="Path_4994" data-name="Path 4994" d="M256,150v3.753a3.912,3.912,0,0,0,3.912,3.912h30.5a3.912,3.912,0,0,0,3.912-3.912V150Z" transform="translate(-215.121 -126.048)" fill="#fff"/>
      <rect id="Rectangle_652" data-name="Rectangle 652" width="43.433" height="8.942" transform="translate(3.832 41.837)" fill="#edf2fa"/>
      <rect id="Rectangle_653" data-name="Rectangle 653" width="30.659" height="12.775" transform="translate(47.266 67.386)" fill="#ffb954"/>
      <rect id="Rectangle_654" data-name="Rectangle 654" width="30.659" height="12.775" transform="translate(47.266 54.931)" fill="#ffc66c"/>
      <rect id="Rectangle_655" data-name="Rectangle 655" width="30.659" height="12.775" transform="translate(47.266 42.475)" fill="#ffb954"/>
      <path id="Path_4995" data-name="Path 4995" d="M148.6,308a1.6,1.6,0,1,0,1.129.468A1.608,1.608,0,0,0,148.6,308Z" transform="translate(-123.527 -258.818)"/>
      <path id="Path_4996" data-name="Path 4996" d="M80.16,40.24H76.328V39.92a4.79,4.79,0,1,0-9.581,0v.319H64.99V33.214h10.3A5.515,5.515,0,0,0,80.8,27.7V5.509A5.515,5.515,0,0,0,75.29,0h-30.5a5.515,5.515,0,0,0-5.509,5.509V27.7a5.515,5.515,0,0,0,5.509,5.509h9.661V40.24H37.531a4.324,4.324,0,0,0,.154-1.144V31.617a1.6,1.6,0,0,0-1.6-1.6H27.146a1.6,1.6,0,0,0-1.6,1.6V39.1A4.332,4.332,0,0,0,25.7,40.24H20.581l2.334-9.52a1.6,1.6,0,0,0-.082-1,24.3,24.3,0,0,0,3.831-10.951,1.6,1.6,0,0,0-2.343-1.511,29,29,0,0,0-6.461,4.962,26.905,26.905,0,0,0-3.16-10.1,1.6,1.6,0,0,0-1.374-.783h0a1.6,1.6,0,0,0-1.374.785,26.917,26.917,0,0,0-3.136,10,28.01,28.01,0,0,0-6.49-4.878A1.6,1.6,0,0,0,0,18.767,24.3,24.3,0,0,0,3.834,29.718a1.594,1.594,0,0,0-.082,1l2.334,9.52H1.6a1.6,1.6,0,0,0,0,3.194h.639V80.16a1.6,1.6,0,0,0,3.194,0V52.376H18.2a1.6,1.6,0,0,0,0-3.194H5.429V43.433h40.24v5.749H31.617a1.6,1.6,0,0,0,0,3.194H45.669V80.16a1.6,1.6,0,0,0,1.6,1.6H77.925a1.6,1.6,0,0,0,1.6-1.6V43.433h.639a1.6,1.6,0,0,0,0-3.194ZM22.808,22.092a19.966,19.966,0,0,1-2.641,5.869q-.267.394-.565.782H17.562q.134-.721.225-1.434a1.607,1.607,0,0,0,.187-.226A22.5,22.5,0,0,1,22.808,22.092Zm-9.477-5.3a22.474,22.474,0,0,1,1.45,7.642,20.57,20.57,0,0,1-.471,4.3H12.363a20.565,20.565,0,0,1-.477-4.3A22.531,22.531,0,0,1,13.331,16.8Zm-4.613,10.2a1.6,1.6,0,0,0,.148.183q.1.779.243,1.567H7.065c-.2-.258-.387-.52-.565-.782a20.011,20.011,0,0,1-2.662-5.943A21.71,21.71,0,0,1,8.718,26.992ZM9.374,40.24l-2.036-8.3H19.329l-2.036,8.3Zm20.514,0A1.146,1.146,0,0,1,28.743,39.1V33.214h5.749V39.1a1.146,1.146,0,0,1-1.144,1.144Zm40.053-.319a1.6,1.6,0,1,1,3.194,0v.319H69.941ZM44.791,3.194H57.332l-7.55,7.55A1.6,1.6,0,1,0,52.039,13l9.809-9.809H75.29a2.318,2.318,0,0,1,2.315,2.315V22.355H61.691l9.4-9.4A1.6,1.6,0,0,0,68.83,10.7L57.494,22.035a1.591,1.591,0,0,0-.246.32H42.475V5.509A2.318,2.318,0,0,1,44.791,3.194ZM42.475,27.7V25.549h35.13V27.7A2.318,2.318,0,0,1,75.29,30.02h-30.5A2.318,2.318,0,0,1,42.475,27.7Zm15.17,5.509H61.8V40.24H57.645ZM76.328,65.789H48.863V56.208H76.328ZM48.863,78.563V68.983H76.328v9.581ZM76.328,53.014H48.863V43.433H76.328Z"/>
      <path id="Path_4997" data-name="Path 4997" d="M383.6,291.67a1.6,1.6,0,1,0,1.129.468A1.6,1.6,0,0,0,383.6,291.67Z" transform="translate(-321.002 -245.096)"/>
      <path id="Path_4998" data-name="Path 4998" d="M382.468,376.726A1.6,1.6,0,1,0,382,375.6,1.609,1.609,0,0,0,382.468,376.726Z" transform="translate(-321.002 -314.279)"/>
      <path id="Path_4999" data-name="Path 4999" d="M383.6,451.94a1.6,1.6,0,1,0,1.129.468A1.608,1.608,0,0,0,383.6,451.94Z" transform="translate(-321.002 -379.773)"/>
      <path id="Path_5000" data-name="Path 5000" d="M453.377,43.6a1.6,1.6,0,1,0-1.129-.468A1.606,1.606,0,0,0,453.377,43.6Z" transform="translate(-379.639 -33.957)"/>
      <path id="Path_5001" data-name="Path 5001" d="M365.947,167.194a1.6,1.6,0,1,0-1.129-.468A1.609,1.609,0,0,0,365.947,167.194Z" transform="translate(-306.17 -137.812)"/>
      <path id="Path_5002" data-name="Path 5002" d="M178.1,148.16a1.6,1.6,0,0,0,1.6-1.6v-1.517a1.6,1.6,0,1,0-3.194,0v1.517A1.6,1.6,0,0,0,178.1,148.16Z" transform="translate(-148.316 -120.543)"/>
      <path id="Path_5003" data-name="Path 5003" d="M204.6,122.615a1.6,1.6,0,0,0,1.6-1.6v-1.773a1.6,1.6,0,0,0-3.194,0v1.773A1.6,1.6,0,0,0,204.6,122.615Z" transform="translate(-170.585 -98.863)"/>
    </g>
  </g>
</svg>
