<svg xmlns="http://www.w3.org/2000/svg" width="87" height="87" viewBox="0 0 87 87">
  <g id="coffee" transform="translate(-1020 -4216)">
    <rect id="Rectangle_666" data-name="Rectangle 666" width="87" height="87" transform="translate(1020 4216)" fill="#fff"/>
    <g id="coffee-cup" transform="translate(1018.946 4220)">
      <path id="Path_4963" data-name="Path 4963" d="M111.879,433.228a9.36,9.36,0,0,1-9.276,8.112H60.481a9.361,9.361,0,0,1-9.277-8.112l38.145-3.12Z" transform="translate(-38.107 -363.011)" fill="#fce9cb"/>
      <path id="Path_4964" data-name="Path 4964" d="M127.034,179.778v13.311a25.733,25.733,0,0,1-13.447,22.62H89a25.733,25.733,0,0,1-13.447-22.62V179.778Z" transform="translate(-58.658 -151.733)" fill="#fce9cb"/>
      <path id="Path_4965" data-name="Path 4965" d="M399.8,221.028a10.92,10.92,0,0,1-10.92,10.92H382a25.619,25.619,0,0,0,2.708-6.251h4.175a4.669,4.669,0,0,0,0-9.338h-3.209v-6.251h3.2a10.919,10.919,0,0,1,10.92,10.92Z" transform="translate(-317.302 -177.331)" fill="#fad294"/>
      <path id="Path_4966" data-name="Path 4966" d="M87.814,413.228a3.132,3.132,0,0,1-3.12,3.12H19.174a3.12,3.12,0,0,1,0-6.24h65.52A3.129,3.129,0,0,1,87.814,413.228Z" transform="translate(-8.44 -346.131)" fill="#fad294"/>
      <path id="Path_4967" data-name="Path 4967" d="M76.254,205.709H60.007a27.3,27.3,0,0,0,5.557-6.24h6.01a12.48,12.48,0,1,0,0-24.96H69.936v-3.171a1.56,1.56,0,0,0-1.56-1.56H16.9a1.56,1.56,0,0,0-1.56,1.56v13.311a27.293,27.293,0,0,0,9.929,21.06H10.734a4.68,4.68,0,0,0,0,9.36h1.088a10.955,10.955,0,0,0,10.552,8.112H64.5a10.854,10.854,0,0,0,7.721-3.2,10.993,10.993,0,0,0,2.83-4.914h1.207a4.68,4.68,0,0,0,0-9.36Zm-6.318-21.829h1.649a3.109,3.109,0,1,1,0,6.218h-2.2a27.329,27.329,0,0,0,.549-5.449Zm1.638-6.251a9.36,9.36,0,1,1,0,18.72H67.3a27.28,27.28,0,0,0,1.253-3.131h3.031a6.229,6.229,0,0,0,0-12.458H69.936v-3.131Zm-53.118,7.02V172.9h48.36v11.751a24.18,24.18,0,0,1-.892,6.508c-.013.04-.025.08-.035.121A24.19,24.19,0,0,1,54.525,205.71H30.747a24.183,24.183,0,0,1-12.291-21.06Zm58.9,26.841a1.542,1.542,0,0,1-1.1.459H57.534a1.56,1.56,0,1,0,0,3.12H71.77a7.852,7.852,0,0,1-1.759,2.708,7.753,7.753,0,0,1-5.515,2.284H22.375a7.829,7.829,0,0,1-7.278-4.992H45.054a1.56,1.56,0,1,0,0-3.12H10.734a1.562,1.562,0,0,1-1.56-1.56,1.572,1.572,0,0,1,1.56-1.56h65.52a1.562,1.562,0,0,1,1.56,1.56A1.544,1.544,0,0,1,77.352,211.491Z" transform="translate(0 -143.293)"/>
      <path id="Path_4968" data-name="Path 4968" d="M307.614,23.038a1.56,1.56,0,0,0,1.56-1.56V2.714a1.56,1.56,0,1,0-3.12,0V21.477a1.56,1.56,0,0,0,1.56,1.56Z" transform="translate(-253.2 -0.974)"/>
      <path id="Path_4969" data-name="Path 4969" d="M208.048,7.927a1.56,1.56,0,0,0,1.56-1.56V1.56a1.56,1.56,0,0,0-3.12,0V6.367A1.56,1.56,0,0,0,208.048,7.927Z" transform="translate(-169.166)"/>
      <path id="Path_4970" data-name="Path 4970" d="M156.951,37.919a1.56,1.56,0,0,0,1.56-1.56V20.56a1.56,1.56,0,0,0-3.12,0v15.8A1.56,1.56,0,0,0,156.951,37.919Z" transform="translate(-126.04 -16.036)"/>
      <path id="Path_4971" data-name="Path 4971" d="M208.048,111.2a1.56,1.56,0,0,0-1.56,1.56v3.073a1.56,1.56,0,0,0,3.12,0v-3.073A1.56,1.56,0,0,0,208.048,111.2Z" transform="translate(-169.166 -93.855)"/>
      <path id="Path_4972" data-name="Path 4972" d="M258.048,40.185a1.56,1.56,0,0,0-1.56,1.56V54.4a1.56,1.56,0,0,0,3.12,0V41.745A1.56,1.56,0,0,0,258.048,40.185Z" transform="translate(-211.366 -33.916)"/>
      <circle id="Ellipse_1574" data-name="Ellipse 1574" cx="1.56" cy="1.56" r="1.56" transform="translate(37.322 11.076)"/>
      <circle id="Ellipse_1575" data-name="Ellipse 1575" cx="1.56" cy="1.56" r="1.56" transform="translate(45.122 0.004)"/>
      <circle id="Ellipse_1576" data-name="Ellipse 1576" cx="1.57" cy="1.57" r="1.57" transform="translate(49.685 68.678)"/>
    </g>
  </g>
</svg>
