<svg xmlns="http://www.w3.org/2000/svg" width="130" height="130" viewBox="0 0 130 130">
  <g id="icon_customer" transform="translate(-736 -1565)">
    <circle id="Ellipse_1540" data-name="Ellipse 1540" cx="65" cy="65" r="65" transform="translate(736 1565)" fill="#01358d" opacity="0.05"/>
    <g id="support" transform="translate(761 1590)">
      <g id="Group_2033" data-name="Group 2033" transform="translate(30.484 25.182)">
        <g id="Group_2032" data-name="Group 2032">
          <path id="Path_4736" data-name="Path 4736" d="M187.976,152A3.981,3.981,0,0,0,184,155.976h2.651a1.325,1.325,0,0,1,2.651,0h2.651A3.981,3.981,0,0,0,187.976,152Z" transform="translate(-184 -152)" fill="#003795"/>
        </g>
      </g>
      <g id="Group_2035" data-name="Group 2035" transform="translate(41.087 25.182)">
        <g id="Group_2034" data-name="Group 2034">
          <path id="Path_4737" data-name="Path 4737" d="M251.976,152A3.981,3.981,0,0,0,248,155.976h2.651a1.325,1.325,0,0,1,2.651,0h2.651A3.981,3.981,0,0,0,251.976,152Z" transform="translate(-248 -152)" fill="#003795"/>
        </g>
      </g>
      <g id="Group_2037" data-name="Group 2037" transform="translate(34.46 60.967)">
        <g id="Group_2036" data-name="Group 2036">
          <path id="Path_4738" data-name="Path 4738" d="M213.3,368a5.3,5.3,0,1,0,5.3,5.3A5.307,5.307,0,0,0,213.3,368Zm0,7.952a2.651,2.651,0,1,1,2.651-2.651A2.653,2.653,0,0,1,213.3,375.952Z" transform="translate(-208 -368)" fill="#003795"/>
        </g>
      </g>
      <g id="Group_2039" data-name="Group 2039">
        <g id="Group_2038" data-name="Group 2038">
          <path id="Path_4739" data-name="Path 4739" d="M71.57,76.872V59.642A19.9,19.9,0,0,0,51.69,39.761H50.246a15.957,15.957,0,0,0,1.336-1.325h1.433a6.634,6.634,0,0,0,6.627-6.627V29.474a5.954,5.954,0,0,0-.016-9.918,19.867,19.867,0,0,0-39.729,0,5.96,5.96,0,0,0,3.3,10.928h.9a15.877,15.877,0,0,0,5.181,9.278H27.833A19.9,19.9,0,0,0,7.952,59.642v17.23H0v2.651H79.522V76.872ZM56.991,31.809a3.968,3.968,0,0,1-3.445,3.922,15.762,15.762,0,0,0,1.879-5.247h.9a5.755,5.755,0,0,0,.663-.068Zm2.651-7.29a3.317,3.317,0,0,1-3.313,3.313h-.663V21.206h.663A3.317,3.317,0,0,1,59.642,24.519ZM23.857,27.833h-.663a3.313,3.313,0,1,1,0-6.627h.663Zm-.663-9.278a5.591,5.591,0,0,0-.6.061,17.211,17.211,0,0,1,34.332,0,5.591,5.591,0,0,0-.6-.061h-.9a15.884,15.884,0,0,0-31.329,0Zm29.82,2.618c-9.565-.337-15.9-4.248-15.9-7.919a1.325,1.325,0,0,0-2.651,0c0,3.312-3.425,6.057-7.875,6.543a13.252,13.252,0,0,1,26.429,1.376Zm-26.506,6.66V22.457c4.139-.359,7.651-2.355,9.4-5.15,2.773,3.674,9.252,6.26,17.1,6.523v4a13.171,13.171,0,0,1-2.676,7.952H39.761v2.651h7.918a13.245,13.245,0,0,1-21.172-10.6Zm9.157,15.35a15.424,15.424,0,0,0,8.193,0l-4.1,8.193Zm1.952,9.832H35.279l-5.3-10.6h2.338Zm9.59-10.6h2.338l-5.3,10.6H41.906ZM14.579,59.642v17.23H10.6V59.642A17.236,17.236,0,0,1,27.034,42.453l5.282,10.562H21.206A6.634,6.634,0,0,0,14.579,59.642Zm47.713,17.23H17.23V59.642a3.981,3.981,0,0,1,3.976-3.976h37.11a3.981,3.981,0,0,1,3.976,3.976Zm6.627,0H64.943V59.642a6.634,6.634,0,0,0-6.627-6.627H47.207l5.282-10.562A17.236,17.236,0,0,1,68.919,59.642Z" fill="#003795"/>
        </g>
      </g>
      <g id="Group_2041" data-name="Group 2041" transform="translate(56.991 64.943)">
        <g id="Group_2040" data-name="Group 2040">
          <rect id="Rectangle_503" data-name="Rectangle 503" width="2.651" height="9.278" fill="#003795"/>
        </g>
      </g>
      <g id="Group_2043" data-name="Group 2043" transform="translate(56.991 59.642)">
        <g id="Group_2042" data-name="Group 2042">
          <rect id="Rectangle_504" data-name="Rectangle 504" width="2.651" height="2.651" fill="#003795"/>
        </g>
      </g>
      <g id="Group_2045" data-name="Group 2045" transform="translate(68.919 11.928)">
        <g id="Group_2044" data-name="Group 2044">
          <rect id="Rectangle_505" data-name="Rectangle 505" width="2.651" height="2.651" fill="#003795"/>
        </g>
      </g>
      <g id="Group_2047" data-name="Group 2047" transform="translate(68.919 17.23)">
        <g id="Group_2046" data-name="Group 2046">
          <rect id="Rectangle_506" data-name="Rectangle 506" width="2.651" height="2.651" fill="#003795"/>
        </g>
      </g>
      <g id="Group_2049" data-name="Group 2049" transform="translate(68.919 22.531)">
        <g id="Group_2048" data-name="Group 2048">
          <rect id="Rectangle_507" data-name="Rectangle 507" width="2.651" height="2.651" fill="#003795"/>
        </g>
      </g>
      <g id="Group_2051" data-name="Group 2051" transform="translate(7.952 27.833)">
        <g id="Group_2050" data-name="Group 2050">
          <rect id="Rectangle_508" data-name="Rectangle 508" width="2.651" height="2.651" fill="#003795"/>
        </g>
      </g>
      <g id="Group_2053" data-name="Group 2053" transform="translate(7.952 33.134)">
        <g id="Group_2052" data-name="Group 2052">
          <rect id="Rectangle_509" data-name="Rectangle 509" width="2.651" height="2.651" fill="#003795"/>
        </g>
      </g>
      <g id="Group_2055" data-name="Group 2055" transform="translate(7.952 38.436)">
        <g id="Group_2054" data-name="Group 2054">
          <rect id="Rectangle_510" data-name="Rectangle 510" width="2.651" height="2.651" fill="#003795"/>
        </g>
      </g>
    </g>
  </g>
</svg>
