<svg xmlns="http://www.w3.org/2000/svg" width="130" height="130" viewBox="0 0 130 130">
  <g id="icon_collaborative" transform="translate(-1277 -1565)">
    <circle id="Ellipse_1541" data-name="Ellipse 1541" cx="65" cy="65" r="65" transform="translate(1277 1565)" fill="#e6fdf5" opacity="0.91"/>
    <g id="social-care" transform="translate(1300 1588)">
      <g id="Group_2057" data-name="Group 2057" transform="translate(12.665 77.818)">
        <g id="Group_2056" data-name="Group 2056">
          <path id="Path_4740" data-name="Path 4740" d="M82.113,474.993l-2.488-3.505a1.653,1.653,0,1,0-2.7,1.914l2.488,3.505a1.653,1.653,0,0,0,2.7-1.914Z" transform="translate(-76.624 -470.791)" fill="#32e2a9"/>
        </g>
      </g>
      <g id="Group_2059" data-name="Group 2059" transform="translate(0 25.86)">
        <g id="Group_2058" data-name="Group 2058" transform="translate(0)">
          <path id="Path_4741" data-name="Path 4741" d="M37.225,213.228l-2.708-12.907a24.342,24.342,0,0,0-10.295-15.282l-5.782-3.888a5.816,5.816,0,0,0-7.373.753V161.986a5.533,5.533,0,0,0-9-4.316A5.507,5.507,0,0,0,0,161.986v25.629a16.011,16.011,0,0,0,2.971,9.318l2.948,4.152a1.653,1.653,0,1,0,2.7-1.914l-2.948-4.152a12.722,12.722,0,0,1-2.361-7.4V161.986a2.227,2.227,0,1,1,4.455,0V182.32a11.549,11.549,0,0,0,2.979,7.754c.082.1.167.2.256.291,1.1,1.163,2.388,2.534,3.6,3.826L16.3,196l.017.016,2.552,2.715a1.653,1.653,0,1,0,2.41-2.263c-.03-.032-1.965-2.092-4.175-4.441L13.316,188l-.028-.031a2.789,2.789,0,0,1,.054-3.655,2.5,2.5,0,0,1,3.254-.415l5.782,3.888A21.053,21.053,0,0,1,31.282,201l2.708,12.907a1.653,1.653,0,1,0,3.235-.679Z" transform="translate(-0.001 -156.451)" fill="#32e2a9"/>
        </g>
      </g>
      <g id="Group_2061" data-name="Group 2061" transform="translate(9.237 72.989)">
        <g id="Group_2060" data-name="Group 2060">
          <path id="Path_4742" data-name="Path 4742" d="M58.893,442.283l-.011-.015a1.653,1.653,0,1,0-2.691,1.92l.011.015a1.653,1.653,0,1,0,2.691-1.92Z" transform="translate(-55.884 -441.575)" fill="#32e2a9"/>
        </g>
      </g>
      <g id="Group_2063" data-name="Group 2063" transform="translate(47.369 25.86)">
        <g id="Group_2062" data-name="Group 2062">
          <path id="Path_4743" data-name="Path 4743" d="M321.77,157.673a5.533,5.533,0,0,0-9,4.316v19.917a5.816,5.816,0,0,0-7.373-.753l-5.782,3.888a24.341,24.341,0,0,0-10.295,15.282l-2.708,12.907a1.653,1.653,0,1,0,3.235.679L292.559,201a21.053,21.053,0,0,1,8.9-13.217l5.782-3.888a2.5,2.5,0,0,1,3.254.415,2.789,2.789,0,0,1,.057,3.652l-.031.035-7.965,8.475a1.653,1.653,0,1,0,2.41,2.263c.022-.024,6.777-7.205,7.874-8.368.089-.095.174-.192.256-.291a11.55,11.55,0,0,0,2.979-7.754V161.988a2.228,2.228,0,1,1,4.455,0v25.629a12.723,12.723,0,0,1-2.361,7.4l-12.488,17.591a1.653,1.653,0,1,0,2.7,1.914l12.488-17.591a16.011,16.011,0,0,0,2.971-9.318V161.988A5.508,5.508,0,0,0,321.77,157.673Z" transform="translate(-286.58 -156.454)" fill="#32e2a9"/>
        </g>
      </g>
      <g id="Group_2065" data-name="Group 2065" transform="translate(15.436 8.926)">
        <g id="Group_2064" data-name="Group 2064">
          <path id="Path_4744" data-name="Path 4744" d="M141.2,76.754l-2.941-.7v-.527a7.393,7.393,0,0,0,3.164-6.061V65.64a7.392,7.392,0,0,0-12.2-5.623,9.651,9.651,0,0,0-17.887.013A7.392,7.392,0,0,0,99.13,65.639v3.823a7.393,7.393,0,0,0,3.165,6.061v.527l-2.941.7a7.743,7.743,0,0,0-5.963,7.556V87.4a1.653,1.653,0,0,0,1.653,1.653h7.6c-.012.2-.02.4-.02.605V95.6a1.653,1.653,0,0,0,1.653,1.653h9.936a1.653,1.653,0,1,0,0-3.306H112.5V90.529a1.653,1.653,0,1,0-3.306,0v3.416h-3.269V89.655a6.844,6.844,0,0,1,5.265-6.676l4.536-1.087,3.036,6.906a1.653,1.653,0,0,0,1.513.988h0a1.653,1.653,0,0,0,1.513-.988l3.032-6.9,4.522,1.08a6.843,6.843,0,0,1,5.27,6.677v4.286h-3.269V90.529a1.653,1.653,0,1,0-3.306,0v3.416h-1.873a1.653,1.653,0,0,0,0,3.306h10.1a1.653,1.653,0,0,0,1.653-1.653V89.66c0-.2-.008-.408-.02-.61h7.617a1.653,1.653,0,0,0,1.653-1.653V84.31A7.743,7.743,0,0,0,141.2,76.754ZM134.03,61.548a4.1,4.1,0,0,1,4.083,3.822h-2.3a12.048,12.048,0,0,1-5.542-1.351A4.1,4.1,0,0,1,134.03,61.548Zm-4.092,7.674c0-.08.006-.161.006-.242V67.507a15.354,15.354,0,0,0,5.871,1.168h2.307v.787a4.092,4.092,0,1,1-8.184,0Zm-16-5.567h0a6.349,6.349,0,0,1,12.618-1.009l-2.783-1.635a1.653,1.653,0,0,0-2.1.364,7.121,7.121,0,0,1-5.471,2.554H113.94Zm-7.412-2.107a4.1,4.1,0,0,1,3.757,2.471,12.048,12.048,0,0,1-5.542,1.351h-2.3A4.1,4.1,0,0,1,106.528,61.548Zm-4.092,7.128h2.307a15.355,15.355,0,0,0,5.877-1.17v1.958a4.092,4.092,0,0,1-8.184,0Zm7.984,11.089a10.137,10.137,0,0,0-7.024,5.98H96.7V84.31a4.448,4.448,0,0,1,3.426-4.341l4.21-1.006a1.653,1.653,0,0,0,1.269-1.608V76.8a7.175,7.175,0,0,0,1.848,0v.472c0,.025,0,.049,0,.074a1.655,1.655,0,0,0,1.343,1.626l2.466.591ZM115.03,77.2a7.755,7.755,0,0,0-1.323-.446l-2.953-.708v-.515a7.458,7.458,0,0,0,1.433-1.309,9.731,9.731,0,0,0,2.844,2.85Zm7.179,2.429-1.934,4.4-1.939-4.41v-1.18a9.687,9.687,0,0,0,3.873.006Zm-1.92-4.3a6.356,6.356,0,0,1-6.349-6.349V67.234H116.2a10.415,10.415,0,0,0,7.024-2.713l3.409,2v2.7A6.355,6.355,0,0,1,120.289,75.328Zm5.226,1.875v-.112a9.728,9.728,0,0,0,2.867-2.857,7.456,7.456,0,0,0,1.421,1.295v.515l-2.953.708A7.783,7.783,0,0,0,125.515,77.2Zm18.346,8.541h-6.722a10.135,10.135,0,0,0-7.029-5.977l-.83-.2,2.479-.594a1.655,1.655,0,0,0,1.35-1.628c0-.013,0-.026,0-.039V76.8a7.175,7.175,0,0,0,1.848,0v.556a1.653,1.653,0,0,0,1.269,1.608l4.21,1.006a4.448,4.448,0,0,1,3.426,4.341Z" transform="translate(-93.39 -54)" fill="#32e2a9"/>
        </g>
      </g>
      <g id="Group_2067" data-name="Group 2067" transform="translate(40.662 48.872)">
        <g id="Group_2066" data-name="Group 2066">
          <path id="Path_4745" data-name="Path 4745" d="M248.821,296.153a1.654,1.654,0,1,0,.484,1.17A1.666,1.666,0,0,0,248.821,296.153Z" transform="translate(-246 -295.67)" fill="#32e2a9"/>
        </g>
      </g>
      <g id="Group_2069" data-name="Group 2069" transform="translate(40.66)">
        <g id="Group_2068" data-name="Group 2068">
          <path id="Path_4746" data-name="Path 4746" d="M247.646,0a1.653,1.653,0,0,0-1.653,1.653V4.126a1.653,1.653,0,1,0,3.306,0V1.653A1.653,1.653,0,0,0,247.646,0Z" transform="translate(-245.993)" fill="#32e2a9"/>
        </g>
      </g>
      <g id="Group_2071" data-name="Group 2071" transform="translate(31.67 3.176)">
        <g id="Group_2070" data-name="Group 2070">
          <path id="Path_4747" data-name="Path 4747" d="M196.154,21.429,194.42,19.7a1.653,1.653,0,1,0-2.336,2.339l1.734,1.732a1.653,1.653,0,1,0,2.336-2.339Z" transform="translate(-191.599 -19.213)" fill="#32e2a9"/>
        </g>
      </g>
      <g id="Group_2073" data-name="Group 2073" transform="translate(47.892 3.218)">
        <g id="Group_2072" data-name="Group 2072">
          <path id="Path_4748" data-name="Path 4748" d="M294.287,19.953a1.653,1.653,0,0,0-2.338,0l-1.721,1.722a1.653,1.653,0,1,0,2.339,2.336l1.721-1.722A1.653,1.653,0,0,0,294.287,19.953Z" transform="translate(-289.746 -19.469)" fill="#32e2a9"/>
        </g>
      </g>
    </g>
  </g>
</svg>
