<?xml version="1.0" encoding="iso-8859-1"?>
<!-- Generator: Adobe Illustrator 19.0.0, SVG Export Plug-In . SVG Version: 6.00 Build 0)  -->
<svg version="1.1" id="Layer_1" xmlns="http://www.w3.org/2000/svg" xmlns:xlink="http://www.w3.org/1999/xlink" x="0px" y="0px"
	 viewBox="0 0 511.998 511.998" style="enable-background:new 0 0 511.998 511.998;" xml:space="preserve">
<path style="fill:#B5E5BC;" d="M423.283,255.885c0,107.21-86.913,194.12-194.126,194.12S35.031,363.095,35.031,255.885
	S121.944,61.766,229.156,61.766S423.283,148.677,423.283,255.885z"/>
<path style="fill:#FC8059;" d="M240.399,8.095c128.051,5.712,230.846,108.504,236.558,236.55
	c0.274,6.129-4.649,11.241-10.783,11.241H229.156V18.877C229.156,12.742,234.27,7.821,240.399,8.095z"/>
<path style="fill:#84A7B7;" d="M470.65,436.604l-93.123-93.36c-8.424-8.424-22.081-8.424-30.504,0l-24.335-24.335
	c29.805-44.048,25.212-104.426-13.795-143.432c-44.223-44.222-115.922-44.222-160.146,0s-44.223,115.919,0,160.141
	c39.007,39.006,99.387,43.599,143.437,13.795l24.335,24.335c-8.424,8.423-8.424,22.08,0,30.503l93.123,93.36
	c8.424,8.423,22.081,8.423,30.504,0l30.504-30.503C479.073,458.684,479.073,445.028,470.65,436.604z"/>
<path style="fill:#256277;" d="M322.687,318.911l24.336,24.335l-30.504,30.503l-24.336-24.335
	c5.891-3.986,11.492-8.578,16.71-13.795C314.11,330.403,318.703,324.802,322.687,318.911z"/>
<path style="fill:#C3E4ED;" d="M304.314,255.549c0,41.693-33.8,75.491-75.494,75.491s-75.494-33.798-75.494-75.491
	s33.8-75.491,75.494-75.491S304.314,213.856,304.314,255.549z"/>
<path style="fill:#DCF3F9;" d="M274.03,195.088c11.772,8.816,20.872,20.993,25.904,35.103l-96.474,96.471
	c-14.11-5.032-26.288-14.132-35.104-25.903L274.03,195.088z M157.705,280.908c1.263,3.543,2.78,6.964,4.536,10.24l102.178-102.175
	c-3.276-1.755-6.697-3.272-10.24-4.536L157.705,280.908z"/>
<path style="fill:#FED766;" d="M304.305,255.885h-64.364c-5.956,0-10.784-4.828-10.784-10.784v-65.035
	c19.208,0.085,38.39,7.448,53.045,22.103C297.028,216.995,304.391,236.454,304.305,255.885z"/>
<path style="fill:#FFFFFF;" d="M229.156,199.1c11.913,0,21.57,9.657,21.57,21.569c0,11.912-9.657,21.569-21.57,21.569
	c-11.913,0-21.57-9.657-21.57-21.569C207.587,208.756,217.245,199.1,229.156,199.1z"/>
<path style="fill:#4C4C4C;" d="M476.373,430.895l-72.681-72.866c16.769-28.595,26.198-60.841,27.515-94.059h34.965
	c5.13,0,10.105-2.127,13.653-5.835c3.588-3.752,5.438-8.671,5.207-13.851c-2.852-63.951-29.403-124.15-74.762-169.507
	C364.912,29.422,304.71,2.871,240.758,0.019c-5.214-0.229-10.1,1.619-13.852,5.208c-3.708,3.546-5.835,8.522-5.835,13.652v34.964
	C113.308,58.1,26.947,147.098,26.947,255.885c0,111.495,90.711,202.204,202.211,202.204c36.034,0,71.185-9.535,102.081-27.635
	l72.688,72.872c5.782,5.782,13.373,8.672,20.968,8.672c7.593,0,15.188-2.891,20.967-8.672l30.505-30.503
	c5.6-5.601,8.685-13.047,8.685-20.968C485.051,443.935,481.967,436.488,476.373,430.895z M391.852,346.16l-8.602-8.624
	c-0.002-0.002-0.004-0.004-0.007-0.006c-5.601-5.601-13.047-8.686-20.968-8.686c-5.148,0-10.097,1.303-14.467,3.753l-14.796-14.795
	c9.755-16.26,15.538-34.607,16.848-53.831h65.166C413.778,292.885,405.854,320.975,391.852,346.16z M335.59,343.245l-19.07,19.07
	l-11.971-11.971c3.479-2.783,6.839-5.786,10.061-9.009c3.209-3.208,6.217-6.567,9.016-10.056L335.59,343.245z M237.242,18.878
	c0-1.011,0.527-1.666,0.842-1.967c0.307-0.294,0.947-0.795,1.955-0.739c124.89,5.569,223.272,103.947,228.842,228.833
	c0.043,0.983-0.445,1.647-0.741,1.955c-0.301,0.315-0.957,0.842-1.968,0.842h-116.27c-1.846-29.49-14.215-56.961-35.294-78.038
	c-21.513-21.513-49.164-33.242-77.367-35.188L237.242,18.878L237.242,18.878z M228.82,150.446c26.927,0,53.856,10.25,74.356,30.75
	c19.861,19.86,30.799,46.266,30.799,74.353c0,0.024,0,0.05,0,0.073c-0.003,0.087-0.004,0.176-0.004,0.263
	c0,0.072,0.001,0.143,0.003,0.216c-0.107,20.898-6.27,40.845-17.66,57.834c-0.23,0.292-0.434,0.597-0.618,0.911
	c-3.661,5.339-7.843,10.38-12.52,15.056c-4.811,4.81-9.971,9.053-15.405,12.734c-0.071,0.047-0.144,0.096-0.215,0.146
	c-17.683,11.915-38.206,17.871-58.737,17.869c-26.925-0.002-53.859-10.252-74.356-30.75c-19.861-19.86-30.799-46.266-30.799-74.353
	s10.937-54.493,30.799-74.353c0,0,0,0,0.001,0C174.963,160.695,201.892,150.446,228.82,150.446z M229.158,441.921
	c-102.584,0-186.042-83.456-186.042-186.036c0-99.869,79.113-181.611,177.958-185.862v64.507
	c-28.439,1.802-56.356,13.546-78.041,35.232c-22.916,22.914-35.536,53.381-35.536,85.786s12.62,62.873,35.535,85.786
	c40.075,40.074,101.434,46.201,148.018,18.376l14.822,14.821c-2.45,4.371-3.753,9.318-3.753,14.466
	c0,7.92,3.085,15.368,8.679,20.961l8.609,8.632C291.887,433.882,260.895,441.921,229.158,441.921z M464.934,461.39l-30.505,30.503
	c-2.546,2.547-5.933,3.949-9.535,3.949s-6.988-1.402-9.529-3.943l-77.053-77.248c-0.079-0.083-0.16-0.164-0.243-0.243
	l-15.834-15.874c-2.546-2.547-3.949-5.933-3.949-9.535c0-3.601,1.403-6.988,3.949-9.534l30.505-30.503
	c5.256-5.257,13.811-5.259,19.069,0l15.833,15.873c0.077,0.08,0.155,0.158,0.235,0.235l77.055,77.251
	c2.546,2.547,3.948,5.933,3.948,9.535C468.882,455.457,467.48,458.844,464.934,461.39z M169.722,314.646
	c16.292,16.292,37.696,24.439,59.098,24.439s42.805-8.147,59.098-24.439c15.787-15.786,24.48-36.773,24.48-59.097
	c0-22.324-8.693-43.312-24.48-59.097c-32.585-32.586-85.611-32.586-118.195,0c-15.787,15.785-24.48,36.773-24.48,59.098
	C145.242,277.873,153.936,298.86,169.722,314.646z M181.153,207.886L181.153,207.886c13.142-13.142,30.404-19.713,47.667-19.713
	s34.524,6.571,47.667,19.713c12.732,12.731,19.743,29.658,19.743,47.663s-7.012,34.932-19.743,47.663
	c-26.284,26.281-69.049,26.282-95.332,0c-12.732-12.731-19.743-29.658-19.743-47.662
	C161.411,237.544,168.422,220.617,181.153,207.886z"/>
<g>
</g>
<g>
</g>
<g>
</g>
<g>
</g>
<g>
</g>
<g>
</g>
<g>
</g>
<g>
</g>
<g>
</g>
<g>
</g>
<g>
</g>
<g>
</g>
<g>
</g>
<g>
</g>
<g>
</g>
</svg>
