<svg id="Layer_1" enable-background="new 0 0 256 256" height="512" viewBox="0 0 256 256" width="512" xmlns="http://www.w3.org/2000/svg"><g><g><circle cx="128" cy="31.082" fill="#63bce7" r="21.751"/><circle cx="128" cy="128" fill="#f8af23" r="48.657"/><g><path d="m128 79.343c-1.591 0-3.162.082-4.714.231 24.66 2.372 43.943 23.144 43.943 48.426 0 25.281-19.283 46.054-43.943 48.426 1.552.149 3.123.231 4.714.231 26.872 0 48.657-21.784 48.657-48.657s-21.784-48.657-48.657-48.657z" fill="#f8d323"/></g><path d="m88.771 128c0-25.282 19.283-46.054 43.943-48.426-1.552-.149-3.123-.231-4.714-.231-26.872 0-48.657 21.784-48.657 48.657s21.784 48.657 48.657 48.657c1.591 0 3.162-.082 4.714-.231-24.659-2.372-43.943-23.145-43.943-48.426z" fill="#f87023"/><g fill="#63bce7"><path d="m98.063 156.265c0-16.534 13.403-29.937 29.937-29.937s29.937 13.403 29.937 29.937z"/><circle cx="128" cy="110.347" r="15.981"/></g><g><path d="m128 16.053v15.03h-15.03c0 8.301 6.729 15.03 15.03 15.03s15.03-6.729 15.03-15.03-6.729-15.03-15.03-15.03z" fill="#9e9e9e"/><path d="m128 16.053c-8.301 0-15.03 6.729-15.03 15.03h15.03z" fill="#f8af23"/></g><circle cx="128" cy="224.918" fill="#63bce7" r="21.751"/><circle cx="128" cy="224.918" fill="#63bce7" r="21.751"/><g fill="#f46275"><ellipse cx="59.469" cy="59.469" rx="21.751" ry="21.751" transform="matrix(.707 -.707 .707 .707 -24.633 59.469)"/><ellipse cx="196.531" cy="196.531" rx="21.751" ry="21.751" transform="matrix(.707 -.707 .707 .707 -81.406 196.531)"/><ellipse cx="196.531" cy="59.469" rx="21.751" ry="21.751" transform="matrix(.707 -.707 .707 .707 15.512 156.387)"/><ellipse cx="59.469" cy="196.531" rx="21.751" ry="21.751" transform="matrix(.707 -.707 .707 .707 -121.551 99.613)"/></g><circle cx="224.918" cy="128" fill="#f8af23" r="21.751"/><path d="m235.66 123.268c0-6.096-5.078-11.006-11.235-10.731-5.474.245-9.934 4.66-10.233 10.131-.115 2.103.378 4.081 1.315 5.78l-.002-.001 6.704 13.355c1.119 2.229 4.3 2.229 5.418 0l6.704-13.355-.002.001c.847-1.536 1.331-3.302 1.331-5.18z" fill="#f46275"/><circle cx="224.918" cy="123.347" fill="#63bce7" r="5.516"/><circle cx="31.082" cy="128" fill="#f8af23" r="21.751"/><path d="m185.634 51.911h21.795v19.654h-21.795z" fill="#f8af23"/><g><path d="m212.033 203.854c0 1.739-1.423 3.162-3.162 3.162h-24.679c-1.739 0-3.162-1.423-3.162-3.162v-14.645c0-1.739 1.423-3.162 3.162-3.162h24.679c1.739 0 3.162 1.423 3.162 3.162z" fill="#9e9e9e"/><path d="m181.987 206.11c.571.558 1.348.905 2.205.905h24.679c.856 0 1.634-.348 2.205-.905l-14.544-13.754z" fill="#f46275"/><path d="m211.075 186.952c-.571-.558-1.348-.905-2.205-.905h-24.679c-.856 0-1.634.347-2.205.905l14.544 13.754z" fill="#63bce7"/></g><circle cx="140.438" cy="223.78" fill="#f8af23" r="4.283"/><path d="m135.493 233.847-10.018-5.257v-9.624l10.018-5.257z" fill="#63bce7"/><path d="m135.493 213.709h4.945v20.138h-4.945z" fill="#f46275"/><path d="m117.05 218.966h8.425v9.628h-8.425z" fill="#f8af23"/><path d="m112.187 221.37h4.863v4.816h-4.863z" fill="#f46275"/><path d="m118.434 228.594h5.658v7.532h-5.658z" fill="#63bce7"/></g><g fill="#321f7a"><path d="m98.063 157.765h59.874c.828 0 1.5-.671 1.5-1.5 0-14.566-9.959-26.847-23.425-30.399 5.616-2.911 9.469-8.769 9.469-15.519 0-9.639-7.842-17.481-17.48-17.481-9.639 0-17.481 7.842-17.481 17.481 0 6.75 3.853 12.607 9.469 15.519-13.466 3.552-23.425 15.833-23.425 30.399-.001.828.67 1.5 1.499 1.5zm15.456-47.418c0-7.985 6.496-14.481 14.481-14.481 7.984 0 14.48 6.496 14.48 14.481 0 7.984-6.496 14.48-14.48 14.48-7.985.001-14.481-6.495-14.481-14.48zm14.481 17.481c15.177 0 27.614 11.952 28.397 26.937h-56.795c.783-14.986 13.221-26.937 28.398-26.937z"/><path d="m144.529 31.082c0-9.114-7.415-16.529-16.529-16.529s-16.529 7.415-16.529 16.529c0 9.115 7.415 16.53 16.529 16.53s16.529-7.415 16.529-16.53zm-18.029-13.447v11.947h-11.947c.694-6.265 5.682-11.253 11.947-11.947zm-11.947 14.947h13.447c.829 0 1.5-.671 1.5-1.5v-13.447c6.757.749 12.029 6.494 12.029 13.447 0 7.46-6.069 13.53-13.529 13.53-6.953 0-12.698-5.273-13.447-12.03z"/><path d="m214.164 129.12 6.704 13.354c.773 1.542 2.325 2.5 4.05 2.5s3.276-.958 4.05-2.499l6.704-13.355c.002-.004.004-.007.006-.011.97-1.784 1.482-3.802 1.482-5.841 0-3.374-1.343-6.516-3.782-8.848-2.438-2.332-5.651-3.529-9.021-3.381-6.201.277-11.324 5.35-11.663 11.548-.123 2.274.381 4.523 1.458 6.51.004.007.008.015.012.023zm10.328-15.084c2.537-.106 4.973.792 6.812 2.552 1.842 1.761 2.855 4.133 2.855 6.68 0 1.558-.396 3.098-1.145 4.455-.021.037-.039.075-.057.113l-6.673 13.294c-.266.528-.776.844-1.368.844s-1.103-.316-1.368-.845l-6.667-13.28c-.019-.042-.039-.084-.062-.125-.835-1.513-1.226-3.233-1.131-4.974.257-4.678 4.124-8.505 8.804-8.714z"/><path d="m224.918 130.362c3.868 0 7.016-3.147 7.016-7.016s-3.147-7.016-7.016-7.016-7.016 3.147-7.016 7.016 3.148 7.016 7.016 7.016zm0-11.031c2.214 0 4.016 1.801 4.016 4.016s-1.802 4.016-4.016 4.016-4.016-1.801-4.016-4.016 1.802-4.016 4.016-4.016z"/><path d="m185.634 73.065h21.795c.828 0 1.5-.671 1.5-1.5v-19.654c0-.829-.672-1.5-1.5-1.5h-3.755c-.694-3.307-3.632-5.799-7.142-5.799s-6.448 2.492-7.142 5.799h-3.755c-.828 0-1.5.671-1.5 1.5v19.654c-.001.829.671 1.5 1.499 1.5zm12.772-19.654v16.654h-3.752v-16.654zm7.523 16.654h-4.522v-16.654h.924 3.599v16.654zm-9.398-22.453c1.843 0 3.419 1.166 4.029 2.799h-8.059c.611-1.633 2.187-2.799 4.03-2.799zm-9.397 5.799h3.599.922v16.654h-4.521z"/><path d="m179.53 189.209v14.645c0 2.571 2.091 4.662 4.661 4.662h24.68c2.57 0 4.662-2.091 4.662-4.662v-14.645c0-2.571-2.092-4.662-4.662-4.662h-24.68c-2.57 0-4.661 2.091-4.661 4.662zm31.003 14.324-7.404-7.002 7.404-7.002zm-15.032-1.737c.289.273.659.41 1.03.41s.741-.137 1.03-.41l3.385-3.201 7.318 6.92h-23.465l7.318-6.92zm1.03-3.154-11.732-11.095h23.466zm-6.597-2.111-7.403 7.001v-14.002z"/><path d="m146.221 223.78c0-2.674-1.786-4.917-4.283-5.578v-4.493c0-.829-.672-1.5-1.5-1.5h-4.944c-.253 0-.488.069-.697.179v-.008l-9.69 5.085h-8.056c-.829 0-1.5.671-1.5 1.5v.904h-3.363c-.829 0-1.5.671-1.5 1.5v4.816c0 .829.671 1.5 1.5 1.5h3.363v.908c0 .789.61 1.428 1.383 1.488v6.043c0 .829.671 1.5 1.5 1.5h5.658c.829 0 1.5-.671 1.5-1.5v-5.781l9.204 4.83v-.008c.209.111.444.179.697.179h4.944c.828 0 1.5-.671 1.5-1.5v-4.483c2.473-.663 4.284-2.935 4.284-5.581zm-27.671-3.314h5.425v6.628h-5.425v-.908-4.816zm-4.862 4.221v-1.816h1.863v1.816zm8.904 9.939h-2.658v-4.532h2.658zm4.383-14.753 7.018-3.683v15.176l-7.018-3.683zm16.246 3.907c0 .972-.514 1.831-1.283 2.33v-4.656c.768.501 1.283 1.361 1.283 2.326zm-4.283 8.567h-1.944v-17.138h1.944z"/><path d="m65.145 182.865h-11.352c-4.406 0-7.991 3.584-7.991 7.991v11.352c0 4.406 3.584 7.991 7.991 7.991h11.352c4.406 0 7.991-3.584 7.991-7.991v-11.352c-.001-4.407-3.585-7.991-7.991-7.991zm4.99 19.342c0 2.752-2.239 4.991-4.991 4.991h-11.351c-2.752 0-4.991-2.239-4.991-4.991v-11.352c0-2.752 2.239-4.991 4.991-4.991h11.352c2.752 0 4.991 2.239 4.991 4.991v11.352z"/><path d="m59.469 189.719c-3.756 0-6.812 3.056-6.812 6.812s3.056 6.812 6.812 6.812 6.812-3.056 6.812-6.812-3.056-6.812-6.812-6.812zm0 10.625c-2.102 0-3.812-1.71-3.812-3.812s1.71-3.812 3.812-3.812 3.812 1.71 3.812 3.812-1.71 3.812-3.812 3.812z"/><circle cx="66.128" cy="189.262" r="1.104"/><path d="m33.896 120.082h2.102c.829 0 1.5-.671 1.5-1.5s-.671-1.5-1.5-1.5h-2.102c-2.872 0-5.208 2.336-5.208 5.208v1.624h-2.522c-.829 0-1.5.671-1.5 1.5s.671 1.5 1.5 1.5h2.522v10.504c0 .829.671 1.5 1.5 1.5s1.5-.671 1.5-1.5v-10.504h4.055c.829 0 1.5-.671 1.5-1.5s-.671-1.5-1.5-1.5h-4.055v-1.624c0-1.217.991-2.208 2.208-2.208z"/><path d="m58.527 51.819c-.779-.78-1.941-1.011-2.962-.589-1.02.422-1.678 1.408-1.678 2.512v11.455c0 1.104.659 2.089 1.678 2.512.338.14.692.208 1.043.208.706 0 1.398-.276 1.919-.797l5.728-5.728c1.06-1.06 1.06-2.784 0-3.844zm-1.641 12.698v-10.097l5.048 5.048z"/><path d="m27.323 245.169h-18.003c-.829 0-1.5.671-1.5 1.5s.671 1.5 1.5 1.5h18.003c.829 0 1.5-.671 1.5-1.5s-.671-1.5-1.5-1.5z"/><path d="m246.68 245.169h-18.003c-.828 0-1.5.671-1.5 1.5s.672 1.5 1.5 1.5h18.003c.828 0 1.5-.671 1.5-1.5s-.672-1.5-1.5-1.5z"/><path d="m218.479 245.169h-79.076c7.065-3.994 11.848-11.572 11.848-20.251 0-12.316-9.628-22.421-21.751-23.198v-23.601c12.698-.376 24.22-5.488 32.864-13.634l16.719 16.719c-8.02 9.122-7.701 23.06 1.007 31.768 4.533 4.533 10.487 6.799 16.441 6.799s11.908-2.267 16.441-6.799c9.065-9.065 9.065-23.816 0-32.882-8.708-8.708-22.646-9.027-31.768-1.007l-16.719-16.719c8.146-8.644 13.258-20.167 13.634-32.865h23.601c.776 12.124 10.881 21.751 23.197 21.751 12.82 0 23.251-10.43 23.251-23.251s-10.431-23.251-23.251-23.251c-12.316 0-22.421 9.627-23.197 21.751h-23.601c-.376-12.697-5.487-24.22-13.633-32.864l16.719-16.719c4.374 3.845 9.843 5.792 15.327 5.792 5.954 0 11.908-2.267 16.441-6.799 9.065-9.065 9.065-23.816 0-32.882-9.066-9.065-23.816-9.065-32.883 0-8.708 8.708-9.027 22.646-1.006 31.768l-16.719 16.719c-8.644-8.146-20.167-13.259-32.865-13.634v-23.6c12.123-.776 21.751-10.881 21.751-23.198 0-12.821-10.431-23.251-23.251-23.251-12.821 0-23.251 10.43-23.251 23.251 0 12.316 9.627 22.421 21.751 23.198v23.601c-12.698.376-24.22 5.488-32.864 13.634l-16.717-16.717c3.738-4.244 5.802-9.622 5.802-15.329 0-6.211-2.419-12.05-6.811-16.441-4.391-4.392-10.23-6.811-16.441-6.811s-12.05 2.419-16.441 6.811c-4.392 4.391-6.811 10.23-6.811 16.441s2.419 12.05 6.811 16.441c4.391 4.392 10.23 6.811 16.441 6.811 5.707 0 11.085-2.063 15.329-5.802l16.717 16.717c-8.146 8.644-13.258 20.167-13.634 32.864h-23.601c-.776-12.124-10.881-21.751-23.198-21.751-12.821 0-23.251 10.43-23.251 23.251s10.43 23.251 23.251 23.251c12.316 0 22.421-9.627 23.198-21.751h23.601c.376 12.698 5.488 24.221 13.635 32.865l-16.717 16.717c-4.244-3.738-9.622-5.802-15.33-5.802-6.211 0-12.05 2.419-16.441 6.811-4.392 4.391-6.811 10.23-6.811 16.441s2.419 12.05 6.811 16.441c4.391 4.392 10.23 6.811 16.441 6.811s12.05-2.419 16.441-6.811c4.392-4.391 6.811-10.23 6.811-16.441 0-5.706-2.063-11.084-5.801-15.328l16.717-16.717c8.644 8.146 20.166 13.258 32.863 13.633v23.601c-12.124.776-21.751 10.881-21.751 23.198 0 8.679 4.783 16.257 11.848 20.251h-79.076c-.829 0-1.5.671-1.5 1.5s.671 1.5 1.5 1.5h180.959c.828 0 1.5-.671 1.5-1.5s-.672-1.501-1.501-1.501zm-7.627-62.958c7.896 7.896 7.896 20.744 0 28.64s-20.745 7.895-28.641 0c-7.896-7.896-7.896-20.744 0-28.64 3.948-3.948 9.134-5.922 14.32-5.922s10.372 1.975 14.321 5.922zm14.066-74.462c11.166 0 20.251 9.084 20.251 20.251s-9.085 20.251-20.251 20.251-20.251-9.084-20.251-20.251 9.085-20.251 20.251-20.251zm-42.707-62.6c3.948-3.948 9.134-5.922 14.32-5.922s10.373 1.975 14.32 5.922c7.896 7.896 7.896 20.744 0 28.64-7.895 7.895-20.742 7.895-28.638.002-.001-.001-.001-.001-.001-.002-.001-.001-.002-.001-.002-.002-7.894-7.896-7.894-20.743.001-28.638zm-74.462-14.067c0-11.167 9.084-20.251 20.251-20.251 11.166 0 20.251 9.084 20.251 20.251s-9.085 20.251-20.251 20.251c-11.167 0-20.251-9.084-20.251-20.251zm-62.6 42.707c-3.825-3.825-5.932-8.911-5.932-14.32s2.106-10.495 5.932-14.32 8.911-5.932 14.32-5.932 10.495 2.106 14.32 5.932 5.932 8.911 5.932 14.32-2.106 10.495-5.932 14.32-8.911 5.932-14.32 5.932-10.495-2.107-14.32-5.932zm-14.067 74.462c-11.167 0-20.251-9.084-20.251-20.251s9.084-20.251 20.251-20.251 20.251 9.084 20.251 20.251-9.084 20.251-20.251 20.251zm96.918-67.408c26.003 0 47.157 21.155 47.157 47.157s-21.154 47.157-47.157 47.157c-26.002 0-47.157-21.155-47.157-47.157s21.155-47.157 47.157-47.157zm-54.211 130.008c-3.825 3.825-8.911 5.932-14.32 5.932s-10.495-2.106-14.32-5.932-5.932-8.911-5.932-14.32 2.106-10.495 5.932-14.32 8.911-5.932 14.32-5.932 10.494 2.106 14.319 5.931c0 0 .001.001.001.001s.001 0 .001.001c3.824 3.825 5.93 8.91 5.93 14.318 0 5.41-2.106 10.496-5.931 14.321zm33.96 14.067c0-11.167 9.084-20.251 20.251-20.251 11.166 0 20.251 9.085 20.251 20.251s-9.085 20.251-20.251 20.251c-11.167 0-20.251-9.085-20.251-20.251z"/><path d="m9.32 232.669h79.68c.829 0 1.5-.671 1.5-1.5s-.671-1.5-1.5-1.5h-79.68c-.829 0-1.5.671-1.5 1.5s.671 1.5 1.5 1.5z"/><path d="m166.989 229.669c-.828 0-1.5.671-1.5 1.5s.672 1.5 1.5 1.5h79.68c.828 0 1.5-.671 1.5-1.5s-.672-1.5-1.5-1.5z"/></g></g></svg>