<svg id="icon_basic" xmlns="http://www.w3.org/2000/svg" width="57.826" height="56.862" viewBox="0 0 57.826 56.862">
  <path id="Path_11862" data-name="Path 11862" d="M10.337,6.5a4.337,4.337,0,1,0,4.337,4.337A4.342,4.342,0,0,0,10.337,6.5Zm0,6.746a2.409,2.409,0,1,1,2.409-2.409A2.412,2.412,0,0,1,10.337,13.246Z" transform="translate(-0.217 -0.717)" fill="#f9556d"/>
  <g id="Group_8642" data-name="Group 8642">
    <circle id="Ellipse_1836" data-name="Ellipse 1836" cx="1" cy="1" r="1" transform="translate(47.197 7.014)" fill="#f9556d"/>
    <circle id="Ellipse_1879" data-name="Ellipse 1879" cx="1" cy="1" r="1" transform="translate(47.197 11.014)" fill="#f9556d"/>
    <circle id="Ellipse_1837" data-name="Ellipse 1837" cx="1" cy="1" r="1" transform="translate(43.197 7.014)" fill="#f9556d"/>
    <circle id="Ellipse_1878" data-name="Ellipse 1878" cx="1" cy="1" r="1" transform="translate(43.197 11.014)" fill="#f9556d"/>
    <circle id="Ellipse_1840" data-name="Ellipse 1840" cx="1" cy="1" r="1" transform="translate(39.197 7.014)" fill="#f9556d"/>
    <circle id="Ellipse_1877" data-name="Ellipse 1877" cx="1" cy="1" r="1" transform="translate(39.197 11.014)" fill="#f9556d"/>
    <circle id="Ellipse_1842" data-name="Ellipse 1842" cx="1" cy="1" r="1" transform="translate(35.197 7.014)" fill="#f9556d"/>
    <circle id="Ellipse_1876" data-name="Ellipse 1876" cx="1" cy="1" r="1" transform="translate(35.197 11.014)" fill="#f9556d"/>
    <circle id="Ellipse_1844" data-name="Ellipse 1844" cx="1" cy="1" r="1" transform="translate(31.197 7.014)" fill="#f9556d"/>
    <circle id="Ellipse_1875" data-name="Ellipse 1875" cx="1" cy="1" r="1" transform="translate(31.197 11.014)" fill="#f9556d"/>
  </g>
  <g id="Group_8643" data-name="Group 8643" transform="translate(0 18)">
    <circle id="Ellipse_1836-2" data-name="Ellipse 1836" cx="1" cy="1" r="1" transform="translate(47.197 7.014)" fill="#f9556d"/>
    <circle id="Ellipse_1879-2" data-name="Ellipse 1879" cx="1" cy="1" r="1" transform="translate(47.197 11.014)" fill="#f9556d"/>
    <circle id="Ellipse_1837-2" data-name="Ellipse 1837" cx="1" cy="1" r="1" transform="translate(43.197 7.014)" fill="#f9556d"/>
    <circle id="Ellipse_1878-2" data-name="Ellipse 1878" cx="1" cy="1" r="1" transform="translate(43.197 11.014)" fill="#f9556d"/>
    <circle id="Ellipse_1840-2" data-name="Ellipse 1840" cx="1" cy="1" r="1" transform="translate(39.197 7.014)" fill="#f9556d"/>
    <circle id="Ellipse_1877-2" data-name="Ellipse 1877" cx="1" cy="1" r="1" transform="translate(39.197 11.014)" fill="#f9556d"/>
    <circle id="Ellipse_1842-2" data-name="Ellipse 1842" cx="1" cy="1" r="1" transform="translate(35.197 7.014)" fill="#f9556d"/>
    <circle id="Ellipse_1876-2" data-name="Ellipse 1876" cx="1" cy="1" r="1" transform="translate(35.197 11.014)" fill="#f9556d"/>
    <circle id="Ellipse_1844-2" data-name="Ellipse 1844" cx="1" cy="1" r="1" transform="translate(31.197 7.014)" fill="#f9556d"/>
    <circle id="Ellipse_1875-2" data-name="Ellipse 1875" cx="1" cy="1" r="1" transform="translate(31.197 11.014)" fill="#f9556d"/>
  </g>
  <g id="Group_8644" data-name="Group 8644" transform="translate(0 37)">
    <circle id="Ellipse_1836-3" data-name="Ellipse 1836" cx="1" cy="1" r="1" transform="translate(47.197 7.014)" fill="#f9556d"/>
    <circle id="Ellipse_1879-3" data-name="Ellipse 1879" cx="1" cy="1" r="1" transform="translate(47.197 11.014)" fill="#f9556d"/>
    <circle id="Ellipse_1837-3" data-name="Ellipse 1837" cx="1" cy="1" r="1" transform="translate(43.197 7.014)" fill="#f9556d"/>
    <circle id="Ellipse_1878-3" data-name="Ellipse 1878" cx="1" cy="1" r="1" transform="translate(43.197 11.014)" fill="#f9556d"/>
    <circle id="Ellipse_1840-3" data-name="Ellipse 1840" cx="1" cy="1" r="1" transform="translate(39.197 7.014)" fill="#f9556d"/>
    <circle id="Ellipse_1877-3" data-name="Ellipse 1877" cx="1" cy="1" r="1" transform="translate(39.197 11.014)" fill="#f9556d"/>
    <circle id="Ellipse_1842-3" data-name="Ellipse 1842" cx="1" cy="1" r="1" transform="translate(35.197 7.014)" fill="#f9556d"/>
    <circle id="Ellipse_1876-3" data-name="Ellipse 1876" cx="1" cy="1" r="1" transform="translate(35.197 11.014)" fill="#f9556d"/>
    <circle id="Ellipse_1844-3" data-name="Ellipse 1844" cx="1" cy="1" r="1" transform="translate(31.197 7.014)" fill="#f9556d"/>
    <circle id="Ellipse_1875-3" data-name="Ellipse 1875" cx="1" cy="1" r="1" transform="translate(31.197 11.014)" fill="#f9556d"/>
  </g>
  <path id="Path_11863" data-name="Path 11863" d="M57.826,16.3V4.941A4.446,4.446,0,0,0,53.385.5H4.441A4.446,4.446,0,0,0,0,4.941V16.3a4.415,4.415,0,0,0,1.713,3.477A4.42,4.42,0,0,0,0,23.253V34.609a4.415,4.415,0,0,0,1.713,3.477A4.42,4.42,0,0,0,0,41.564V52.92a4.446,4.446,0,0,0,4.441,4.442H53.384a4.446,4.446,0,0,0,4.441-4.441V41.564a4.415,4.415,0,0,0-1.713-3.477,4.414,4.414,0,0,0,1.714-3.477V23.253a4.415,4.415,0,0,0-1.713-3.477A4.416,4.416,0,0,0,57.826,16.3ZM55.9,41.564V52.92a2.516,2.516,0,0,1-2.514,2.514H4.441a2.515,2.515,0,0,1-2.513-2.513V41.564a2.516,2.516,0,0,1,2.513-2.514H53.384A2.517,2.517,0,0,1,55.9,41.564Zm0-18.312V34.609a2.516,2.516,0,0,1-2.514,2.514H4.441A2.515,2.515,0,0,1,1.928,34.61V23.253a2.516,2.516,0,0,1,2.513-2.514H53.384A2.517,2.517,0,0,1,55.9,23.253ZM4.441,18.812A2.516,2.516,0,0,1,1.928,16.3V4.941A2.516,2.516,0,0,1,4.441,2.428H53.384A2.517,2.517,0,0,1,55.9,4.941V16.3a2.516,2.516,0,0,1-2.514,2.514H4.441Z" transform="translate(0 -0.5)" fill="#f9556d"/>
  <path id="Path_11864" data-name="Path 11864" d="M10.337,34.174A4.337,4.337,0,1,0,6,29.837,4.342,4.342,0,0,0,10.337,34.174Zm0-6.746a2.409,2.409,0,1,1-2.409,2.409A2.412,2.412,0,0,1,10.337,27.428Z" transform="translate(-0.217 -1.406)" fill="#f9556d"/>
  <path id="Path_11865" data-name="Path 11865" d="M10.337,53.174A4.337,4.337,0,1,0,6,48.837,4.342,4.342,0,0,0,10.337,53.174Zm0-6.746a2.409,2.409,0,1,1-2.409,2.409A2.412,2.412,0,0,1,10.337,46.428Z" transform="translate(-0.217 -2.094)" fill="#f9556d"/>
</svg>
