<svg id="icon_premium" xmlns="http://www.w3.org/2000/svg" width="57.021" height="56.92" viewBox="0 0 57.021 56.92">
  <path id="Path_11849" data-name="Path 11849" d="M293.935,27.5a1.9,1.9,0,1,1-1.9-1.9A1.9,1.9,0,0,1,293.935,27.5Zm0,0" transform="translate(-257.821 -22.75)" fill="#f9556d"/>
  <path id="Path_11850" data-name="Path 11850" d="M55.041,35.083a.95.95,0,0,0-.951-.951H35.083a.951.951,0,0,0,0,1.9H54.09A.951.951,0,0,0,55.041,35.083Zm0,0" transform="translate(-30.331 -30.331)" fill="#f9556d"/>
  <path id="Path_11851" data-name="Path 11851" d="M239.884,36.033h2.851a.95.95,0,1,0,0-1.9h-2.851a.95.95,0,1,0,0,1.9Zm0,0" transform="translate(-212.324 -30.331)" fill="#f9556d"/>
  <path id="Path_11852" data-name="Path 11852" d="M293.935,129.9a1.9,1.9,0,1,1-1.9-1.9A1.9,1.9,0,0,1,293.935,129.9Zm0,0" transform="translate(-257.821 -113.744)" fill="#f9556d"/>
  <path id="Path_11853" data-name="Path 11853" d="M55.041,137.485a.95.95,0,0,0-.951-.95H35.083a.95.95,0,1,0,0,1.9H54.09A.95.95,0,0,0,55.041,137.485Zm0,0" transform="translate(-30.331 -121.329)" fill="#f9556d"/>
  <path id="Path_11854" data-name="Path 11854" d="M239.884,138.436h2.851a.95.95,0,1,0,0-1.9h-2.851a.95.95,0,1,0,0,1.9Zm0,0" transform="translate(-212.324 -121.33)" fill="#f9556d"/>
  <path id="Path_11855" data-name="Path 11855" d="M54.09,238.934H35.083a.951.951,0,1,0,0,1.9H54.09a.951.951,0,1,0,0-1.9Zm0,0" transform="translate(-30.332 -212.324)" fill="#f9556d"/>
  <path id="Path_11856" data-name="Path 11856" d="M54.09,341.336H35.083a.95.95,0,1,0,0,1.9H54.09a.95.95,0,1,0,0-1.9Zm0,0" transform="translate(-30.332 -303.321)" fill="#f9556d"/>
  <path id="Path_11857" data-name="Path 11857" d="M52.27,22.2V4.752a.95.95,0,0,0-.95-.951h-11.4v-.95A2.851,2.851,0,0,0,37.064,0H2.852A2.851,2.851,0,0,0,0,2.851v3.8A2.851,2.851,0,0,0,2.852,9.5h1.9v1.9h-1.9A2.852,2.852,0,0,0,0,14.255v3.8a2.851,2.851,0,0,0,2.851,2.851h1.9v1.9h-1.9A2.851,2.851,0,0,0,0,25.66v3.8a2.851,2.851,0,0,0,2.851,2.851h1.9v1.9h-1.9A2.851,2.851,0,0,0,0,37.064v3.8a2.851,2.851,0,0,0,2.851,2.851h1.9v5.7a.951.951,0,0,0,.95.951H27.561v1.391c0,3.387,7.413,5.16,14.73,5.16s14.73-1.773,14.73-5.16V43.717h-.07a2.216,2.216,0,0,0,.07-.509V35.163h-.07a2.216,2.216,0,0,0,.07-.509V26.61h-.065a2.334,2.334,0,0,0,.065-.475c0-1.741-1.914-3.06-4.752-3.938ZM29.462,37.323c2.669,1.642,7.769,2.491,12.83,2.491s10.161-.849,12.83-2.491v5.885c0,1.106-4.528,3.259-12.83,3.259s-12.83-2.153-12.83-3.259Zm12.83.59c-8.3,0-12.83-2.153-12.83-3.259V28.839c2.669,1.668,7.769,2.523,12.83,2.523s10.161-.855,12.83-2.523v5.815C55.121,35.76,50.593,37.913,42.291,37.913Zm12.83-11.778c0,1.129-4.528,3.326-12.83,3.326s-12.83-2.2-12.83-3.326,4.528-3.326,12.83-3.326S55.121,25.007,55.121,26.135ZM1.9,6.653v-3.8A.95.95,0,0,1,2.852,1.9H37.064a.95.95,0,0,1,.951.951v3.8a.95.95,0,0,1-.951.95H2.852a.95.95,0,0,1-.951-.95ZM6.653,9.5h26.61v1.9H6.653ZM1.9,18.057v-3.8a.95.95,0,0,1,.951-.95H37.064a.95.95,0,0,1,.951.95v3.8a.95.95,0,0,1-.951.951H2.852a.95.95,0,0,1-.951-.951ZM6.653,48.469V43.717H24.71a.951.951,0,0,0,0-1.9H2.852a.95.95,0,0,1-.951-.95v-3.8a.95.95,0,0,1,.951-.951H24.71a.95.95,0,1,0,0-1.9H6.653v-1.9H24.71a.951.951,0,0,0,0-1.9H2.852a.95.95,0,0,1-.951-.95v-3.8a.95.95,0,0,1,.951-.951H24.71a.95.95,0,1,0,0-1.9H6.653v-1.9H37.064a2.851,2.851,0,0,0,2.851-2.851v-3.8A2.851,2.851,0,0,0,37.064,11.4h-1.9V9.5h1.9a2.851,2.851,0,0,0,2.851-2.851V5.7H50.369v16a39.08,39.08,0,0,0-8.078-.8c-7.318,0-14.73,1.8-14.73,5.227a2.3,2.3,0,0,0,.064.475h-.064v8.044a2.215,2.215,0,0,0,.07.509h-.07v8.044a2.215,2.215,0,0,0,.07.509h-.07v4.752Zm35.638,6.55c-8.3,0-12.83-2.153-12.83-3.258V45.876c2.669,1.642,7.769,2.491,12.83,2.491s10.161-.849,12.83-2.491v5.885C55.121,52.866,50.593,55.019,42.291,55.019Zm0,0" transform="translate(0 0)" fill="#f9556d"/>
</svg>
