<svg id="icon_business" xmlns="http://www.w3.org/2000/svg" width="56.86" height="56.862" viewBox="0 0 56.86 56.862">
  <path id="Path_11831" data-name="Path 11831" d="M5,26.834v5.5a1.836,1.836,0,0,0,1.834,1.834H25.176a1.836,1.836,0,0,0,1.834-1.834v-5.5A1.836,1.836,0,0,0,25.176,25H6.834A1.836,1.836,0,0,0,5,26.834Zm1.834,0H25.176v5.5H6.834Z" transform="translate(-1.332 -2.99)" fill="#f9556d"/>
  <path id="Path_11832" data-name="Path 11832" d="M13,29h1.834v1.834H13Z" transform="translate(-1.995 -3.321)" fill="#f9556d"/>
  <path id="Path_11833" data-name="Path 11833" d="M9,29h1.834v1.834H9Z" transform="translate(-1.663 -3.321)" fill="#f9556d"/>
  <path id="Path_11834" data-name="Path 11834" d="M23,29h1.834v1.834H23Z" transform="translate(-2.824 -3.321)" fill="#f9556d"/>
  <path id="Path_11835" data-name="Path 11835" d="M25.176,37H6.834A1.836,1.836,0,0,0,5,38.834v5.5a1.836,1.836,0,0,0,1.834,1.834H25.176a1.836,1.836,0,0,0,1.834-1.834v-5.5A1.836,1.836,0,0,0,25.176,37Zm0,7.337H6.834v-5.5H25.176Z" transform="translate(-1.332 -3.984)" fill="#f9556d"/>
  <path id="Path_11836" data-name="Path 11836" d="M19,41h1.834v1.834H19Z" transform="translate(-2.492 -4.316)" fill="#f9556d"/>
  <path id="Path_11837" data-name="Path 11837" d="M23,41h1.834v1.834H23Z" transform="translate(-2.824 -4.316)" fill="#f9556d"/>
  <path id="Path_11838" data-name="Path 11838" d="M9,41h1.834v1.834H9Z" transform="translate(-1.663 -4.316)" fill="#f9556d"/>
  <path id="Path_11839" data-name="Path 11839" d="M25.176,49H6.834A1.836,1.836,0,0,0,5,50.834v5.5a1.836,1.836,0,0,0,1.834,1.834H25.176a1.836,1.836,0,0,0,1.834-1.834v-5.5A1.836,1.836,0,0,0,25.176,49ZM6.834,56.337v-5.5H25.176v5.5Z" transform="translate(-1.332 -4.979)" fill="#f9556d"/>
  <path id="Path_11840" data-name="Path 11840" d="M9,53h1.834v1.834H9Z" transform="translate(-1.663 -5.311)" fill="#f9556d"/>
  <path id="Path_11841" data-name="Path 11841" d="M13,53h1.834v1.834H13Z" transform="translate(-1.995 -5.311)" fill="#f9556d"/>
  <path id="Path_11842" data-name="Path 11842" d="M23,53h1.834v1.834H23Z" transform="translate(-2.824 -5.311)" fill="#f9556d"/>
  <path id="Path_11843" data-name="Path 11843" d="M55.109,32.182H47.772v-5.5h2.751a7.334,7.334,0,0,0,.917-14.61v-.063a10.988,10.988,0,0,0-19.96-6.361A8.244,8.244,0,0,0,19.4,12.01c-.017,0-.035,0-.053,0a7.345,7.345,0,0,0-7.337,7.337H5.585A4.591,4.591,0,0,0,1,23.928V53.275A4.591,4.591,0,0,0,5.585,57.86H25.762a4.591,4.591,0,0,0,4.585-4.586V39.518h.917a2.755,2.755,0,0,0,2.751-2.751v-5.5a.919.919,0,0,1,.917-.917h6.42a2.751,2.751,0,0,0,0-5.5H30.347v-.917a4.591,4.591,0,0,0-4.585-4.586H13.839a5.5,5.5,0,0,1,10.8-1.51l1.764-.5a7.35,7.35,0,0,0-5.191-5.058,6.42,6.42,0,0,1,12.806.649H35.85a8.227,8.227,0,0,0-2.864-6.236,9.157,9.157,0,0,1,16.621,5.319c0,.282-.018.561-.043.837l-.043,1h1a5.5,5.5,0,0,1,0,11.005H45.938v7.337H38.6a2.755,2.755,0,0,0-2.751,2.751v1.834a2.748,2.748,0,0,0,1.834,2.583v2.173A2.748,2.748,0,0,0,35.85,44.1v1.834a2.748,2.748,0,0,0,1.834,2.583v2.173a2.748,2.748,0,0,0-1.834,2.583v1.834A2.755,2.755,0,0,0,38.6,57.862H55.109a2.755,2.755,0,0,0,2.751-2.751V53.277a2.748,2.748,0,0,0-1.834-2.583V48.522a2.748,2.748,0,0,0,1.834-2.583V44.1a2.748,2.748,0,0,0-1.834-2.583V39.35a2.748,2.748,0,0,0,1.834-2.583V34.933A2.755,2.755,0,0,0,55.109,32.182Zm-13.756-5.5a.917.917,0,0,1,0,1.834h-6.42a2.755,2.755,0,0,0-2.751,2.751v5.5a.919.919,0,0,1-.917.917h-.917V26.679ZM28.513,23.928V53.275a2.755,2.755,0,0,1-2.751,2.751H5.585a2.755,2.755,0,0,1-2.751-2.751V23.928a2.755,2.755,0,0,1,2.751-2.751H25.762A2.755,2.755,0,0,1,28.513,23.928ZM39.518,41.353V39.518H54.192v1.834Zm0,9.171V48.689H54.192v1.834Zm16.508,4.586a.919.919,0,0,1-.917.917H38.6a.919.919,0,0,1-.917-.917V53.275a.919.919,0,0,1,.917-.917H55.109a.919.919,0,0,1,.917.917Zm0-9.171a.919.919,0,0,1-.917.917H38.6a.919.919,0,0,1-.917-.917V44.1a.919.919,0,0,1,.917-.917H55.109a.919.919,0,0,1,.917.917Zm0-9.171a.919.919,0,0,1-.917.917H38.6a.919.919,0,0,1-.917-.917V34.933a.919.919,0,0,1,.917-.917H55.109a.919.919,0,0,1,.917.917Z" transform="translate(-1 -1)" fill="#f9556d"/>
  <path id="Path_11844" data-name="Path 11844" d="M43,24.668H54.005A3.672,3.672,0,0,0,57.674,21H55.839a1.836,1.836,0,0,1-1.834,1.834H43Z" transform="translate(-4.482 -2.658)" fill="#f9556d"/>
  <path id="Path_11845" data-name="Path 11845" d="M39,23h1.834v1.834H39Z" transform="translate(-4.15 -2.824)" fill="#f9556d"/>
  <path id="Path_11846" data-name="Path 11846" d="M35,23h1.834v1.834H35Z" transform="translate(-3.819 -2.824)" fill="#f9556d"/>
  <path id="Path_11847" data-name="Path 11847" d="M51.032,14.433A7.341,7.341,0,0,0,44,5V6.834a5.505,5.505,0,0,1,5.274,7.075Z" transform="translate(-4.565 -1.332)" fill="#f9556d"/>
  <path id="Path_11848" data-name="Path 11848" d="M30,9v1.834a2.755,2.755,0,0,1,2.751,2.751h1.834A4.591,4.591,0,0,0,30,9Z" transform="translate(-3.404 -1.663)" fill="#f9556d"/>
</svg>
