<svg xmlns="http://www.w3.org/2000/svg" width="87" height="87" viewBox="0 0 87 87">
  <g id="salary" transform="translate(-606 -3999)">
    <rect id="Rectangle_662" data-name="Rectangle 662" width="87" height="87" transform="translate(606 3999)" fill="#fff"/>
    <g id="Group_2299" data-name="Group 2299" transform="translate(-101.742 1536.567)">
      <path id="Path_5008" data-name="Path 5008" d="M75.688,25.978,59.733,10.023l-20,20L73.912,64.21,92.789,45.333" transform="translate(669.816 2469.207)" fill="#4fbf9f"/>
      <path id="Path_5009" data-name="Path 5009" d="M151.409,113.963h0l0-.011a8.444,8.444,0,1,0,9.02,8.636" transform="translate(584.648 2383.947)" fill="#ffd36c"/>
      <path id="Path_5010" data-name="Path 5010" d="M228.137,48.677V34.434c-8.113-.358-5.772-1.791-19.887-8.138a13.359,13.359,0,0,0-10.392.177l-.009,0-8.366,3,8.632,8.632" transform="translate(546.964 2456.655)" fill="#fedbab"/>
      <g id="Group_2297" data-name="Group 2297" transform="translate(709.545 2479.229)">
        <path id="Path_5011" data-name="Path 5011" d="M39.729,90.41l6.782-6.782a9.6,9.6,0,0,1,0,13.564Z" transform="translate(-39.729 -70.406)" fill="#4fbf9f"/>
        <path id="Path_5012" data-name="Path 5012" d="M192.264,261.106a9.6,9.6,0,0,1,13.564,0l-6.782,6.782Z" transform="translate(-164.863 -213.7)" fill="#4fbf9f"/>
        <path id="Path_5013" data-name="Path 5013" d="M113.333,16.8l6.782-6.782L126.9,16.8A9.6,9.6,0,0,1,113.333,16.8Z" transform="translate(-100.111 -10.023)" fill="#4fbf9f"/>
        <path id="Path_5014" data-name="Path 5014" d="M288.582,182.048a9.6,9.6,0,0,0,2.23,10.062l5.654-5.655" transform="translate(-243.407 -151.145)" fill="#4fbf9f"/>
      </g>
      <g id="Group_2298" data-name="Group 2298" transform="translate(735.855 2494.061)">
        <path id="Path_5015" data-name="Path 5015" d="M209.057,97.9l-16.122-5.109a5.3,5.3,0,0,0-6.543,3.646h0c-.8,2.814.832,5.743,4.056,6.939l14.308,4.856-.006,0s3.053,4.987,10.324,4.987c4.591,0,8.549-3.711,10.361-6.959V99.771" transform="translate(-186.19 -92.585)" fill="#fedbab"/>
      </g>
      <path id="Path_5016" data-name="Path 5016" d="M341.046,127.09a1.771,1.771,0,0,1-.35-.036,1.814,1.814,0,0,1-.336-.1,1.772,1.772,0,0,1-.311-.165,1.745,1.745,0,0,1-.5-.5,1.778,1.778,0,0,1-.165-.311,1.69,1.69,0,0,1-.1-.336,1.727,1.727,0,0,1,0-.7,1.744,1.744,0,0,1,.1-.338,1.828,1.828,0,0,1,.165-.309,1.746,1.746,0,0,1,.5-.5,1.773,1.773,0,0,1,.311-.165,1.686,1.686,0,0,1,.336-.1,1.789,1.789,0,0,1,1.038.1,1.824,1.824,0,0,1,.309.165,1.8,1.8,0,0,1,.661.8,1.743,1.743,0,0,1,.1.338,1.817,1.817,0,0,1,0,.7,1.689,1.689,0,0,1-.1.336,1.658,1.658,0,0,1-.165.311,1.744,1.744,0,0,1-.5.5,1.824,1.824,0,0,1-.309.165,1.9,1.9,0,0,1-.336.1A1.8,1.8,0,0,1,341.046,127.09Z" transform="translate(424.101 2376.116)"/>
      <rect id="Rectangle_658" data-name="Rectangle 658" width="6.805" height="19.301" transform="translate(775.101 2488.662)" fill="#eaecf0"/>
      <path id="Path_5038" data-name="Path 5038" d="M0,0H10.681V22.649H0Z" transform="translate(781.906 2485.313)" fill="#01358d"/>
      <path id="Path_5017" data-name="Path 5017" d="M114.536,6.107H103.855a1.8,1.8,0,0,0-1.8,1.8V9.455H97.05a1.8,1.8,0,0,0-1.8,1.8v.517c-2.92-.255-3.88-.809-6.562-2.355A108.7,108.7,0,0,0,77.9,3.9L77.82,3.87a15.283,15.283,0,0,0-11.73.184L58.862,6.642,52.768.549a1.8,1.8,0,0,0-2.54,0l-20,20a1.782,1.782,0,0,0,0,2.541L64.407,57.277a1.941,1.941,0,0,0,2.541,0L85.21,39.014c.475.041.968.063,1.478.063,4.693,0,8.845-3.22,11.22-6.729h16.628a1.8,1.8,0,0,0,1.8-1.8V7.9A1.8,1.8,0,0,0,114.536,6.107ZM56.054,22.767a7.953,7.953,0,0,0,5.383,6.357l.048.017,3.592,1.219a6.647,6.647,0,1,1-9.022-7.593Zm3.593-7.014a7.041,7.041,0,0,0-2.927,3.092A10.239,10.239,0,1,0,68.493,31.519l6.065,2.058a11.469,11.469,0,0,0,1.9,9.1l-4.1,4.1a11.416,11.416,0,0,0-13.363,0L40.717,28.506a11.416,11.416,0,0,0,0-13.365l4.1-4.1a11.416,11.416,0,0,0,13.365,0l3.885,3.885A7.089,7.089,0,0,0,59.648,15.753Zm19.4,24.341A7.857,7.857,0,0,1,77.9,36.358a13.968,13.968,0,0,0,3.168,1.715ZM51.5,4.36l4.094,4.094a7.832,7.832,0,0,1-8.189,0ZM38.129,17.729a7.832,7.832,0,0,1,0,8.189l-4.094-4.095ZM65.677,53.466l-4.094-4.094a7.821,7.821,0,0,1,8.187,0ZM86.689,35.484a13.075,13.075,0,0,1-1.874-.132h-.007a10.289,10.289,0,0,1-6.654-3.641c-.037-.054-.193-.258-.216-.292a1.79,1.79,0,0,0-.99-.823L62.665,25.747c-2.279-.855-3.484-2.807-2.932-4.754v-.008a3.5,3.5,0,0,1,4.3-2.41l16.094,5.1a1.8,1.8,0,0,0,1.085-3.425l-12.8-4.056-.112-.112,0,0L61.671,9.452l5.7-2.04.062-.024.019-.008.072-.031A11.642,11.642,0,0,1,76.467,7.2,104.059,104.059,0,0,1,86.9,12.525c2.94,1.7,4.356,2.512,8.356,2.842V29.836C93.551,32.628,90.249,35.484,86.689,35.484ZM98.846,13.047h3.212V28.756H98.846ZM112.74,28.756h-7.088V9.7h7.088Z" transform="translate(678.051 2477.41)"/>
    </g>
  </g>
</svg>
