<svg xmlns="http://www.w3.org/2000/svg" width="87" height="87" viewBox="0 0 87 87">
  <g id="play" transform="translate(-1020 -3999)">
    <rect id="Rectangle_663" data-name="Rectangle 663" width="87" height="87" transform="translate(1020 3999)" fill="#fff"/>
    <g id="strategy" transform="translate(1021 3955)">
      <path id="Path_5018" data-name="Path 5018" d="M83.824,127.848H17.981A7.981,7.981,0,0,1,10,119.867V71.981A7.981,7.981,0,0,1,17.981,64H83.824A7.981,7.981,0,0,1,91.8,71.981v47.886A7.981,7.981,0,0,1,83.824,127.848Z" transform="translate(-8.337 -8.337)" fill="#4fbf9f" opacity="0.77"/>
      <rect id="Rectangle_660" data-name="Rectangle 660" width="65.843" height="47.886" transform="translate(9.644 63.644)" fill="#fff"/>
      <path id="Path_5019" data-name="Path 5019" d="M327,164.646h9.477V156H327l2.328,4.323Z" transform="translate(-272.63 -85.04)" fill="#96ede7"/>
      <circle id="Ellipse_1577" data-name="Ellipse 1577" cx="3.325" cy="3.325" r="3.325" transform="translate(52.458 98.228)" fill="#ff5d5d"/>
      <path id="Path_5020" data-name="Path 5020" d="M75.486,54H9.644A9.655,9.655,0,0,0,0,63.644v47.886a9.655,9.655,0,0,0,9.644,9.644H43.729a1.663,1.663,0,1,0,0-3.325H9.644a6.325,6.325,0,0,1-6.318-6.318V63.644a6.325,6.325,0,0,1,6.318-6.318H75.486A6.325,6.325,0,0,1,81.8,63.644v47.886a6.325,6.325,0,0,1-6.318,6.318h-19.7a1.663,1.663,0,0,0,0,3.325h19.7a9.655,9.655,0,0,0,9.644-9.644V63.644A9.655,9.655,0,0,0,75.486,54Z" transform="translate(0 0)"/>
      <path id="Path_5021" data-name="Path 5021" d="M290.663,438a1.663,1.663,0,1,0,1.176.487A1.675,1.675,0,0,0,290.663,438Z" transform="translate(-240.948 -320.152)"/>
      <path id="Path_5022" data-name="Path 5022" d="M165.663,105.325a1.663,1.663,0,1,0-1.176-.487A1.675,1.675,0,0,0,165.663,105.325Z" transform="translate(-136.732 -40.019)"/>
      <path id="Path_5023" data-name="Path 5023" d="M61.135,102H49.663A1.663,1.663,0,0,0,48,103.663v47.886a1.663,1.663,0,0,0,1.663,1.663h65.843a1.663,1.663,0,0,0,1.663-1.663V103.663A1.663,1.663,0,0,0,115.505,102H76.266a1.663,1.663,0,0,0,0,3.325h37.577v44.56H51.325v-44.56h9.81a1.663,1.663,0,1,0,0-3.325Z" transform="translate(-40.019 -40.019)"/>
      <path id="Path_5024" data-name="Path 5024" d="M317.235,157.161a1.663,1.663,0,0,0,1.427.81h7.815v6.318a1.663,1.663,0,1,0,3.325,0V147.663A1.663,1.663,0,0,0,328.14,146h-9.477a1.663,1.663,0,0,0-1.464,2.451l1.9,3.535-1.9,3.535A1.662,1.662,0,0,0,317.235,157.161Zm5.219-5.964-1.008-1.872h5.031v5.321h-5.031l1.008-1.872A1.663,1.663,0,0,0,322.454,151.2Z" transform="translate(-264.292 -76.703)"/>
      <path id="Path_5025" data-name="Path 5025" d="M333.325,249.325a1.663,1.663,0,0,0,0-3.325h-1.663a1.663,1.663,0,0,0,0,3.325Z" transform="translate(-275.131 -160.076)"/>
      <path id="Path_5026" data-name="Path 5026" d="M163.663,249.325h1.663a1.663,1.663,0,1,0,0-3.325h-1.663a1.663,1.663,0,0,0,0,3.325Z" transform="translate(-135.064 -160.076)"/>
      <path id="Path_5027" data-name="Path 5027" d="M291.325,246h-1.663a1.663,1.663,0,1,0,0,3.325h1.663a1.663,1.663,0,0,0,0-3.325Z" transform="translate(-240.114 -160.076)"/>
      <path id="Path_5028" data-name="Path 5028" d="M107.125,317.317a1.663,1.663,0,1,0,2.118-2.564,5.366,5.366,0,0,1-.873-.916,1.663,1.663,0,1,0-2.66,1.995A8.686,8.686,0,0,0,107.125,317.317Z" transform="translate(-87.856 -216.08)"/>
      <path id="Path_5029" data-name="Path 5029" d="M123.519,246.988a8.619,8.619,0,0,0-1.943.672,1.663,1.663,0,1,0,1.455,2.99,5.281,5.281,0,0,1,1.192-.413,1.663,1.663,0,0,0-.7-3.25Z" transform="translate(-100.581 -160.868)"/>
      <path id="Path_5030" data-name="Path 5030" d="M142,331.663a1.663,1.663,0,0,0,1.663,1.663h1.663a1.663,1.663,0,1,0,0-3.325h-1.663A1.663,1.663,0,0,0,142,331.663Z" transform="translate(-118.392 -230.11)"/>
      <path id="Path_5031" data-name="Path 5031" d="M100.606,276.79a5.292,5.292,0,0,1,.3-1.226,1.663,1.663,0,0,0-3.116-1.162,8.611,8.611,0,0,0-.483,2,1.663,1.663,0,0,0,1.456,1.846,1.685,1.685,0,0,0,.2.012A1.663,1.663,0,0,0,100.606,276.79Z" transform="translate(-81.115 -182.853)"/>
      <path id="Path_5032" data-name="Path 5032" d="M184,331.663a1.663,1.663,0,0,0,1.663,1.663h1.663a1.663,1.663,0,1,0,0-3.325h-1.663A1.663,1.663,0,0,0,184,331.663Z" transform="translate(-153.409 -230.11)"/>
      <path id="Path_5033" data-name="Path 5033" d="M249.325,246h-1.663a1.663,1.663,0,1,0,0,3.325h1.663a1.663,1.663,0,1,0,0-3.325Z" transform="translate(-205.098 -160.076)"/>
      <path id="Path_5034" data-name="Path 5034" d="M269.666,330a1.663,1.663,0,0,0,0,3.325h.914a1.663,1.663,0,0,0,0-3.325Z" transform="translate(-223.442 -230.11)"/>
      <path id="Path_5035" data-name="Path 5035" d="M207.325,246h-1.663a1.663,1.663,0,1,0,0,3.325h1.663a1.663,1.663,0,1,0,0-3.325Z" transform="translate(-170.081 -160.076)"/>
      <path id="Path_5036" data-name="Path 5036" d="M226,331.663a1.663,1.663,0,0,0,1.663,1.663h1.663a1.663,1.663,0,1,0,0-3.325h-1.663A1.663,1.663,0,0,0,226,331.663Z" transform="translate(-188.426 -230.11)"/>
      <path id="Path_5037" data-name="Path 5037" d="M305.5,314.988A4.988,4.988,0,1,0,310.488,310,4.994,4.994,0,0,0,305.5,314.988Zm4.988-1.663a1.663,1.663,0,1,1-1.663,1.663A1.665,1.665,0,0,1,310.488,313.325Z" transform="translate(-254.705 -213.435)"/>
    </g>
  </g>
</svg>
